<svg xmlns="http://www.w3.org/2000/svg" xmlns:xlink="http://www.w3.org/1999/xlink" width="200" zoomAndPan="magnify" viewBox="0 0 150 74.999997" height="100" preserveAspectRatio="xMidYMid meet" version="1.0"><defs><g/><clipPath id="30f0392c85"><path d="M 36.207031 20.765625 L 58.871094 20.765625 L 58.871094 56.382812 L 36.207031 56.382812 Z M 36.207031 20.765625 " clip-rule="nonzero"/></clipPath><clipPath id="4fae46af89"><path d="M 37.285156 20.226562 L 59.949219 20.226562 L 59.949219 55.84375 L 37.285156 55.84375 Z M 37.285156 20.226562 " clip-rule="nonzero"/></clipPath></defs><g clip-path="url(#30f0392c85)"><path fill="#f4f4f4" d="M 36.359375 48.734375 C 36.359375 48.800781 36.363281 48.867188 36.363281 48.933594 C 36.375 49.457031 36.46875 49.992188 36.582031 50.492188 C 36.6875 50.960938 36.867188 51.464844 37.222656 51.78125 C 37.78125 52.28125 39.332031 52.542969 39.332031 52.542969 C 39.332031 52.542969 40.300781 54.003906 40.992188 54.515625 C 41.636719 54.996094 42.4375 55.25 43.210938 55.464844 C 43.722656 55.609375 44.261719 55.644531 44.792969 55.691406 C 48.292969 56.011719 51.480469 56.382812 55.335938 56.109375 C 56.710938 56.011719 57.386719 55.40625 58.007812 54.589844 C 58.585938 53.835938 58.859375 52.765625 58.726562 51.820312 C 58.621094 51.078125 58.113281 50.417969 57.582031 49.890625 C 56.484375 48.792969 53.753906 47.757812 53.566406 47.53125 C 53.378906 47.304688 52.925781 47 52.925781 47 C 52.925781 47 53.578125 46.273438 53.753906 45.824219 C 54 45.195312 54.109375 44.484375 54.019531 43.8125 C 53.902344 42.941406 53.566406 42.050781 53 41.382812 C 52.597656 40.910156 51.417969 40.394531 51.417969 40.394531 L 51.417969 36.753906 C 51.417969 36.753906 52.597656 36.242188 53 35.765625 C 53.566406 35.097656 53.902344 34.207031 54.019531 33.335938 C 54.109375 32.667969 54 31.957031 53.753906 31.324219 C 53.578125 30.878906 52.925781 30.148438 52.925781 30.148438 C 52.925781 30.148438 53.378906 29.847656 53.566406 29.617188 C 53.753906 29.390625 56.484375 28.359375 57.582031 27.261719 C 58.113281 26.734375 58.621094 26.070312 58.726562 25.328125 C 58.859375 24.386719 58.585938 23.316406 58.007812 22.558594 C 57.386719 21.742188 56.710938 21.136719 55.335938 21.039062 C 51.480469 20.765625 48.292969 21.136719 44.792969 21.457031 C 44.261719 21.507812 43.722656 21.542969 43.210938 21.6875 C 42.4375 21.902344 41.636719 22.152344 40.992188 22.632812 C 40.300781 23.144531 39.332031 24.609375 39.332031 24.609375 C 39.332031 24.609375 37.78125 24.871094 37.222656 25.371094 C 36.867188 25.6875 36.6875 26.1875 36.582031 26.65625 C 36.355469 27.65625 36.210938 28.796875 36.621094 29.734375 C 36.859375 30.273438 37.449219 30.640625 37.902344 30.945312 C 38.355469 31.25 39.785156 31.402344 39.785156 31.402344 L 39.765625 36.679688 L 39.75 36.679688 L 39.753906 38.574219 L 39.75 40.472656 L 39.765625 40.472656 L 39.785156 45.75 C 39.785156 45.75 38.355469 45.898438 37.902344 46.203125 C 37.449219 46.507812 36.859375 46.875 36.621094 47.414062 C 36.441406 47.828125 36.367188 48.273438 36.359375 48.734375 Z M 40.121094 27.316406 C 40.121094 26.601562 40.695312 26.023438 41.402344 26.023438 C 42.109375 26.023438 42.683594 26.601562 42.683594 27.316406 C 42.683594 28.03125 42.109375 28.609375 41.402344 28.609375 C 40.695312 28.609375 40.121094 28.03125 40.121094 27.316406 Z M 40.84375 50.910156 L 40.84375 48.832031 L 42.378906 48.832031 C 42.378906 48.832031 43.363281 49.585938 43.351562 49.871094 C 43.339844 50.175781 42.378906 50.910156 42.378906 50.910156 Z M 42.84375 30.453125 C 42.84375 29.738281 43.417969 29.160156 44.125 29.160156 C 44.832031 29.160156 45.40625 29.738281 45.40625 30.453125 C 45.40625 31.164062 44.832031 31.742188 44.125 31.742188 C 43.417969 31.742188 42.84375 31.164062 42.84375 30.453125 Z M 42.84375 24.179688 C 42.84375 23.464844 43.417969 22.886719 44.125 22.886719 C 44.832031 22.886719 45.40625 23.464844 45.40625 24.179688 C 45.40625 24.894531 44.832031 25.472656 44.125 25.472656 C 43.417969 25.472656 42.84375 24.894531 42.84375 24.179688 Z M 42.9375 52.945312 L 42.9375 51.398438 C 42.9375 51.398438 43.667969 50.429688 43.972656 50.417969 C 44.253906 50.40625 45.003906 51.398438 45.003906 51.398438 L 45.003906 52.945312 Z M 42.9375 48.34375 L 42.9375 46.796875 L 45.003906 46.796875 L 45.003906 48.34375 C 45.003906 48.34375 44.253906 49.335938 43.972656 49.324219 C 43.667969 49.3125 42.9375 48.34375 42.9375 48.34375 Z M 43.488281 36.125 L 44.144531 34.101562 L 44.804688 36.125 Z M 43.53125 43.199219 L 43.53125 41.183594 L 44.757812 41.183594 L 44.757812 43.199219 Z M 44.589844 49.871094 C 44.578125 49.585938 45.5625 48.832031 45.5625 48.832031 L 47.097656 48.832031 L 47.097656 50.910156 L 45.5625 50.910156 C 45.5625 50.910156 44.601562 50.175781 44.589844 49.871094 Z M 45.570312 27.316406 C 45.570312 26.601562 46.144531 26.023438 46.851562 26.023438 C 47.558594 26.023438 48.132812 26.601562 48.132812 27.316406 C 48.132812 28.03125 47.558594 28.609375 46.851562 28.609375 C 46.144531 28.609375 45.570312 28.03125 45.570312 27.316406 Z M 47.808594 44.347656 C 47.808594 42.953125 48.929688 41.824219 50.3125 41.824219 C 51.695312 41.824219 52.820312 42.953125 52.820312 44.347656 C 52.820312 45.742188 51.695312 46.871094 50.3125 46.871094 C 48.929688 46.871094 47.808594 45.742188 47.808594 44.347656 Z M 47.808594 32.953125 C 47.808594 31.5625 48.929688 30.433594 50.3125 30.433594 C 51.695312 30.433594 52.820312 31.5625 52.820312 32.953125 C 52.820312 34.347656 51.695312 35.476562 50.3125 35.476562 C 48.929688 35.476562 47.808594 34.347656 47.808594 32.953125 Z M 47.808594 32.953125 " fill-opacity="1" fill-rule="nonzero"/></g><g fill="#f4f4f4" fill-opacity="1"><g transform="translate(0.386178, 53.992353)"><g><path d="M 31.71875 -18.1875 L 31.71875 -11.140625 C 30.882812 -7.285156 29.050781 -4.363281 26.21875 -2.375 C 23.382812 -0.394531 20.222656 0.59375 16.734375 0.59375 C 12.347656 0.59375 8.613281 -1.046875 5.53125 -4.328125 C 2.445312 -7.609375 0.90625 -11.570312 0.90625 -16.21875 C 0.90625 -20.9375 2.410156 -24.921875 5.421875 -28.171875 C 8.441406 -31.429688 12.210938 -33.0625 16.734375 -33.0625 C 22.003906 -33.0625 26.175781 -31.210938 29.25 -27.515625 L 24.40625 -22.203125 C 22.675781 -24.984375 20.257812 -26.375 17.15625 -26.375 C 14.875 -26.375 12.925781 -25.378906 11.3125 -23.390625 C 9.695312 -21.410156 8.890625 -19.019531 8.890625 -16.21875 C 8.890625 -13.457031 9.695312 -11.097656 11.3125 -9.140625 C 12.925781 -7.191406 14.875 -6.21875 17.15625 -6.21875 C 19.050781 -6.21875 20.695312 -6.785156 22.09375 -7.921875 C 23.5 -9.066406 24.203125 -10.585938 24.203125 -12.484375 L 16.734375 -12.484375 L 16.734375 -18.1875 Z M 31.71875 -18.1875 "/></g></g></g><g fill="#f4f4f4" fill-opacity="1"><g transform="translate(35.767326, 53.992353)"><g/></g></g><g fill="#f4f4f4" fill-opacity="1"><g transform="translate(49.267804, 53.992353)"><g/></g></g><g fill="#f4f4f4" fill-opacity="1"><g transform="translate(62.762108, 53.992353)"><g><path d="M 20.9375 -32.46875 L 20.9375 -25.984375 L 9.765625 -25.984375 L 9.765625 -19.515625 L 20.46875 -19.515625 L 20.46875 -13.03125 L 9.765625 -13.03125 L 9.765625 -6.5 L 20.9375 -6.5 L 20.9375 0 L 2.359375 0 L 2.359375 -32.46875 Z M 20.9375 -32.46875 "/></g></g></g><g fill="#f4f4f4" fill-opacity="1"><g transform="translate(88.346115, 53.992353)"><g><path d="M 31.921875 0 L 21.71875 0 L 9.765625 -13.78125 L 9.765625 0 L 2.359375 0 L 2.359375 -32.46875 L 9.765625 -32.46875 L 9.765625 -19.203125 L 20.90625 -32.46875 L 29.875 -32.46875 L 16.8125 -17.078125 Z M 31.921875 0 "/></g></g></g><g fill="#f4f4f4" fill-opacity="1"><g transform="translate(122.077637, 53.992353)"><g><path d="M 14.328125 -33.0625 C 16.085938 -33.0625 17.804688 -32.804688 19.484375 -32.296875 C 21.160156 -31.785156 22.40625 -31.28125 23.21875 -30.78125 L 24.40625 -29.984375 L 21.40625 -24.09375 C 21.175781 -24.25 20.847656 -24.453125 20.421875 -24.703125 C 20.003906 -24.953125 19.21875 -25.285156 18.0625 -25.703125 C 16.90625 -26.117188 15.832031 -26.328125 14.84375 -26.328125 C 13.601562 -26.328125 12.648438 -26.0625 11.984375 -25.53125 C 11.316406 -25.007812 10.984375 -24.304688 10.984375 -23.421875 C 10.984375 -22.972656 11.140625 -22.554688 11.453125 -22.171875 C 11.765625 -21.796875 12.300781 -21.390625 13.0625 -20.953125 C 13.820312 -20.523438 14.488281 -20.175781 15.0625 -19.90625 C 15.644531 -19.644531 16.539062 -19.253906 17.75 -18.734375 C 19.851562 -17.835938 21.644531 -16.625 23.125 -15.09375 C 24.601562 -13.5625 25.34375 -11.820312 25.34375 -9.875 C 25.34375 -8.007812 25.007812 -6.378906 24.34375 -4.984375 C 23.675781 -3.597656 22.757812 -2.507812 21.59375 -1.71875 C 20.425781 -0.9375 19.132812 -0.359375 17.71875 0.015625 C 16.300781 0.398438 14.765625 0.59375 13.109375 0.59375 C 11.691406 0.59375 10.300781 0.445312 8.9375 0.15625 C 7.570312 -0.132812 6.425781 -0.492188 5.5 -0.921875 C 4.582031 -1.359375 3.753906 -1.785156 3.015625 -2.203125 C 2.285156 -2.617188 1.753906 -2.972656 1.421875 -3.265625 L 0.90625 -3.703125 L 4.609375 -9.921875 C 4.921875 -9.660156 5.351562 -9.328125 5.90625 -8.921875 C 6.457031 -8.515625 7.429688 -7.96875 8.828125 -7.28125 C 10.234375 -6.601562 11.476562 -6.265625 12.5625 -6.265625 C 15.675781 -6.265625 17.234375 -7.328125 17.234375 -9.453125 C 17.234375 -9.890625 17.117188 -10.296875 16.890625 -10.671875 C 16.671875 -11.054688 16.28125 -11.4375 15.71875 -11.8125 C 15.15625 -12.195312 14.65625 -12.5 14.21875 -12.71875 C 13.789062 -12.945312 13.082031 -13.289062 12.09375 -13.75 C 11.113281 -14.207031 10.390625 -14.554688 9.921875 -14.796875 C 7.953125 -15.765625 6.425781 -16.976562 5.34375 -18.4375 C 4.269531 -19.894531 3.734375 -21.460938 3.734375 -23.140625 C 3.734375 -26.054688 4.804688 -28.4375 6.953125 -30.28125 C 9.109375 -32.132812 11.566406 -33.0625 14.328125 -33.0625 Z M 14.328125 -33.0625 "/></g></g></g><g clip-path="url(#4fae46af89)"><path fill="#3d3d3d" d="M 37.441406 48.195312 C 37.4375 48.257812 37.441406 48.328125 37.441406 48.390625 C 37.457031 48.917969 37.546875 49.453125 37.664062 49.953125 C 37.769531 50.421875 37.945312 50.925781 38.304688 51.242188 C 38.863281 51.742188 40.410156 52.003906 40.410156 52.003906 C 40.410156 52.003906 41.382812 53.464844 42.070312 53.976562 C 42.71875 54.457031 43.515625 54.707031 44.289062 54.925781 C 44.804688 55.070312 45.339844 55.105469 45.871094 55.152344 C 49.375 55.472656 52.5625 55.84375 56.414062 55.570312 C 57.789062 55.472656 58.464844 54.867188 59.089844 54.050781 C 59.667969 53.296875 59.9375 52.226562 59.804688 51.28125 C 59.699219 50.539062 59.191406 49.878906 58.664062 49.351562 C 57.5625 48.253906 54.835938 47.21875 54.644531 46.992188 C 54.457031 46.765625 54.003906 46.460938 54.003906 46.460938 C 54.003906 46.460938 54.660156 45.730469 54.832031 45.285156 C 55.078125 44.65625 55.1875 43.945312 55.097656 43.273438 C 54.980469 42.402344 54.648438 41.511719 54.082031 40.84375 C 53.675781 40.371094 52.5 39.855469 52.5 39.855469 L 52.5 36.214844 C 52.5 36.214844 53.675781 35.699219 54.082031 35.226562 C 54.648438 34.558594 54.980469 33.667969 55.097656 32.796875 C 55.1875 32.128906 55.078125 31.414062 54.832031 30.785156 C 54.660156 30.339844 54.003906 29.609375 54.003906 29.609375 C 54.003906 29.609375 54.457031 29.304688 54.644531 29.078125 C 54.835938 28.851562 57.5625 27.820312 58.664062 26.722656 C 59.191406 26.195312 59.699219 25.53125 59.804688 24.789062 C 59.9375 23.84375 59.667969 22.777344 59.089844 22.019531 C 58.464844 21.203125 57.789062 20.597656 56.414062 20.5 C 52.5625 20.226562 49.375 20.597656 45.871094 20.917969 C 45.339844 20.96875 44.804688 21.003906 44.289062 21.148438 C 43.515625 21.363281 42.71875 21.613281 42.070312 22.09375 C 41.382812 22.605469 40.410156 24.070312 40.410156 24.070312 C 40.410156 24.070312 38.863281 24.332031 38.304688 24.832031 C 37.945312 25.148438 37.769531 25.648438 37.664062 26.117188 C 37.433594 27.117188 37.292969 28.253906 37.703125 29.195312 C 37.9375 29.734375 38.53125 30.101562 38.980469 30.40625 C 39.433594 30.710938 40.863281 30.863281 40.863281 30.863281 L 40.84375 36.136719 L 40.828125 36.136719 L 40.835938 38.035156 L 40.828125 39.933594 L 40.84375 39.933594 L 40.863281 45.210938 C 40.863281 45.210938 39.433594 45.359375 38.980469 45.664062 C 38.53125 45.96875 37.9375 46.335938 37.703125 46.875 C 37.523438 47.285156 37.445312 47.734375 37.441406 48.195312 Z M 41.199219 26.777344 C 41.199219 26.0625 41.773438 25.484375 42.480469 25.484375 C 43.1875 25.484375 43.761719 26.0625 43.761719 26.777344 C 43.761719 27.492188 43.1875 28.070312 42.480469 28.070312 C 41.773438 28.070312 41.199219 27.492188 41.199219 26.777344 Z M 41.925781 50.371094 L 41.925781 48.292969 L 43.460938 48.292969 C 43.460938 48.292969 44.445312 49.046875 44.433594 49.332031 C 44.417969 49.636719 43.460938 50.371094 43.460938 50.371094 Z M 43.921875 29.910156 C 43.921875 29.199219 44.496094 28.621094 45.203125 28.621094 C 45.914062 28.621094 46.488281 29.199219 46.488281 29.910156 C 46.488281 30.625 45.914062 31.203125 45.203125 31.203125 C 44.496094 31.203125 43.921875 30.625 43.921875 29.910156 Z M 43.921875 23.640625 C 43.921875 22.925781 44.496094 22.347656 45.203125 22.347656 C 45.914062 22.347656 46.488281 22.925781 46.488281 23.640625 C 46.488281 24.351562 45.914062 24.933594 45.203125 24.933594 C 44.496094 24.933594 43.921875 24.351562 43.921875 23.640625 Z M 44.015625 52.40625 L 44.015625 50.859375 C 44.015625 50.859375 44.75 49.890625 45.050781 49.878906 C 45.332031 49.867188 46.082031 50.859375 46.082031 50.859375 L 46.082031 52.40625 Z M 44.015625 47.804688 L 44.015625 46.257812 L 46.082031 46.257812 L 46.082031 47.804688 C 46.082031 47.804688 45.332031 48.796875 45.050781 48.785156 C 44.75 48.773438 44.015625 47.804688 44.015625 47.804688 Z M 44.566406 35.585938 L 45.222656 33.5625 L 45.882812 35.585938 Z M 44.613281 42.65625 L 44.613281 40.644531 L 45.835938 40.644531 L 45.835938 42.65625 Z M 45.667969 49.332031 C 45.65625 49.046875 46.640625 48.292969 46.640625 48.292969 L 48.175781 48.292969 L 48.175781 50.371094 L 46.640625 50.371094 C 46.640625 50.371094 45.679688 49.636719 45.667969 49.332031 Z M 46.648438 26.777344 C 46.648438 26.0625 47.222656 25.484375 47.929688 25.484375 C 48.636719 25.484375 49.210938 26.0625 49.210938 26.777344 C 49.210938 27.492188 48.636719 28.070312 47.929688 28.070312 C 47.222656 28.070312 46.648438 27.492188 46.648438 26.777344 Z M 48.890625 43.808594 C 48.890625 42.414062 50.007812 41.285156 51.390625 41.285156 C 52.773438 41.285156 53.898438 42.414062 53.898438 43.808594 C 53.898438 45.203125 52.773438 46.332031 51.390625 46.332031 C 50.007812 46.332031 48.890625 45.203125 48.890625 43.808594 Z M 48.890625 32.414062 C 48.890625 31.023438 50.007812 29.890625 51.390625 29.890625 C 52.773438 29.890625 53.898438 31.019531 53.898438 32.414062 C 53.898438 33.808594 52.773438 34.9375 51.390625 34.9375 C 50.007812 34.9375 48.890625 33.808594 48.890625 32.414062 Z M 48.890625 32.414062 " fill-opacity="1" fill-rule="nonzero"/></g><g fill="#3d3d3d" fill-opacity="1"><g transform="translate(1.465489, 53.452699)"><g><path d="M 31.71875 -18.1875 L 31.71875 -11.140625 C 30.882812 -7.285156 29.050781 -4.363281 26.21875 -2.375 C 23.382812 -0.394531 20.222656 0.59375 16.734375 0.59375 C 12.347656 0.59375 8.613281 -1.046875 5.53125 -4.328125 C 2.445312 -7.609375 0.90625 -11.570312 0.90625 -16.21875 C 0.90625 -20.9375 2.410156 -24.921875 5.421875 -28.171875 C 8.441406 -31.429688 12.210938 -33.0625 16.734375 -33.0625 C 22.003906 -33.0625 26.175781 -31.210938 29.25 -27.515625 L 24.40625 -22.203125 C 22.675781 -24.984375 20.257812 -26.375 17.15625 -26.375 C 14.875 -26.375 12.925781 -25.378906 11.3125 -23.390625 C 9.695312 -21.410156 8.890625 -19.019531 8.890625 -16.21875 C 8.890625 -13.457031 9.695312 -11.097656 11.3125 -9.140625 C 12.925781 -7.191406 14.875 -6.21875 17.15625 -6.21875 C 19.050781 -6.21875 20.695312 -6.785156 22.09375 -7.921875 C 23.5 -9.066406 24.203125 -10.585938 24.203125 -12.484375 L 16.734375 -12.484375 L 16.734375 -18.1875 Z M 31.71875 -18.1875 "/></g></g></g><g fill="#3d3d3d" fill-opacity="1"><g transform="translate(36.846637, 53.452699)"><g/></g></g><g fill="#3d3d3d" fill-opacity="1"><g transform="translate(50.347115, 53.452699)"><g/></g></g><g fill="#3d3d3d" fill-opacity="1"><g transform="translate(63.841419, 53.452699)"><g><path d="M 20.9375 -32.46875 L 20.9375 -25.984375 L 9.765625 -25.984375 L 9.765625 -19.515625 L 20.46875 -19.515625 L 20.46875 -13.03125 L 9.765625 -13.03125 L 9.765625 -6.5 L 20.9375 -6.5 L 20.9375 0 L 2.359375 0 L 2.359375 -32.46875 Z M 20.9375 -32.46875 "/></g></g></g><g fill="#3d3d3d" fill-opacity="1"><g transform="translate(89.425426, 53.452699)"><g><path d="M 31.921875 0 L 21.71875 0 L 9.765625 -13.78125 L 9.765625 0 L 2.359375 0 L 2.359375 -32.46875 L 9.765625 -32.46875 L 9.765625 -19.203125 L 20.90625 -32.46875 L 29.875 -32.46875 L 16.8125 -17.078125 Z M 31.921875 0 "/></g></g></g><g fill="#3d3d3d" fill-opacity="1"><g transform="translate(123.156948, 53.452699)"><g><path d="M 14.328125 -33.0625 C 16.085938 -33.0625 17.804688 -32.804688 19.484375 -32.296875 C 21.160156 -31.785156 22.40625 -31.28125 23.21875 -30.78125 L 24.40625 -29.984375 L 21.40625 -24.09375 C 21.175781 -24.25 20.847656 -24.453125 20.421875 -24.703125 C 20.003906 -24.953125 19.21875 -25.285156 18.0625 -25.703125 C 16.90625 -26.117188 15.832031 -26.328125 14.84375 -26.328125 C 13.601562 -26.328125 12.648438 -26.0625 11.984375 -25.53125 C 11.316406 -25.007812 10.984375 -24.304688 10.984375 -23.421875 C 10.984375 -22.972656 11.140625 -22.554688 11.453125 -22.171875 C 11.765625 -21.796875 12.300781 -21.390625 13.0625 -20.953125 C 13.820312 -20.523438 14.488281 -20.175781 15.0625 -19.90625 C 15.644531 -19.644531 16.539062 -19.253906 17.75 -18.734375 C 19.851562 -17.835938 21.644531 -16.625 23.125 -15.09375 C 24.601562 -13.5625 25.34375 -11.820312 25.34375 -9.875 C 25.34375 -8.007812 25.007812 -6.378906 24.34375 -4.984375 C 23.675781 -3.597656 22.757812 -2.507812 21.59375 -1.71875 C 20.425781 -0.9375 19.132812 -0.359375 17.71875 0.015625 C 16.300781 0.398438 14.765625 0.59375 13.109375 0.59375 C 11.691406 0.59375 10.300781 0.445312 8.9375 0.15625 C 7.570312 -0.132812 6.425781 -0.492188 5.5 -0.921875 C 4.582031 -1.359375 3.753906 -1.785156 3.015625 -2.203125 C 2.285156 -2.617188 1.753906 -2.972656 1.421875 -3.265625 L 0.90625 -3.703125 L 4.609375 -9.921875 C 4.921875 -9.660156 5.351562 -9.328125 5.90625 -8.921875 C 6.457031 -8.515625 7.429688 -7.96875 8.828125 -7.28125 C 10.234375 -6.601562 11.476562 -6.265625 12.5625 -6.265625 C 15.675781 -6.265625 17.234375 -7.328125 17.234375 -9.453125 C 17.234375 -9.890625 17.117188 -10.296875 16.890625 -10.671875 C 16.671875 -11.054688 16.28125 -11.4375 15.71875 -11.8125 C 15.15625 -12.195312 14.65625 -12.5 14.21875 -12.71875 C 13.789062 -12.945312 13.082031 -13.289062 12.09375 -13.75 C 11.113281 -14.207031 10.390625 -14.554688 9.921875 -14.796875 C 7.953125 -15.765625 6.425781 -16.976562 5.34375 -18.4375 C 4.269531 -19.894531 3.734375 -21.460938 3.734375 -23.140625 C 3.734375 -26.054688 4.804688 -28.4375 6.953125 -30.28125 C 9.109375 -32.132812 11.566406 -33.0625 14.328125 -33.0625 Z M 14.328125 -33.0625 "/></g></g></g></svg>
