<svg xmlns="http://www.w3.org/2000/svg" xmlns:xlink="http://www.w3.org/1999/xlink" width="1700" zoomAndPan="magnify" viewBox="0 0 1275 187.499995" height="250" preserveAspectRatio="xMidYMid meet" version="1.0"><defs><g/><clipPath id="b2b117521f"><path d="M 1.695312 0 L 1273.304688 0 L 1273.304688 187 L 1.695312 187 Z M 1.695312 0 " clip-rule="nonzero"/></clipPath></defs><g clip-path="url(#b2b117521f)"><path fill="#ffffff" d="M 1.695312 0 L 1273.304688 0 L 1273.304688 194.480469 L 1.695312 194.480469 Z M 1.695312 0 " fill-opacity="1" fill-rule="nonzero"/><path fill="#ffffff" d="M 1.695312 0 L 1273.304688 0 L 1273.304688 187 L 1.695312 187 Z M 1.695312 0 " fill-opacity="1" fill-rule="nonzero"/><path fill="#383536" d="M 1.695312 0 L 1273.304688 0 L 1273.304688 187 L 1.695312 187 Z M 1.695312 0 " fill-opacity="1" fill-rule="nonzero"/></g><g fill="#ffffff" fill-opacity="0.4"><g transform="translate(162.856738, 79.838693)"><g><path d="M 5.984375 -31.753906 L 5.984375 -26.964844 L 0 -26.964844 L 0 -31.753906 Z M 5.984375 -26.089844 L 5.984375 0.160156 L 0 0.160156 L 0 -26.089844 Z M 5.984375 -26.089844 "/></g></g></g><g fill="#ffffff" fill-opacity="0.4"><g transform="translate(169.478484, 79.838693)"><g/></g></g><g fill="#ffffff" fill-opacity="0.4"><g transform="translate(182.083679, 79.838693)"><g><path d="M 26.765625 -31.914062 L 2.792969 -31.914062 L 2.792969 -25.96875 L 11.808594 -25.96875 L 11.808594 0 L 17.75 0 L 17.75 -25.96875 L 26.765625 -25.96875 Z M 26.765625 -31.914062 "/></g></g></g><g fill="#ffffff" fill-opacity="0.4"><g transform="translate(212.280214, 79.838693)"><g><path d="M 17.710938 -32.3125 C 8.695312 -32.3125 1.394531 -25.011719 1.394531 -15.996094 C 1.394531 -6.980469 8.695312 0.320312 17.710938 0.320312 C 26.726562 0.320312 34.027344 -6.980469 34.027344 -15.996094 C 34.027344 -25.011719 26.726562 -32.3125 17.710938 -32.3125 Z M 17.710938 -26.207031 C 23.375 -26.207031 27.367188 -21.621094 27.367188 -15.996094 C 27.367188 -10.371094 23.375 -5.785156 17.710938 -5.785156 C 12.085938 -5.785156 8.097656 -10.371094 8.097656 -15.996094 C 8.097656 -21.621094 12.085938 -26.207031 17.710938 -26.207031 Z M 17.710938 -26.207031 "/></g></g></g><g fill="#ffffff" fill-opacity="0.4"><g transform="translate(248.340525, 79.838693)"><g><path d="M 13.242188 -31.914062 L 2.792969 -31.914062 L 2.792969 0 L 13.242188 0 C 21.660156 0 27.644531 -7.140625 27.644531 -15.957031 C 27.644531 -24.773438 21.421875 -31.914062 13.242188 -31.914062 Z M 13.242188 -25.96875 C 17.992188 -25.96875 21.699219 -21.582031 21.699219 -15.957031 C 21.699219 -13.085938 20.824219 -10.492188 19.148438 -8.617188 C 18.070312 -7.378906 16.195312 -5.945312 13.242188 -5.945312 L 8.734375 -5.945312 L 8.734375 -25.96875 Z M 13.242188 -25.96875 "/></g></g></g><g fill="#ffffff" fill-opacity="0.4"><g transform="translate(279.414622, 79.838693)"><g><path d="M 17.710938 -32.3125 C 8.695312 -32.3125 1.394531 -25.011719 1.394531 -15.996094 C 1.394531 -6.980469 8.695312 0.320312 17.710938 0.320312 C 26.726562 0.320312 34.027344 -6.980469 34.027344 -15.996094 C 34.027344 -25.011719 26.726562 -32.3125 17.710938 -32.3125 Z M 17.710938 -26.207031 C 23.375 -26.207031 27.367188 -21.621094 27.367188 -15.996094 C 27.367188 -10.371094 23.375 -5.785156 17.710938 -5.785156 C 12.085938 -5.785156 8.097656 -10.371094 8.097656 -15.996094 C 8.097656 -21.621094 12.085938 -26.207031 17.710938 -26.207031 Z M 17.710938 -26.207031 "/></g></g></g><g fill="#ffffff" fill-opacity="0.4"><g transform="translate(315.474934, 79.838693)"><g><path d="M 16.035156 0.398438 L 16.753906 0.398438 C 23.617188 0.359375 27.523438 -4.109375 27.804688 -8.535156 C 28.125 -13.164062 24.613281 -18.351562 16.15625 -19.425781 L 16.074219 -19.425781 C 13.003906 -19.785156 9.8125 -21.300781 9.972656 -23.535156 C 10.09375 -25.132812 12.484375 -26.605469 16.835938 -26.40625 L 16.953125 -26.40625 C 19.347656 -26.40625 22.21875 -25.25 23.695312 -24.175781 L 27.125 -28.960938 C 24.851562 -30.597656 20.863281 -32.273438 17.035156 -32.273438 C 8.578125 -32.710938 4.46875 -28.402344 4.109375 -24.015625 C 3.910156 -21.460938 4.988281 -18.949219 7.0625 -17.035156 C 9.09375 -15.160156 12.007812 -13.960938 15.4375 -13.601562 C 20.105469 -12.964844 22.058594 -10.808594 21.941406 -8.9375 C 21.820312 -7.21875 19.984375 -5.503906 16.675781 -5.503906 L 16.476562 -5.503906 C 16.433594 -5.503906 12.085938 -5.265625 9.414062 -7.460938 C 8.734375 -7.976562 8.175781 -8.617188 7.660156 -9.375 L 2.792969 -6.0625 C 3.589844 -4.867188 4.585938 -3.789062 5.703125 -2.871094 C 9.335938 0.078125 14.121094 0.398438 16.035156 0.398438 Z M 16.035156 0.398438 "/></g></g></g><g fill="#ffffff" fill-opacity="0.4"><g transform="translate(346.708594, 79.838693)"><g/></g></g><g fill="#ffffff" fill-opacity="0.4"><g transform="translate(359.313788, 79.838693)"><g><path d="M 8.734375 -5.945312 L 8.734375 -31.914062 L 2.792969 -31.914062 L 2.792969 0 L 21.261719 0 L 21.261719 -5.945312 Z M 8.734375 -5.945312 "/></g></g></g><g fill="#ffffff" fill-opacity="0.4"><g transform="translate(384.005541, 79.838693)"><g><path d="M 17.710938 -32.3125 C 8.695312 -32.3125 1.394531 -25.011719 1.394531 -15.996094 C 1.394531 -6.980469 8.695312 0.320312 17.710938 0.320312 C 26.726562 0.320312 34.027344 -6.980469 34.027344 -15.996094 C 34.027344 -25.011719 26.726562 -32.3125 17.710938 -32.3125 Z M 17.710938 -26.207031 C 23.375 -26.207031 27.367188 -21.621094 27.367188 -15.996094 C 27.367188 -10.371094 23.375 -5.785156 17.710938 -5.785156 C 12.085938 -5.785156 8.097656 -10.371094 8.097656 -15.996094 C 8.097656 -21.621094 12.085938 -26.207031 17.710938 -26.207031 Z M 17.710938 -26.207031 "/></g></g></g><g fill="#ffffff" fill-opacity="0.4"><g transform="translate(420.065864, 79.838693)"><g><path d="M 16.035156 0.398438 L 16.753906 0.398438 C 23.617188 0.359375 27.523438 -4.109375 27.804688 -8.535156 C 28.125 -13.164062 24.613281 -18.351562 16.15625 -19.425781 L 16.074219 -19.425781 C 13.003906 -19.785156 9.8125 -21.300781 9.972656 -23.535156 C 10.09375 -25.132812 12.484375 -26.605469 16.835938 -26.40625 L 16.953125 -26.40625 C 19.347656 -26.40625 22.21875 -25.25 23.695312 -24.175781 L 27.125 -28.960938 C 24.851562 -30.597656 20.863281 -32.273438 17.035156 -32.273438 C 8.578125 -32.710938 4.46875 -28.402344 4.109375 -24.015625 C 3.910156 -21.460938 4.988281 -18.949219 7.0625 -17.035156 C 9.09375 -15.160156 12.007812 -13.960938 15.4375 -13.601562 C 20.105469 -12.964844 22.058594 -10.808594 21.941406 -8.9375 C 21.820312 -7.21875 19.984375 -5.503906 16.675781 -5.503906 L 16.476562 -5.503906 C 16.433594 -5.503906 12.085938 -5.265625 9.414062 -7.460938 C 8.734375 -7.976562 8.175781 -8.617188 7.660156 -9.375 L 2.792969 -6.0625 C 3.589844 -4.867188 4.585938 -3.789062 5.703125 -2.871094 C 9.335938 0.078125 14.121094 0.398438 16.035156 0.398438 Z M 16.035156 0.398438 "/></g></g></g><g fill="#ffffff" fill-opacity="0.4"><g transform="translate(451.299512, 79.838693)"><g/></g></g><g fill="#ffffff" fill-opacity="0.4"><g transform="translate(463.904707, 79.838693)"><g><path d="M 21.621094 0 L 27.84375 0 L 18.46875 -31.832031 L 18.46875 -31.914062 L 12.207031 -31.914062 L 2.792969 0 L 9.054688 0 L 11.410156 -7.9375 L 19.265625 -7.9375 Z M 13.164062 -13.882812 L 15.359375 -21.300781 L 17.511719 -13.882812 Z M 13.164062 -13.882812 "/></g></g></g><g fill="#ffffff" fill-opacity="0.4"><g transform="translate(495.178258, 79.838693)"><g><path d="M 27.722656 -19.945312 C 27.722656 -26.566406 24.691406 -31.914062 16.554688 -31.914062 L 2.792969 -31.914062 L 2.792969 0 L 8.777344 0 L 8.777344 -7.9375 L 16.554688 -7.9375 C 17.273438 -7.9375 17.949219 -7.976562 18.589844 -8.058594 L 21.460938 0 L 27.722656 0 L 24.09375 -10.210938 C 26.726562 -12.40625 27.722656 -15.957031 27.722656 -19.945312 Z M 8.777344 -13.921875 L 8.777344 -25.96875 L 16.554688 -25.96875 C 19.507812 -25.96875 20.304688 -24.972656 20.582031 -24.652344 C 21.339844 -23.695312 21.742188 -22.019531 21.742188 -19.945312 C 21.742188 -17.75 21.339844 -16.074219 20.625 -15.199219 C 19.945312 -14.320312 18.589844 -13.921875 16.554688 -13.921875 Z M 8.777344 -13.921875 "/></g></g></g><g fill="#ffffff" fill-opacity="0.4"><g transform="translate(526.332147, 79.838693)"><g><path d="M 26.765625 -31.914062 L 2.792969 -31.914062 L 2.792969 -25.96875 L 11.808594 -25.96875 L 11.808594 0 L 17.75 0 L 17.75 -25.96875 L 26.765625 -25.96875 Z M 26.765625 -31.914062 "/></g></g></g><g fill="#ffffff" fill-opacity="0.4"><g transform="translate(556.52866, 79.838693)"><g><path d="M 2.792969 -31.914062 L 8.777344 -31.914062 L 8.777344 -0.121094 L 2.792969 -0.121094 Z M 2.792969 -31.914062 "/></g></g></g><g fill="#ffffff" fill-opacity="0.4"><g transform="translate(568.73497, 79.838693)"><g><path d="M 26.167969 -8.894531 C 24.492188 -6.941406 22.019531 -5.746094 19.109375 -5.746094 C 13.484375 -5.746094 9.492188 -10.332031 9.492188 -15.957031 C 9.492188 -21.582031 13.484375 -26.167969 19.109375 -26.167969 C 22.019531 -26.167969 24.492188 -24.972656 26.167969 -23.015625 L 30.675781 -27.484375 C 27.722656 -30.4375 23.617188 -32.273438 19.109375 -32.273438 C 10.09375 -32.273438 2.792969 -24.972656 2.792969 -15.957031 C 2.792969 -6.941406 10.09375 0.359375 19.109375 0.359375 C 23.617188 0.359375 27.722656 -1.476562 30.675781 -4.429688 Z M 26.167969 -8.894531 "/></g></g></g><g fill="#ffffff" fill-opacity="0.4"><g transform="translate(602.840705, 79.838693)"><g><path d="M 21.140625 -31.914062 L 21.140625 -11.050781 C 21.140625 -7.820312 18.550781 -5.226562 15.359375 -5.226562 L 14.558594 -5.226562 C 11.367188 -5.226562 8.777344 -7.820312 8.777344 -11.050781 L 8.777344 -31.914062 L 2.792969 -31.914062 L 2.792969 -11.050781 C 2.792969 -4.585938 8.097656 0.71875 14.558594 0.71875 L 15.359375 0.71875 C 21.820312 0.71875 27.085938 -4.585938 27.085938 -11.050781 L 27.085938 -31.914062 Z M 21.140625 -31.914062 "/></g></g></g><g fill="#ffffff" fill-opacity="0.4"><g transform="translate(633.356343, 79.838693)"><g><path d="M 8.734375 -5.945312 L 8.734375 -31.914062 L 2.792969 -31.914062 L 2.792969 0 L 21.261719 0 L 21.261719 -5.945312 Z M 8.734375 -5.945312 "/></g></g></g><g fill="#ffffff" fill-opacity="0.4"><g transform="translate(658.048096, 79.838693)"><g><path d="M 17.710938 -32.3125 C 8.695312 -32.3125 1.394531 -25.011719 1.394531 -15.996094 C 1.394531 -6.980469 8.695312 0.320312 17.710938 0.320312 C 26.726562 0.320312 34.027344 -6.980469 34.027344 -15.996094 C 34.027344 -25.011719 26.726562 -32.3125 17.710938 -32.3125 Z M 17.710938 -26.207031 C 23.375 -26.207031 27.367188 -21.621094 27.367188 -15.996094 C 27.367188 -10.371094 23.375 -5.785156 17.710938 -5.785156 C 12.085938 -5.785156 8.097656 -10.371094 8.097656 -15.996094 C 8.097656 -21.621094 12.085938 -26.207031 17.710938 -26.207031 Z M 17.710938 -26.207031 "/></g></g></g><g fill="#ffffff" fill-opacity="0.4"><g transform="translate(694.108396, 79.838693)"><g><path d="M 16.035156 0.398438 L 16.753906 0.398438 C 23.617188 0.359375 27.523438 -4.109375 27.804688 -8.535156 C 28.125 -13.164062 24.613281 -18.351562 16.15625 -19.425781 L 16.074219 -19.425781 C 13.003906 -19.785156 9.8125 -21.300781 9.972656 -23.535156 C 10.09375 -25.132812 12.484375 -26.605469 16.835938 -26.40625 L 16.953125 -26.40625 C 19.347656 -26.40625 22.21875 -25.25 23.695312 -24.175781 L 27.125 -28.960938 C 24.851562 -30.597656 20.863281 -32.273438 17.035156 -32.273438 C 8.578125 -32.710938 4.46875 -28.402344 4.109375 -24.015625 C 3.910156 -21.460938 4.988281 -18.949219 7.0625 -17.035156 C 9.09375 -15.160156 12.007812 -13.960938 15.4375 -13.601562 C 20.105469 -12.964844 22.058594 -10.808594 21.941406 -8.9375 C 21.820312 -7.21875 19.984375 -5.503906 16.675781 -5.503906 L 16.476562 -5.503906 C 16.433594 -5.503906 12.085938 -5.265625 9.414062 -7.460938 C 8.734375 -7.976562 8.175781 -8.617188 7.660156 -9.375 L 2.792969 -6.0625 C 3.589844 -4.867188 4.585938 -3.789062 5.703125 -2.871094 C 9.335938 0.078125 14.121094 0.398438 16.035156 0.398438 Z M 16.035156 0.398438 "/></g></g></g><g fill="#ffffff" fill-opacity="0.4"><g transform="translate(725.342044, 79.838693)"><g/></g></g><g fill="#ffffff" fill-opacity="0.4"><g transform="translate(737.947239, 79.838693)"><g><path d="M 13.242188 -31.914062 L 2.792969 -31.914062 L 2.792969 0 L 13.242188 0 C 21.660156 0 27.644531 -7.140625 27.644531 -15.957031 C 27.644531 -24.773438 21.421875 -31.914062 13.242188 -31.914062 Z M 13.242188 -25.96875 C 17.992188 -25.96875 21.699219 -21.582031 21.699219 -15.957031 C 21.699219 -13.085938 20.824219 -10.492188 19.148438 -8.617188 C 18.070312 -7.378906 16.195312 -5.945312 13.242188 -5.945312 L 8.734375 -5.945312 L 8.734375 -25.96875 Z M 13.242188 -25.96875 "/></g></g></g><g fill="#ffffff" fill-opacity="0.4"><g transform="translate(769.021325, 79.838693)"><g><path d="M 21.300781 -26.007812 L 21.300781 -31.953125 L 2.792969 -31.953125 L 2.792969 0 L 21.300781 0 L 21.300781 -5.945312 L 8.777344 -5.945312 L 8.777344 -13.042969 L 16.234375 -13.042969 L 16.234375 -18.988281 L 8.777344 -18.988281 L 8.777344 -26.007812 Z M 21.300781 -26.007812 "/></g></g></g><g fill="#ffffff" fill-opacity="0.4"><g transform="translate(793.75298, 79.838693)"><g/></g></g><g fill="#ffffff" fill-opacity="0.4"><g transform="translate(806.358175, 79.838693)"><g><path d="M 26.765625 -31.914062 L 2.792969 -31.914062 L 2.792969 -25.96875 L 11.808594 -25.96875 L 11.808594 0 L 17.75 0 L 17.75 -25.96875 L 26.765625 -25.96875 Z M 26.765625 -31.914062 "/></g></g></g><g fill="#ffffff" fill-opacity="0.4"><g transform="translate(836.554733, 79.838693)"><g><path d="M 21.140625 -31.914062 L 21.140625 -11.050781 C 21.140625 -7.820312 18.550781 -5.226562 15.359375 -5.226562 L 14.558594 -5.226562 C 11.367188 -5.226562 8.777344 -7.820312 8.777344 -11.050781 L 8.777344 -31.914062 L 2.792969 -31.914062 L 2.792969 -11.050781 C 2.792969 -4.585938 8.097656 0.71875 14.558594 0.71875 L 15.359375 0.71875 C 21.820312 0.71875 27.085938 -4.585938 27.085938 -11.050781 L 27.085938 -31.914062 Z M 21.140625 -31.914062 "/></g></g></g><g fill="#ffffff" fill-opacity="0.4"><g transform="translate(867.070371, 79.838693)"><g><path d="M 16.035156 0.398438 L 16.753906 0.398438 C 23.617188 0.359375 27.523438 -4.109375 27.804688 -8.535156 C 28.125 -13.164062 24.613281 -18.351562 16.15625 -19.425781 L 16.074219 -19.425781 C 13.003906 -19.785156 9.8125 -21.300781 9.972656 -23.535156 C 10.09375 -25.132812 12.484375 -26.605469 16.835938 -26.40625 L 16.953125 -26.40625 C 19.347656 -26.40625 22.21875 -25.25 23.695312 -24.175781 L 27.125 -28.960938 C 24.851562 -30.597656 20.863281 -32.273438 17.035156 -32.273438 C 8.578125 -32.710938 4.46875 -28.402344 4.109375 -24.015625 C 3.910156 -21.460938 4.988281 -18.949219 7.0625 -17.035156 C 9.09375 -15.160156 12.007812 -13.960938 15.4375 -13.601562 C 20.105469 -12.964844 22.058594 -10.808594 21.941406 -8.9375 C 21.820312 -7.21875 19.984375 -5.503906 16.675781 -5.503906 L 16.476562 -5.503906 C 16.433594 -5.503906 12.085938 -5.265625 9.414062 -7.460938 C 8.734375 -7.976562 8.175781 -8.617188 7.660156 -9.375 L 2.792969 -6.0625 C 3.589844 -4.867188 4.585938 -3.789062 5.703125 -2.871094 C 9.335938 0.078125 14.121094 0.398438 16.035156 0.398438 Z M 16.035156 0.398438 "/></g></g></g><g fill="#ffffff" fill-opacity="0.4"><g transform="translate(898.304019, 79.838693)"><g/></g></g><g fill="#ffffff" fill-opacity="0.4"><g transform="translate(910.909214, 79.838693)"><g><path d="M 16.035156 0.398438 L 16.753906 0.398438 C 23.617188 0.359375 27.523438 -4.109375 27.804688 -8.535156 C 28.125 -13.164062 24.613281 -18.351562 16.15625 -19.425781 L 16.074219 -19.425781 C 13.003906 -19.785156 9.8125 -21.300781 9.972656 -23.535156 C 10.09375 -25.132812 12.484375 -26.605469 16.835938 -26.40625 L 16.953125 -26.40625 C 19.347656 -26.40625 22.21875 -25.25 23.695312 -24.175781 L 27.125 -28.960938 C 24.851562 -30.597656 20.863281 -32.273438 17.035156 -32.273438 C 8.578125 -32.710938 4.46875 -28.402344 4.109375 -24.015625 C 3.910156 -21.460938 4.988281 -18.949219 7.0625 -17.035156 C 9.09375 -15.160156 12.007812 -13.960938 15.4375 -13.601562 C 20.105469 -12.964844 22.058594 -10.808594 21.941406 -8.9375 C 21.820312 -7.21875 19.984375 -5.503906 16.675781 -5.503906 L 16.476562 -5.503906 C 16.433594 -5.503906 12.085938 -5.265625 9.414062 -7.460938 C 8.734375 -7.976562 8.175781 -8.617188 7.660156 -9.375 L 2.792969 -6.0625 C 3.589844 -4.867188 4.585938 -3.789062 5.703125 -2.871094 C 9.335938 0.078125 14.121094 0.398438 16.035156 0.398438 Z M 16.035156 0.398438 "/></g></g></g><g fill="#ffffff" fill-opacity="0.4"><g transform="translate(942.142908, 79.838693)"><g><path d="M 21.300781 -26.007812 L 21.300781 -31.953125 L 2.792969 -31.953125 L 2.792969 0 L 21.300781 0 L 21.300781 -5.945312 L 8.777344 -5.945312 L 8.777344 -13.042969 L 16.234375 -13.042969 L 16.234375 -18.988281 L 8.777344 -18.988281 L 8.777344 -26.007812 Z M 21.300781 -26.007812 "/></g></g></g><g fill="#ffffff" fill-opacity="0.4"><g transform="translate(966.874563, 79.838693)"><g><path d="M 27.722656 -19.945312 C 27.722656 -26.566406 24.691406 -31.914062 16.554688 -31.914062 L 2.792969 -31.914062 L 2.792969 0 L 8.777344 0 L 8.777344 -7.9375 L 16.554688 -7.9375 C 17.273438 -7.9375 17.949219 -7.976562 18.589844 -8.058594 L 21.460938 0 L 27.722656 0 L 24.09375 -10.210938 C 26.726562 -12.40625 27.722656 -15.957031 27.722656 -19.945312 Z M 8.777344 -13.921875 L 8.777344 -25.96875 L 16.554688 -25.96875 C 19.507812 -25.96875 20.304688 -24.972656 20.582031 -24.652344 C 21.339844 -23.695312 21.742188 -22.019531 21.742188 -19.945312 C 21.742188 -17.75 21.339844 -16.074219 20.625 -15.199219 C 19.945312 -14.320312 18.589844 -13.921875 16.554688 -13.921875 Z M 8.777344 -13.921875 "/></g></g></g><g fill="#ffffff" fill-opacity="0.4"><g transform="translate(998.028453, 79.838693)"><g><path d="M 2.792969 -31.914062 L 8.777344 -31.914062 L 8.777344 -0.121094 L 2.792969 -0.121094 Z M 2.792969 -31.914062 "/></g></g></g><g fill="#ffffff" fill-opacity="0.4"><g transform="translate(1010.234763, 79.838693)"><g><path d="M 21.300781 -26.007812 L 21.300781 -31.953125 L 2.792969 -31.953125 L 2.792969 0 L 21.300781 0 L 21.300781 -5.945312 L 8.777344 -5.945312 L 8.777344 -13.042969 L 16.234375 -13.042969 L 16.234375 -18.988281 L 8.777344 -18.988281 L 8.777344 -26.007812 Z M 21.300781 -26.007812 "/></g></g></g><g fill="#ffffff" fill-opacity="0.4"><g transform="translate(1034.966418, 79.838693)"><g><path d="M 16.035156 0.398438 L 16.753906 0.398438 C 23.617188 0.359375 27.523438 -4.109375 27.804688 -8.535156 C 28.125 -13.164062 24.613281 -18.351562 16.15625 -19.425781 L 16.074219 -19.425781 C 13.003906 -19.785156 9.8125 -21.300781 9.972656 -23.535156 C 10.09375 -25.132812 12.484375 -26.605469 16.835938 -26.40625 L 16.953125 -26.40625 C 19.347656 -26.40625 22.21875 -25.25 23.695312 -24.175781 L 27.125 -28.960938 C 24.851562 -30.597656 20.863281 -32.273438 17.035156 -32.273438 C 8.578125 -32.710938 4.46875 -28.402344 4.109375 -24.015625 C 3.910156 -21.460938 4.988281 -18.949219 7.0625 -17.035156 C 9.09375 -15.160156 12.007812 -13.960938 15.4375 -13.601562 C 20.105469 -12.964844 22.058594 -10.808594 21.941406 -8.9375 C 21.820312 -7.21875 19.984375 -5.503906 16.675781 -5.503906 L 16.476562 -5.503906 C 16.433594 -5.503906 12.085938 -5.265625 9.414062 -7.460938 C 8.734375 -7.976562 8.175781 -8.617188 7.660156 -9.375 L 2.792969 -6.0625 C 3.589844 -4.867188 4.585938 -3.789062 5.703125 -2.871094 C 9.335938 0.078125 14.121094 0.398438 16.035156 0.398438 Z M 16.035156 0.398438 "/></g></g></g><g fill="#ade8a9" fill-opacity="1"><g transform="translate(165.18448, 78.945155)"><g><path d="M 5.984375 -31.753906 L 5.984375 -26.964844 L 0 -26.964844 L 0 -31.753906 Z M 5.984375 -26.089844 L 5.984375 0.160156 L 0 0.160156 L 0 -26.089844 Z M 5.984375 -26.089844 "/></g></g></g><g fill="#ade8a9" fill-opacity="1"><g transform="translate(171.806226, 78.945155)"><g/></g></g><g fill="#ade8a9" fill-opacity="1"><g transform="translate(184.411421, 78.945155)"><g><path d="M 26.765625 -31.914062 L 2.792969 -31.914062 L 2.792969 -25.96875 L 11.808594 -25.96875 L 11.808594 0 L 17.75 0 L 17.75 -25.96875 L 26.765625 -25.96875 Z M 26.765625 -31.914062 "/></g></g></g><g fill="#ade8a9" fill-opacity="1"><g transform="translate(214.607956, 78.945155)"><g><path d="M 17.710938 -32.3125 C 8.695312 -32.3125 1.394531 -25.011719 1.394531 -15.996094 C 1.394531 -6.980469 8.695312 0.320312 17.710938 0.320312 C 26.726562 0.320312 34.027344 -6.980469 34.027344 -15.996094 C 34.027344 -25.011719 26.726562 -32.3125 17.710938 -32.3125 Z M 17.710938 -26.207031 C 23.375 -26.207031 27.367188 -21.621094 27.367188 -15.996094 C 27.367188 -10.371094 23.375 -5.785156 17.710938 -5.785156 C 12.085938 -5.785156 8.097656 -10.371094 8.097656 -15.996094 C 8.097656 -21.621094 12.085938 -26.207031 17.710938 -26.207031 Z M 17.710938 -26.207031 "/></g></g></g><g fill="#ade8a9" fill-opacity="1"><g transform="translate(250.668267, 78.945155)"><g><path d="M 13.242188 -31.914062 L 2.792969 -31.914062 L 2.792969 0 L 13.242188 0 C 21.660156 0 27.644531 -7.140625 27.644531 -15.957031 C 27.644531 -24.773438 21.421875 -31.914062 13.242188 -31.914062 Z M 13.242188 -25.96875 C 17.992188 -25.96875 21.699219 -21.582031 21.699219 -15.957031 C 21.699219 -13.085938 20.824219 -10.492188 19.148438 -8.617188 C 18.070312 -7.378906 16.195312 -5.945312 13.242188 -5.945312 L 8.734375 -5.945312 L 8.734375 -25.96875 Z M 13.242188 -25.96875 "/></g></g></g><g fill="#ade8a9" fill-opacity="1"><g transform="translate(281.742364, 78.945155)"><g><path d="M 17.710938 -32.3125 C 8.695312 -32.3125 1.394531 -25.011719 1.394531 -15.996094 C 1.394531 -6.980469 8.695312 0.320312 17.710938 0.320312 C 26.726562 0.320312 34.027344 -6.980469 34.027344 -15.996094 C 34.027344 -25.011719 26.726562 -32.3125 17.710938 -32.3125 Z M 17.710938 -26.207031 C 23.375 -26.207031 27.367188 -21.621094 27.367188 -15.996094 C 27.367188 -10.371094 23.375 -5.785156 17.710938 -5.785156 C 12.085938 -5.785156 8.097656 -10.371094 8.097656 -15.996094 C 8.097656 -21.621094 12.085938 -26.207031 17.710938 -26.207031 Z M 17.710938 -26.207031 "/></g></g></g><g fill="#ade8a9" fill-opacity="1"><g transform="translate(317.802676, 78.945155)"><g><path d="M 16.035156 0.398438 L 16.753906 0.398438 C 23.617188 0.359375 27.523438 -4.109375 27.804688 -8.535156 C 28.125 -13.164062 24.613281 -18.351562 16.15625 -19.425781 L 16.074219 -19.425781 C 13.003906 -19.785156 9.8125 -21.300781 9.972656 -23.535156 C 10.09375 -25.132812 12.484375 -26.605469 16.835938 -26.40625 L 16.953125 -26.40625 C 19.347656 -26.40625 22.21875 -25.25 23.695312 -24.175781 L 27.125 -28.960938 C 24.851562 -30.597656 20.863281 -32.273438 17.035156 -32.273438 C 8.578125 -32.710938 4.46875 -28.402344 4.109375 -24.015625 C 3.910156 -21.460938 4.988281 -18.949219 7.0625 -17.035156 C 9.09375 -15.160156 12.007812 -13.960938 15.4375 -13.601562 C 20.105469 -12.964844 22.058594 -10.808594 21.941406 -8.9375 C 21.820312 -7.21875 19.984375 -5.503906 16.675781 -5.503906 L 16.476562 -5.503906 C 16.433594 -5.503906 12.085938 -5.265625 9.414062 -7.460938 C 8.734375 -7.976562 8.175781 -8.617188 7.660156 -9.375 L 2.792969 -6.0625 C 3.589844 -4.867188 4.585938 -3.789062 5.703125 -2.871094 C 9.335938 0.078125 14.121094 0.398438 16.035156 0.398438 Z M 16.035156 0.398438 "/></g></g></g><g fill="#ade8a9" fill-opacity="1"><g transform="translate(349.036336, 78.945155)"><g/></g></g><g fill="#ade8a9" fill-opacity="1"><g transform="translate(361.641531, 78.945155)"><g><path d="M 8.734375 -5.945312 L 8.734375 -31.914062 L 2.792969 -31.914062 L 2.792969 0 L 21.261719 0 L 21.261719 -5.945312 Z M 8.734375 -5.945312 "/></g></g></g><g fill="#ade8a9" fill-opacity="1"><g transform="translate(386.333283, 78.945155)"><g><path d="M 17.710938 -32.3125 C 8.695312 -32.3125 1.394531 -25.011719 1.394531 -15.996094 C 1.394531 -6.980469 8.695312 0.320312 17.710938 0.320312 C 26.726562 0.320312 34.027344 -6.980469 34.027344 -15.996094 C 34.027344 -25.011719 26.726562 -32.3125 17.710938 -32.3125 Z M 17.710938 -26.207031 C 23.375 -26.207031 27.367188 -21.621094 27.367188 -15.996094 C 27.367188 -10.371094 23.375 -5.785156 17.710938 -5.785156 C 12.085938 -5.785156 8.097656 -10.371094 8.097656 -15.996094 C 8.097656 -21.621094 12.085938 -26.207031 17.710938 -26.207031 Z M 17.710938 -26.207031 "/></g></g></g><g fill="#ade8a9" fill-opacity="1"><g transform="translate(422.393606, 78.945155)"><g><path d="M 16.035156 0.398438 L 16.753906 0.398438 C 23.617188 0.359375 27.523438 -4.109375 27.804688 -8.535156 C 28.125 -13.164062 24.613281 -18.351562 16.15625 -19.425781 L 16.074219 -19.425781 C 13.003906 -19.785156 9.8125 -21.300781 9.972656 -23.535156 C 10.09375 -25.132812 12.484375 -26.605469 16.835938 -26.40625 L 16.953125 -26.40625 C 19.347656 -26.40625 22.21875 -25.25 23.695312 -24.175781 L 27.125 -28.960938 C 24.851562 -30.597656 20.863281 -32.273438 17.035156 -32.273438 C 8.578125 -32.710938 4.46875 -28.402344 4.109375 -24.015625 C 3.910156 -21.460938 4.988281 -18.949219 7.0625 -17.035156 C 9.09375 -15.160156 12.007812 -13.960938 15.4375 -13.601562 C 20.105469 -12.964844 22.058594 -10.808594 21.941406 -8.9375 C 21.820312 -7.21875 19.984375 -5.503906 16.675781 -5.503906 L 16.476562 -5.503906 C 16.433594 -5.503906 12.085938 -5.265625 9.414062 -7.460938 C 8.734375 -7.976562 8.175781 -8.617188 7.660156 -9.375 L 2.792969 -6.0625 C 3.589844 -4.867188 4.585938 -3.789062 5.703125 -2.871094 C 9.335938 0.078125 14.121094 0.398438 16.035156 0.398438 Z M 16.035156 0.398438 "/></g></g></g><g fill="#ade8a9" fill-opacity="1"><g transform="translate(453.627255, 78.945155)"><g/></g></g><g fill="#ade8a9" fill-opacity="1"><g transform="translate(466.232449, 78.945155)"><g><path d="M 21.621094 0 L 27.84375 0 L 18.46875 -31.832031 L 18.46875 -31.914062 L 12.207031 -31.914062 L 2.792969 0 L 9.054688 0 L 11.410156 -7.9375 L 19.265625 -7.9375 Z M 13.164062 -13.882812 L 15.359375 -21.300781 L 17.511719 -13.882812 Z M 13.164062 -13.882812 "/></g></g></g><g fill="#ade8a9" fill-opacity="1"><g transform="translate(497.506, 78.945155)"><g><path d="M 27.722656 -19.945312 C 27.722656 -26.566406 24.691406 -31.914062 16.554688 -31.914062 L 2.792969 -31.914062 L 2.792969 0 L 8.777344 0 L 8.777344 -7.9375 L 16.554688 -7.9375 C 17.273438 -7.9375 17.949219 -7.976562 18.589844 -8.058594 L 21.460938 0 L 27.722656 0 L 24.09375 -10.210938 C 26.726562 -12.40625 27.722656 -15.957031 27.722656 -19.945312 Z M 8.777344 -13.921875 L 8.777344 -25.96875 L 16.554688 -25.96875 C 19.507812 -25.96875 20.304688 -24.972656 20.582031 -24.652344 C 21.339844 -23.695312 21.742188 -22.019531 21.742188 -19.945312 C 21.742188 -17.75 21.339844 -16.074219 20.625 -15.199219 C 19.945312 -14.320312 18.589844 -13.921875 16.554688 -13.921875 Z M 8.777344 -13.921875 "/></g></g></g><g fill="#ade8a9" fill-opacity="1"><g transform="translate(528.65989, 78.945155)"><g><path d="M 26.765625 -31.914062 L 2.792969 -31.914062 L 2.792969 -25.96875 L 11.808594 -25.96875 L 11.808594 0 L 17.75 0 L 17.75 -25.96875 L 26.765625 -25.96875 Z M 26.765625 -31.914062 "/></g></g></g><g fill="#ade8a9" fill-opacity="1"><g transform="translate(558.856402, 78.945155)"><g><path d="M 2.792969 -31.914062 L 8.777344 -31.914062 L 8.777344 -0.121094 L 2.792969 -0.121094 Z M 2.792969 -31.914062 "/></g></g></g><g fill="#ade8a9" fill-opacity="1"><g transform="translate(571.062712, 78.945155)"><g><path d="M 26.167969 -8.894531 C 24.492188 -6.941406 22.019531 -5.746094 19.109375 -5.746094 C 13.484375 -5.746094 9.492188 -10.332031 9.492188 -15.957031 C 9.492188 -21.582031 13.484375 -26.167969 19.109375 -26.167969 C 22.019531 -26.167969 24.492188 -24.972656 26.167969 -23.015625 L 30.675781 -27.484375 C 27.722656 -30.4375 23.617188 -32.273438 19.109375 -32.273438 C 10.09375 -32.273438 2.792969 -24.972656 2.792969 -15.957031 C 2.792969 -6.941406 10.09375 0.359375 19.109375 0.359375 C 23.617188 0.359375 27.722656 -1.476562 30.675781 -4.429688 Z M 26.167969 -8.894531 "/></g></g></g><g fill="#ade8a9" fill-opacity="1"><g transform="translate(605.168447, 78.945155)"><g><path d="M 21.140625 -31.914062 L 21.140625 -11.050781 C 21.140625 -7.820312 18.550781 -5.226562 15.359375 -5.226562 L 14.558594 -5.226562 C 11.367188 -5.226562 8.777344 -7.820312 8.777344 -11.050781 L 8.777344 -31.914062 L 2.792969 -31.914062 L 2.792969 -11.050781 C 2.792969 -4.585938 8.097656 0.71875 14.558594 0.71875 L 15.359375 0.71875 C 21.820312 0.71875 27.085938 -4.585938 27.085938 -11.050781 L 27.085938 -31.914062 Z M 21.140625 -31.914062 "/></g></g></g><g fill="#ade8a9" fill-opacity="1"><g transform="translate(635.684085, 78.945155)"><g><path d="M 8.734375 -5.945312 L 8.734375 -31.914062 L 2.792969 -31.914062 L 2.792969 0 L 21.261719 0 L 21.261719 -5.945312 Z M 8.734375 -5.945312 "/></g></g></g><g fill="#ade8a9" fill-opacity="1"><g transform="translate(660.375838, 78.945155)"><g><path d="M 17.710938 -32.3125 C 8.695312 -32.3125 1.394531 -25.011719 1.394531 -15.996094 C 1.394531 -6.980469 8.695312 0.320312 17.710938 0.320312 C 26.726562 0.320312 34.027344 -6.980469 34.027344 -15.996094 C 34.027344 -25.011719 26.726562 -32.3125 17.710938 -32.3125 Z M 17.710938 -26.207031 C 23.375 -26.207031 27.367188 -21.621094 27.367188 -15.996094 C 27.367188 -10.371094 23.375 -5.785156 17.710938 -5.785156 C 12.085938 -5.785156 8.097656 -10.371094 8.097656 -15.996094 C 8.097656 -21.621094 12.085938 -26.207031 17.710938 -26.207031 Z M 17.710938 -26.207031 "/></g></g></g><g fill="#ade8a9" fill-opacity="1"><g transform="translate(696.436138, 78.945155)"><g><path d="M 16.035156 0.398438 L 16.753906 0.398438 C 23.617188 0.359375 27.523438 -4.109375 27.804688 -8.535156 C 28.125 -13.164062 24.613281 -18.351562 16.15625 -19.425781 L 16.074219 -19.425781 C 13.003906 -19.785156 9.8125 -21.300781 9.972656 -23.535156 C 10.09375 -25.132812 12.484375 -26.605469 16.835938 -26.40625 L 16.953125 -26.40625 C 19.347656 -26.40625 22.21875 -25.25 23.695312 -24.175781 L 27.125 -28.960938 C 24.851562 -30.597656 20.863281 -32.273438 17.035156 -32.273438 C 8.578125 -32.710938 4.46875 -28.402344 4.109375 -24.015625 C 3.910156 -21.460938 4.988281 -18.949219 7.0625 -17.035156 C 9.09375 -15.160156 12.007812 -13.960938 15.4375 -13.601562 C 20.105469 -12.964844 22.058594 -10.808594 21.941406 -8.9375 C 21.820312 -7.21875 19.984375 -5.503906 16.675781 -5.503906 L 16.476562 -5.503906 C 16.433594 -5.503906 12.085938 -5.265625 9.414062 -7.460938 C 8.734375 -7.976562 8.175781 -8.617188 7.660156 -9.375 L 2.792969 -6.0625 C 3.589844 -4.867188 4.585938 -3.789062 5.703125 -2.871094 C 9.335938 0.078125 14.121094 0.398438 16.035156 0.398438 Z M 16.035156 0.398438 "/></g></g></g><g fill="#ade8a9" fill-opacity="1"><g transform="translate(727.669786, 78.945155)"><g/></g></g><g fill="#ade8a9" fill-opacity="1"><g transform="translate(740.274981, 78.945155)"><g><path d="M 13.242188 -31.914062 L 2.792969 -31.914062 L 2.792969 0 L 13.242188 0 C 21.660156 0 27.644531 -7.140625 27.644531 -15.957031 C 27.644531 -24.773438 21.421875 -31.914062 13.242188 -31.914062 Z M 13.242188 -25.96875 C 17.992188 -25.96875 21.699219 -21.582031 21.699219 -15.957031 C 21.699219 -13.085938 20.824219 -10.492188 19.148438 -8.617188 C 18.070312 -7.378906 16.195312 -5.945312 13.242188 -5.945312 L 8.734375 -5.945312 L 8.734375 -25.96875 Z M 13.242188 -25.96875 "/></g></g></g><g fill="#ade8a9" fill-opacity="1"><g transform="translate(771.349067, 78.945155)"><g><path d="M 21.300781 -26.007812 L 21.300781 -31.953125 L 2.792969 -31.953125 L 2.792969 0 L 21.300781 0 L 21.300781 -5.945312 L 8.777344 -5.945312 L 8.777344 -13.042969 L 16.234375 -13.042969 L 16.234375 -18.988281 L 8.777344 -18.988281 L 8.777344 -26.007812 Z M 21.300781 -26.007812 "/></g></g></g><g fill="#ade8a9" fill-opacity="1"><g transform="translate(796.080722, 78.945155)"><g/></g></g><g fill="#ade8a9" fill-opacity="1"><g transform="translate(808.685917, 78.945155)"><g><path d="M 26.765625 -31.914062 L 2.792969 -31.914062 L 2.792969 -25.96875 L 11.808594 -25.96875 L 11.808594 0 L 17.75 0 L 17.75 -25.96875 L 26.765625 -25.96875 Z M 26.765625 -31.914062 "/></g></g></g><g fill="#ade8a9" fill-opacity="1"><g transform="translate(838.882475, 78.945155)"><g><path d="M 21.140625 -31.914062 L 21.140625 -11.050781 C 21.140625 -7.820312 18.550781 -5.226562 15.359375 -5.226562 L 14.558594 -5.226562 C 11.367188 -5.226562 8.777344 -7.820312 8.777344 -11.050781 L 8.777344 -31.914062 L 2.792969 -31.914062 L 2.792969 -11.050781 C 2.792969 -4.585938 8.097656 0.71875 14.558594 0.71875 L 15.359375 0.71875 C 21.820312 0.71875 27.085938 -4.585938 27.085938 -11.050781 L 27.085938 -31.914062 Z M 21.140625 -31.914062 "/></g></g></g><g fill="#ade8a9" fill-opacity="1"><g transform="translate(869.398113, 78.945155)"><g><path d="M 16.035156 0.398438 L 16.753906 0.398438 C 23.617188 0.359375 27.523438 -4.109375 27.804688 -8.535156 C 28.125 -13.164062 24.613281 -18.351562 16.15625 -19.425781 L 16.074219 -19.425781 C 13.003906 -19.785156 9.8125 -21.300781 9.972656 -23.535156 C 10.09375 -25.132812 12.484375 -26.605469 16.835938 -26.40625 L 16.953125 -26.40625 C 19.347656 -26.40625 22.21875 -25.25 23.695312 -24.175781 L 27.125 -28.960938 C 24.851562 -30.597656 20.863281 -32.273438 17.035156 -32.273438 C 8.578125 -32.710938 4.46875 -28.402344 4.109375 -24.015625 C 3.910156 -21.460938 4.988281 -18.949219 7.0625 -17.035156 C 9.09375 -15.160156 12.007812 -13.960938 15.4375 -13.601562 C 20.105469 -12.964844 22.058594 -10.808594 21.941406 -8.9375 C 21.820312 -7.21875 19.984375 -5.503906 16.675781 -5.503906 L 16.476562 -5.503906 C 16.433594 -5.503906 12.085938 -5.265625 9.414062 -7.460938 C 8.734375 -7.976562 8.175781 -8.617188 7.660156 -9.375 L 2.792969 -6.0625 C 3.589844 -4.867188 4.585938 -3.789062 5.703125 -2.871094 C 9.335938 0.078125 14.121094 0.398438 16.035156 0.398438 Z M 16.035156 0.398438 "/></g></g></g><g fill="#ade8a9" fill-opacity="1"><g transform="translate(900.631762, 78.945155)"><g/></g></g><g fill="#ade8a9" fill-opacity="1"><g transform="translate(913.236956, 78.945155)"><g><path d="M 16.035156 0.398438 L 16.753906 0.398438 C 23.617188 0.359375 27.523438 -4.109375 27.804688 -8.535156 C 28.125 -13.164062 24.613281 -18.351562 16.15625 -19.425781 L 16.074219 -19.425781 C 13.003906 -19.785156 9.8125 -21.300781 9.972656 -23.535156 C 10.09375 -25.132812 12.484375 -26.605469 16.835938 -26.40625 L 16.953125 -26.40625 C 19.347656 -26.40625 22.21875 -25.25 23.695312 -24.175781 L 27.125 -28.960938 C 24.851562 -30.597656 20.863281 -32.273438 17.035156 -32.273438 C 8.578125 -32.710938 4.46875 -28.402344 4.109375 -24.015625 C 3.910156 -21.460938 4.988281 -18.949219 7.0625 -17.035156 C 9.09375 -15.160156 12.007812 -13.960938 15.4375 -13.601562 C 20.105469 -12.964844 22.058594 -10.808594 21.941406 -8.9375 C 21.820312 -7.21875 19.984375 -5.503906 16.675781 -5.503906 L 16.476562 -5.503906 C 16.433594 -5.503906 12.085938 -5.265625 9.414062 -7.460938 C 8.734375 -7.976562 8.175781 -8.617188 7.660156 -9.375 L 2.792969 -6.0625 C 3.589844 -4.867188 4.585938 -3.789062 5.703125 -2.871094 C 9.335938 0.078125 14.121094 0.398438 16.035156 0.398438 Z M 16.035156 0.398438 "/></g></g></g><g fill="#ade8a9" fill-opacity="1"><g transform="translate(944.47065, 78.945155)"><g><path d="M 21.300781 -26.007812 L 21.300781 -31.953125 L 2.792969 -31.953125 L 2.792969 0 L 21.300781 0 L 21.300781 -5.945312 L 8.777344 -5.945312 L 8.777344 -13.042969 L 16.234375 -13.042969 L 16.234375 -18.988281 L 8.777344 -18.988281 L 8.777344 -26.007812 Z M 21.300781 -26.007812 "/></g></g></g><g fill="#ade8a9" fill-opacity="1"><g transform="translate(969.202305, 78.945155)"><g><path d="M 27.722656 -19.945312 C 27.722656 -26.566406 24.691406 -31.914062 16.554688 -31.914062 L 2.792969 -31.914062 L 2.792969 0 L 8.777344 0 L 8.777344 -7.9375 L 16.554688 -7.9375 C 17.273438 -7.9375 17.949219 -7.976562 18.589844 -8.058594 L 21.460938 0 L 27.722656 0 L 24.09375 -10.210938 C 26.726562 -12.40625 27.722656 -15.957031 27.722656 -19.945312 Z M 8.777344 -13.921875 L 8.777344 -25.96875 L 16.554688 -25.96875 C 19.507812 -25.96875 20.304688 -24.972656 20.582031 -24.652344 C 21.339844 -23.695312 21.742188 -22.019531 21.742188 -19.945312 C 21.742188 -17.75 21.339844 -16.074219 20.625 -15.199219 C 19.945312 -14.320312 18.589844 -13.921875 16.554688 -13.921875 Z M 8.777344 -13.921875 "/></g></g></g><g fill="#ade8a9" fill-opacity="1"><g transform="translate(1000.356195, 78.945155)"><g><path d="M 2.792969 -31.914062 L 8.777344 -31.914062 L 8.777344 -0.121094 L 2.792969 -0.121094 Z M 2.792969 -31.914062 "/></g></g></g><g fill="#ade8a9" fill-opacity="1"><g transform="translate(1012.562505, 78.945155)"><g><path d="M 21.300781 -26.007812 L 21.300781 -31.953125 L 2.792969 -31.953125 L 2.792969 0 L 21.300781 0 L 21.300781 -5.945312 L 8.777344 -5.945312 L 8.777344 -13.042969 L 16.234375 -13.042969 L 16.234375 -18.988281 L 8.777344 -18.988281 L 8.777344 -26.007812 Z M 21.300781 -26.007812 "/></g></g></g><g fill="#ade8a9" fill-opacity="1"><g transform="translate(1037.29416, 78.945155)"><g><path d="M 16.035156 0.398438 L 16.753906 0.398438 C 23.617188 0.359375 27.523438 -4.109375 27.804688 -8.535156 C 28.125 -13.164062 24.613281 -18.351562 16.15625 -19.425781 L 16.074219 -19.425781 C 13.003906 -19.785156 9.8125 -21.300781 9.972656 -23.535156 C 10.09375 -25.132812 12.484375 -26.605469 16.835938 -26.40625 L 16.953125 -26.40625 C 19.347656 -26.40625 22.21875 -25.25 23.695312 -24.175781 L 27.125 -28.960938 C 24.851562 -30.597656 20.863281 -32.273438 17.035156 -32.273438 C 8.578125 -32.710938 4.46875 -28.402344 4.109375 -24.015625 C 3.910156 -21.460938 4.988281 -18.949219 7.0625 -17.035156 C 9.09375 -15.160156 12.007812 -13.960938 15.4375 -13.601562 C 20.105469 -12.964844 22.058594 -10.808594 21.941406 -8.9375 C 21.820312 -7.21875 19.984375 -5.503906 16.675781 -5.503906 L 16.476562 -5.503906 C 16.433594 -5.503906 12.085938 -5.265625 9.414062 -7.460938 C 8.734375 -7.976562 8.175781 -8.617188 7.660156 -9.375 L 2.792969 -6.0625 C 3.589844 -4.867188 4.585938 -3.789062 5.703125 -2.871094 C 9.335938 0.078125 14.121094 0.398438 16.035156 0.398438 Z M 16.035156 0.398438 "/></g></g></g><g fill="#ffffff" fill-opacity="0.4"><g transform="translate(162.856738, 131.451056)"><g><path d="M 20.542969 -31.953125 L 14.679688 -18.070312 L 8.777344 -31.953125 L 2.792969 -31.953125 L 11.6875 -11.050781 L 11.6875 0 L 17.632812 0 L 17.632812 -11.050781 L 26.488281 -31.953125 Z M 20.542969 -31.953125 "/></g></g></g><g fill="#ffffff" fill-opacity="0.4"><g transform="translate(192.774038, 131.451056)"><g/></g></g><g fill="#ffffff" fill-opacity="0.4"><g transform="translate(205.379233, 131.451056)"><g><path d="M 16.554688 -31.914062 L 2.792969 -31.914062 L 2.792969 0 L 8.777344 0 L 8.777344 -7.9375 L 16.554688 -7.9375 C 24.972656 -7.9375 27.722656 -13.324219 27.722656 -19.945312 C 27.722656 -26.566406 24.691406 -31.914062 16.554688 -31.914062 Z M 20.625 -15.199219 C 19.945312 -14.320312 18.589844 -13.921875 16.554688 -13.921875 L 8.777344 -13.921875 L 8.777344 -25.96875 L 16.554688 -25.96875 C 19.507812 -25.96875 20.304688 -24.972656 20.582031 -24.652344 C 21.339844 -23.695312 21.742188 -22.019531 21.742188 -19.945312 C 21.742188 -17.75 21.339844 -16.074219 20.625 -15.199219 Z M 20.625 -15.199219 "/></g></g></g><g fill="#ffffff" fill-opacity="0.4"><g transform="translate(236.533112, 131.451056)"><g><path d="M 21.300781 -26.007812 L 21.300781 -31.953125 L 2.792969 -31.953125 L 2.792969 0 L 21.300781 0 L 21.300781 -5.945312 L 8.777344 -5.945312 L 8.777344 -13.042969 L 16.234375 -13.042969 L 16.234375 -18.988281 L 8.777344 -18.988281 L 8.777344 -26.007812 Z M 21.300781 -26.007812 "/></g></g></g><g fill="#ffffff" fill-opacity="0.4"><g transform="translate(261.264755, 131.451056)"><g><path d="M 8.734375 -5.945312 L 8.734375 -31.914062 L 2.792969 -31.914062 L 2.792969 0 L 21.261719 0 L 21.261719 -5.945312 Z M 8.734375 -5.945312 "/></g></g></g><g fill="#ffffff" fill-opacity="0.4"><g transform="translate(285.956507, 131.451056)"><g><path d="M 13.523438 -41.246094 L 5.863281 -41.246094 L 2.871094 -33.269531 L 7.578125 -33.269531 Z M 8.777344 -0.121094 L 2.792969 -0.121094 L 2.792969 -31.914062 L 8.777344 -31.914062 Z M 8.777344 -0.121094 "/></g></g></g><g fill="#ffffff" fill-opacity="0.4"><g transform="translate(298.162806, 131.451056)"><g><path d="M 26.167969 -8.894531 C 24.492188 -6.941406 22.019531 -5.746094 19.109375 -5.746094 C 13.484375 -5.746094 9.492188 -10.332031 9.492188 -15.957031 C 9.492188 -21.582031 13.484375 -26.167969 19.109375 -26.167969 C 22.019531 -26.167969 24.492188 -24.972656 26.167969 -23.015625 L 30.675781 -27.484375 C 27.722656 -30.4375 23.617188 -32.273438 19.109375 -32.273438 C 10.09375 -32.273438 2.792969 -24.972656 2.792969 -15.957031 C 2.792969 -6.941406 10.09375 0.359375 19.109375 0.359375 C 23.617188 0.359375 27.722656 -1.476562 30.675781 -4.429688 Z M 26.167969 -8.894531 "/></g></g></g><g fill="#ffffff" fill-opacity="0.4"><g transform="translate(332.268518, 131.451056)"><g><path d="M 21.140625 -31.914062 L 21.140625 -11.050781 C 21.140625 -7.820312 18.550781 -5.226562 15.359375 -5.226562 L 14.558594 -5.226562 C 11.367188 -5.226562 8.777344 -7.820312 8.777344 -11.050781 L 8.777344 -31.914062 L 2.792969 -31.914062 L 2.792969 -11.050781 C 2.792969 -4.585938 8.097656 0.71875 14.558594 0.71875 L 15.359375 0.71875 C 21.820312 0.71875 27.085938 -4.585938 27.085938 -11.050781 L 27.085938 -31.914062 Z M 21.140625 -31.914062 "/></g></g></g><g fill="#ffffff" fill-opacity="0.4"><g transform="translate(362.784157, 131.451056)"><g><path d="M 8.734375 -5.945312 L 8.734375 -31.914062 L 2.792969 -31.914062 L 2.792969 0 L 21.261719 0 L 21.261719 -5.945312 Z M 8.734375 -5.945312 "/></g></g></g><g fill="#ffffff" fill-opacity="0.4"><g transform="translate(387.475909, 131.451056)"><g><path d="M 21.621094 0 L 27.84375 0 L 18.46875 -31.832031 L 18.46875 -31.914062 L 12.207031 -31.914062 L 2.792969 0 L 9.054688 0 L 11.410156 -7.9375 L 19.265625 -7.9375 Z M 13.164062 -13.882812 L 15.359375 -21.300781 L 17.511719 -13.882812 Z M 13.164062 -13.882812 "/></g></g></g><g fill="#ffffff" fill-opacity="0.4"><g transform="translate(418.74946, 131.451056)"><g><path d="M 16.035156 0.398438 L 16.753906 0.398438 C 23.617188 0.359375 27.523438 -4.109375 27.804688 -8.535156 C 28.125 -13.164062 24.613281 -18.351562 16.15625 -19.425781 L 16.074219 -19.425781 C 13.003906 -19.785156 9.8125 -21.300781 9.972656 -23.535156 C 10.09375 -25.132812 12.484375 -26.605469 16.835938 -26.40625 L 16.953125 -26.40625 C 19.347656 -26.40625 22.21875 -25.25 23.695312 -24.175781 L 27.125 -28.960938 C 24.851562 -30.597656 20.863281 -32.273438 17.035156 -32.273438 C 8.578125 -32.710938 4.46875 -28.402344 4.109375 -24.015625 C 3.910156 -21.460938 4.988281 -18.949219 7.0625 -17.035156 C 9.09375 -15.160156 12.007812 -13.960938 15.4375 -13.601562 C 20.105469 -12.964844 22.058594 -10.808594 21.941406 -8.9375 C 21.820312 -7.21875 19.984375 -5.503906 16.675781 -5.503906 L 16.476562 -5.503906 C 16.433594 -5.503906 12.085938 -5.265625 9.414062 -7.460938 C 8.734375 -7.976562 8.175781 -8.617188 7.660156 -9.375 L 2.792969 -6.0625 C 3.589844 -4.867188 4.585938 -3.789062 5.703125 -2.871094 C 9.335938 0.078125 14.121094 0.398438 16.035156 0.398438 Z M 16.035156 0.398438 "/></g></g></g><g fill="#ffffff" fill-opacity="0.4"><g transform="translate(449.983108, 131.451056)"><g/></g></g><g fill="#ffffff" fill-opacity="0.4"><g transform="translate(462.588303, 131.451056)"><g><path d="M 22.617188 -25.929688 L 22.617188 -31.914062 L 2.792969 -31.914062 L 2.792969 0 L 8.777344 0 L 8.777344 -11.289062 L 17.550781 -11.289062 L 17.550781 -17.273438 L 8.777344 -17.273438 L 8.777344 -25.929688 Z M 22.617188 -25.929688 "/></g></g></g><g fill="#ffffff" fill-opacity="0.4"><g transform="translate(487.399716, 131.451056)"><g><path d="M 21.621094 0 L 27.84375 0 L 18.46875 -31.832031 L 18.46875 -31.914062 L 12.207031 -31.914062 L 2.792969 0 L 9.054688 0 L 11.410156 -7.9375 L 19.265625 -7.9375 Z M 13.164062 -13.882812 L 15.359375 -21.300781 L 17.511719 -13.882812 Z M 13.164062 -13.882812 "/></g></g></g><g fill="#ffffff" fill-opacity="0.4"><g transform="translate(518.673266, 131.451056)"><g><path d="M 21.621094 -31.914062 L 15.476562 -11.089844 L 9.335938 -31.914062 L 2.792969 -31.914062 L 12.207031 0 L 18.75 0 L 28.164062 -31.914062 Z M 21.621094 -31.914062 "/></g></g></g><g fill="#ffffff" fill-opacity="0.4"><g transform="translate(550.265943, 131.451056)"><g><path d="M 17.710938 -32.3125 C 8.695312 -32.3125 1.394531 -25.011719 1.394531 -15.996094 C 1.394531 -6.980469 8.695312 0.320312 17.710938 0.320312 C 26.726562 0.320312 34.027344 -6.980469 34.027344 -15.996094 C 34.027344 -25.011719 26.726562 -32.3125 17.710938 -32.3125 Z M 17.710938 -26.207031 C 23.375 -26.207031 27.367188 -21.621094 27.367188 -15.996094 C 27.367188 -10.371094 23.375 -5.785156 17.710938 -5.785156 C 12.085938 -5.785156 8.097656 -10.371094 8.097656 -15.996094 C 8.097656 -21.621094 12.085938 -26.207031 17.710938 -26.207031 Z M 17.710938 -26.207031 "/></g></g></g><g fill="#ffffff" fill-opacity="0.4"><g transform="translate(586.326243, 131.451056)"><g><path d="M 27.722656 -19.945312 C 27.722656 -26.566406 24.691406 -31.914062 16.554688 -31.914062 L 2.792969 -31.914062 L 2.792969 0 L 8.777344 0 L 8.777344 -7.9375 L 16.554688 -7.9375 C 17.273438 -7.9375 17.949219 -7.976562 18.589844 -8.058594 L 21.460938 0 L 27.722656 0 L 24.09375 -10.210938 C 26.726562 -12.40625 27.722656 -15.957031 27.722656 -19.945312 Z M 8.777344 -13.921875 L 8.777344 -25.96875 L 16.554688 -25.96875 C 19.507812 -25.96875 20.304688 -24.972656 20.582031 -24.652344 C 21.339844 -23.695312 21.742188 -22.019531 21.742188 -19.945312 C 21.742188 -17.75 21.339844 -16.074219 20.625 -15.199219 C 19.945312 -14.320312 18.589844 -13.921875 16.554688 -13.921875 Z M 8.777344 -13.921875 "/></g></g></g><g fill="#ffffff" fill-opacity="0.4"><g transform="translate(617.480133, 131.451056)"><g><path d="M 2.792969 -31.914062 L 8.777344 -31.914062 L 8.777344 -0.121094 L 2.792969 -0.121094 Z M 2.792969 -31.914062 "/></g></g></g><g fill="#ffffff" fill-opacity="0.4"><g transform="translate(629.686443, 131.451056)"><g><path d="M 26.765625 -31.914062 L 2.792969 -31.914062 L 2.792969 -25.96875 L 11.808594 -25.96875 L 11.808594 0 L 17.75 0 L 17.75 -25.96875 L 26.765625 -25.96875 Z M 26.765625 -31.914062 "/></g></g></g><g fill="#ffffff" fill-opacity="0.4"><g transform="translate(659.882955, 131.451056)"><g><path d="M 21.621094 0 L 27.84375 0 L 18.46875 -31.832031 L 18.46875 -31.914062 L 12.207031 -31.914062 L 2.792969 0 L 9.054688 0 L 11.410156 -7.9375 L 19.265625 -7.9375 Z M 13.164062 -13.882812 L 15.359375 -21.300781 L 17.511719 -13.882812 Z M 13.164062 -13.882812 "/></g></g></g><g fill="#ffffff" fill-opacity="0.4"><g transform="translate(691.156506, 131.451056)"><g><path d="M 16.035156 0.398438 L 16.753906 0.398438 C 23.617188 0.359375 27.523438 -4.109375 27.804688 -8.535156 C 28.125 -13.164062 24.613281 -18.351562 16.15625 -19.425781 L 16.074219 -19.425781 C 13.003906 -19.785156 9.8125 -21.300781 9.972656 -23.535156 C 10.09375 -25.132812 12.484375 -26.605469 16.835938 -26.40625 L 16.953125 -26.40625 C 19.347656 -26.40625 22.21875 -25.25 23.695312 -24.175781 L 27.125 -28.960938 C 24.851562 -30.597656 20.863281 -32.273438 17.035156 -32.273438 C 8.578125 -32.710938 4.46875 -28.402344 4.109375 -24.015625 C 3.910156 -21.460938 4.988281 -18.949219 7.0625 -17.035156 C 9.09375 -15.160156 12.007812 -13.960938 15.4375 -13.601562 C 20.105469 -12.964844 22.058594 -10.808594 21.941406 -8.9375 C 21.820312 -7.21875 19.984375 -5.503906 16.675781 -5.503906 L 16.476562 -5.503906 C 16.433594 -5.503906 12.085938 -5.265625 9.414062 -7.460938 C 8.734375 -7.976562 8.175781 -8.617188 7.660156 -9.375 L 2.792969 -6.0625 C 3.589844 -4.867188 4.585938 -3.789062 5.703125 -2.871094 C 9.335938 0.078125 14.121094 0.398438 16.035156 0.398438 Z M 16.035156 0.398438 "/></g></g></g><g fill="#ffffff" fill-opacity="0.4"><g transform="translate(722.390154, 131.451056)"><g/></g></g><g fill="#ade8a9" fill-opacity="1"><g transform="translate(165.18448, 130.557519)"><g><path d="M 20.542969 -31.953125 L 14.679688 -18.070312 L 8.777344 -31.953125 L 2.792969 -31.953125 L 11.6875 -11.050781 L 11.6875 0 L 17.632812 0 L 17.632812 -11.050781 L 26.488281 -31.953125 Z M 20.542969 -31.953125 "/></g></g></g><g fill="#ade8a9" fill-opacity="1"><g transform="translate(195.10178, 130.557519)"><g/></g></g><g fill="#ade8a9" fill-opacity="1"><g transform="translate(207.706975, 130.557519)"><g><path d="M 16.554688 -31.914062 L 2.792969 -31.914062 L 2.792969 0 L 8.777344 0 L 8.777344 -7.9375 L 16.554688 -7.9375 C 24.972656 -7.9375 27.722656 -13.324219 27.722656 -19.945312 C 27.722656 -26.566406 24.691406 -31.914062 16.554688 -31.914062 Z M 20.625 -15.199219 C 19.945312 -14.320312 18.589844 -13.921875 16.554688 -13.921875 L 8.777344 -13.921875 L 8.777344 -25.96875 L 16.554688 -25.96875 C 19.507812 -25.96875 20.304688 -24.972656 20.582031 -24.652344 C 21.339844 -23.695312 21.742188 -22.019531 21.742188 -19.945312 C 21.742188 -17.75 21.339844 -16.074219 20.625 -15.199219 Z M 20.625 -15.199219 "/></g></g></g><g fill="#ade8a9" fill-opacity="1"><g transform="translate(238.860854, 130.557519)"><g><path d="M 21.300781 -26.007812 L 21.300781 -31.953125 L 2.792969 -31.953125 L 2.792969 0 L 21.300781 0 L 21.300781 -5.945312 L 8.777344 -5.945312 L 8.777344 -13.042969 L 16.234375 -13.042969 L 16.234375 -18.988281 L 8.777344 -18.988281 L 8.777344 -26.007812 Z M 21.300781 -26.007812 "/></g></g></g><g fill="#ade8a9" fill-opacity="1"><g transform="translate(263.592497, 130.557519)"><g><path d="M 8.734375 -5.945312 L 8.734375 -31.914062 L 2.792969 -31.914062 L 2.792969 0 L 21.261719 0 L 21.261719 -5.945312 Z M 8.734375 -5.945312 "/></g></g></g><g fill="#ade8a9" fill-opacity="1"><g transform="translate(288.284249, 130.557519)"><g><path d="M 13.523438 -41.246094 L 5.863281 -41.246094 L 2.871094 -33.269531 L 7.578125 -33.269531 Z M 8.777344 -0.121094 L 2.792969 -0.121094 L 2.792969 -31.914062 L 8.777344 -31.914062 Z M 8.777344 -0.121094 "/></g></g></g><g fill="#ade8a9" fill-opacity="1"><g transform="translate(300.490548, 130.557519)"><g><path d="M 26.167969 -8.894531 C 24.492188 -6.941406 22.019531 -5.746094 19.109375 -5.746094 C 13.484375 -5.746094 9.492188 -10.332031 9.492188 -15.957031 C 9.492188 -21.582031 13.484375 -26.167969 19.109375 -26.167969 C 22.019531 -26.167969 24.492188 -24.972656 26.167969 -23.015625 L 30.675781 -27.484375 C 27.722656 -30.4375 23.617188 -32.273438 19.109375 -32.273438 C 10.09375 -32.273438 2.792969 -24.972656 2.792969 -15.957031 C 2.792969 -6.941406 10.09375 0.359375 19.109375 0.359375 C 23.617188 0.359375 27.722656 -1.476562 30.675781 -4.429688 Z M 26.167969 -8.894531 "/></g></g></g><g fill="#ade8a9" fill-opacity="1"><g transform="translate(334.59626, 130.557519)"><g><path d="M 21.140625 -31.914062 L 21.140625 -11.050781 C 21.140625 -7.820312 18.550781 -5.226562 15.359375 -5.226562 L 14.558594 -5.226562 C 11.367188 -5.226562 8.777344 -7.820312 8.777344 -11.050781 L 8.777344 -31.914062 L 2.792969 -31.914062 L 2.792969 -11.050781 C 2.792969 -4.585938 8.097656 0.71875 14.558594 0.71875 L 15.359375 0.71875 C 21.820312 0.71875 27.085938 -4.585938 27.085938 -11.050781 L 27.085938 -31.914062 Z M 21.140625 -31.914062 "/></g></g></g><g fill="#ade8a9" fill-opacity="1"><g transform="translate(365.111899, 130.557519)"><g><path d="M 8.734375 -5.945312 L 8.734375 -31.914062 L 2.792969 -31.914062 L 2.792969 0 L 21.261719 0 L 21.261719 -5.945312 Z M 8.734375 -5.945312 "/></g></g></g><g fill="#ade8a9" fill-opacity="1"><g transform="translate(389.803651, 130.557519)"><g><path d="M 21.621094 0 L 27.84375 0 L 18.46875 -31.832031 L 18.46875 -31.914062 L 12.207031 -31.914062 L 2.792969 0 L 9.054688 0 L 11.410156 -7.9375 L 19.265625 -7.9375 Z M 13.164062 -13.882812 L 15.359375 -21.300781 L 17.511719 -13.882812 Z M 13.164062 -13.882812 "/></g></g></g><g fill="#ade8a9" fill-opacity="1"><g transform="translate(421.077202, 130.557519)"><g><path d="M 16.035156 0.398438 L 16.753906 0.398438 C 23.617188 0.359375 27.523438 -4.109375 27.804688 -8.535156 C 28.125 -13.164062 24.613281 -18.351562 16.15625 -19.425781 L 16.074219 -19.425781 C 13.003906 -19.785156 9.8125 -21.300781 9.972656 -23.535156 C 10.09375 -25.132812 12.484375 -26.605469 16.835938 -26.40625 L 16.953125 -26.40625 C 19.347656 -26.40625 22.21875 -25.25 23.695312 -24.175781 L 27.125 -28.960938 C 24.851562 -30.597656 20.863281 -32.273438 17.035156 -32.273438 C 8.578125 -32.710938 4.46875 -28.402344 4.109375 -24.015625 C 3.910156 -21.460938 4.988281 -18.949219 7.0625 -17.035156 C 9.09375 -15.160156 12.007812 -13.960938 15.4375 -13.601562 C 20.105469 -12.964844 22.058594 -10.808594 21.941406 -8.9375 C 21.820312 -7.21875 19.984375 -5.503906 16.675781 -5.503906 L 16.476562 -5.503906 C 16.433594 -5.503906 12.085938 -5.265625 9.414062 -7.460938 C 8.734375 -7.976562 8.175781 -8.617188 7.660156 -9.375 L 2.792969 -6.0625 C 3.589844 -4.867188 4.585938 -3.789062 5.703125 -2.871094 C 9.335938 0.078125 14.121094 0.398438 16.035156 0.398438 Z M 16.035156 0.398438 "/></g></g></g><g fill="#ade8a9" fill-opacity="1"><g transform="translate(452.31085, 130.557519)"><g/></g></g><g fill="#ade8a9" fill-opacity="1"><g transform="translate(464.916045, 130.557519)"><g><path d="M 22.617188 -25.929688 L 22.617188 -31.914062 L 2.792969 -31.914062 L 2.792969 0 L 8.777344 0 L 8.777344 -11.289062 L 17.550781 -11.289062 L 17.550781 -17.273438 L 8.777344 -17.273438 L 8.777344 -25.929688 Z M 22.617188 -25.929688 "/></g></g></g><g fill="#ade8a9" fill-opacity="1"><g transform="translate(489.727458, 130.557519)"><g><path d="M 21.621094 0 L 27.84375 0 L 18.46875 -31.832031 L 18.46875 -31.914062 L 12.207031 -31.914062 L 2.792969 0 L 9.054688 0 L 11.410156 -7.9375 L 19.265625 -7.9375 Z M 13.164062 -13.882812 L 15.359375 -21.300781 L 17.511719 -13.882812 Z M 13.164062 -13.882812 "/></g></g></g><g fill="#ade8a9" fill-opacity="1"><g transform="translate(521.001008, 130.557519)"><g><path d="M 21.621094 -31.914062 L 15.476562 -11.089844 L 9.335938 -31.914062 L 2.792969 -31.914062 L 12.207031 0 L 18.75 0 L 28.164062 -31.914062 Z M 21.621094 -31.914062 "/></g></g></g><g fill="#ade8a9" fill-opacity="1"><g transform="translate(552.593685, 130.557519)"><g><path d="M 17.710938 -32.3125 C 8.695312 -32.3125 1.394531 -25.011719 1.394531 -15.996094 C 1.394531 -6.980469 8.695312 0.320312 17.710938 0.320312 C 26.726562 0.320312 34.027344 -6.980469 34.027344 -15.996094 C 34.027344 -25.011719 26.726562 -32.3125 17.710938 -32.3125 Z M 17.710938 -26.207031 C 23.375 -26.207031 27.367188 -21.621094 27.367188 -15.996094 C 27.367188 -10.371094 23.375 -5.785156 17.710938 -5.785156 C 12.085938 -5.785156 8.097656 -10.371094 8.097656 -15.996094 C 8.097656 -21.621094 12.085938 -26.207031 17.710938 -26.207031 Z M 17.710938 -26.207031 "/></g></g></g><g fill="#ade8a9" fill-opacity="1"><g transform="translate(588.653985, 130.557519)"><g><path d="M 27.722656 -19.945312 C 27.722656 -26.566406 24.691406 -31.914062 16.554688 -31.914062 L 2.792969 -31.914062 L 2.792969 0 L 8.777344 0 L 8.777344 -7.9375 L 16.554688 -7.9375 C 17.273438 -7.9375 17.949219 -7.976562 18.589844 -8.058594 L 21.460938 0 L 27.722656 0 L 24.09375 -10.210938 C 26.726562 -12.40625 27.722656 -15.957031 27.722656 -19.945312 Z M 8.777344 -13.921875 L 8.777344 -25.96875 L 16.554688 -25.96875 C 19.507812 -25.96875 20.304688 -24.972656 20.582031 -24.652344 C 21.339844 -23.695312 21.742188 -22.019531 21.742188 -19.945312 C 21.742188 -17.75 21.339844 -16.074219 20.625 -15.199219 C 19.945312 -14.320312 18.589844 -13.921875 16.554688 -13.921875 Z M 8.777344 -13.921875 "/></g></g></g><g fill="#ade8a9" fill-opacity="1"><g transform="translate(619.807875, 130.557519)"><g><path d="M 2.792969 -31.914062 L 8.777344 -31.914062 L 8.777344 -0.121094 L 2.792969 -0.121094 Z M 2.792969 -31.914062 "/></g></g></g><g fill="#ade8a9" fill-opacity="1"><g transform="translate(632.014185, 130.557519)"><g><path d="M 26.765625 -31.914062 L 2.792969 -31.914062 L 2.792969 -25.96875 L 11.808594 -25.96875 L 11.808594 0 L 17.75 0 L 17.75 -25.96875 L 26.765625 -25.96875 Z M 26.765625 -31.914062 "/></g></g></g><g fill="#ade8a9" fill-opacity="1"><g transform="translate(662.210697, 130.557519)"><g><path d="M 21.621094 0 L 27.84375 0 L 18.46875 -31.832031 L 18.46875 -31.914062 L 12.207031 -31.914062 L 2.792969 0 L 9.054688 0 L 11.410156 -7.9375 L 19.265625 -7.9375 Z M 13.164062 -13.882812 L 15.359375 -21.300781 L 17.511719 -13.882812 Z M 13.164062 -13.882812 "/></g></g></g><g fill="#ade8a9" fill-opacity="1"><g transform="translate(693.484248, 130.557519)"><g><path d="M 16.035156 0.398438 L 16.753906 0.398438 C 23.617188 0.359375 27.523438 -4.109375 27.804688 -8.535156 C 28.125 -13.164062 24.613281 -18.351562 16.15625 -19.425781 L 16.074219 -19.425781 C 13.003906 -19.785156 9.8125 -21.300781 9.972656 -23.535156 C 10.09375 -25.132812 12.484375 -26.605469 16.835938 -26.40625 L 16.953125 -26.40625 C 19.347656 -26.40625 22.21875 -25.25 23.695312 -24.175781 L 27.125 -28.960938 C 24.851562 -30.597656 20.863281 -32.273438 17.035156 -32.273438 C 8.578125 -32.710938 4.46875 -28.402344 4.109375 -24.015625 C 3.910156 -21.460938 4.988281 -18.949219 7.0625 -17.035156 C 9.09375 -15.160156 12.007812 -13.960938 15.4375 -13.601562 C 20.105469 -12.964844 22.058594 -10.808594 21.941406 -8.9375 C 21.820312 -7.21875 19.984375 -5.503906 16.675781 -5.503906 L 16.476562 -5.503906 C 16.433594 -5.503906 12.085938 -5.265625 9.414062 -7.460938 C 8.734375 -7.976562 8.175781 -8.617188 7.660156 -9.375 L 2.792969 -6.0625 C 3.589844 -4.867188 4.585938 -3.789062 5.703125 -2.871094 C 9.335938 0.078125 14.121094 0.398438 16.035156 0.398438 Z M 16.035156 0.398438 "/></g></g></g><g fill="#ade8a9" fill-opacity="1"><g transform="translate(724.717896, 130.557519)"><g/></g></g><g fill="#ffffff" fill-opacity="0.4"><g transform="translate(734.987267, 131.451056)"><g><path d="M 21.300781 -26.007812 L 21.300781 -31.953125 L 2.792969 -31.953125 L 2.792969 0 L 21.300781 0 L 21.300781 -5.945312 L 8.777344 -5.945312 L 8.777344 -13.042969 L 16.234375 -13.042969 L 16.234375 -18.988281 L 8.777344 -18.988281 L 8.777344 -26.007812 Z M 21.300781 -26.007812 "/></g></g></g><g fill="#ffffff" fill-opacity="0.4"><g transform="translate(759.71891, 131.451056)"><g><path d="M 16.035156 0.398438 L 16.753906 0.398438 C 23.617188 0.359375 27.523438 -4.109375 27.804688 -8.535156 C 28.125 -13.164062 24.613281 -18.351562 16.15625 -19.425781 L 16.074219 -19.425781 C 13.003906 -19.785156 9.8125 -21.300781 9.972656 -23.535156 C 10.09375 -25.132812 12.484375 -26.605469 16.835938 -26.40625 L 16.953125 -26.40625 C 19.347656 -26.40625 22.21875 -25.25 23.695312 -24.175781 L 27.125 -28.960938 C 24.851562 -30.597656 20.863281 -32.273438 17.035156 -32.273438 C 8.578125 -32.710938 4.46875 -28.402344 4.109375 -24.015625 C 3.910156 -21.460938 4.988281 -18.949219 7.0625 -17.035156 C 9.09375 -15.160156 12.007812 -13.960938 15.4375 -13.601562 C 20.105469 -12.964844 22.058594 -10.808594 21.941406 -8.9375 C 21.820312 -7.21875 19.984375 -5.503906 16.675781 -5.503906 L 16.476562 -5.503906 C 16.433594 -5.503906 12.085938 -5.265625 9.414062 -7.460938 C 8.734375 -7.976562 8.175781 -8.617188 7.660156 -9.375 L 2.792969 -6.0625 C 3.589844 -4.867188 4.585938 -3.789062 5.703125 -2.871094 C 9.335938 0.078125 14.121094 0.398438 16.035156 0.398438 Z M 16.035156 0.398438 "/></g></g></g><g fill="#ffffff" fill-opacity="0.4"><g transform="translate(790.95257, 131.451056)"><g><path d="M 26.765625 -31.914062 L 2.792969 -31.914062 L 2.792969 -25.96875 L 11.808594 -25.96875 L 11.808594 0 L 17.75 0 L 17.75 -25.96875 L 26.765625 -25.96875 Z M 26.765625 -31.914062 "/></g></g></g><g fill="#ffffff" fill-opacity="0.4"><g transform="translate(821.149105, 131.451056)"><g><path d="M 22.5 -41.246094 L 14.839844 -41.246094 L 11.847656 -33.269531 L 16.554688 -33.269531 Z M 21.621094 0 L 27.84375 0 L 18.46875 -31.832031 L 18.46875 -31.914062 L 12.207031 -31.914062 L 2.792969 0 L 9.054688 0 L 11.410156 -7.9375 L 19.265625 -7.9375 Z M 13.164062 -13.882812 L 15.359375 -21.300781 L 17.511719 -13.882812 Z M 13.164062 -13.882812 "/></g></g></g><g fill="#ffffff" fill-opacity="0.4"><g transform="translate(852.422655, 131.451056)"><g><path d="M 21.742188 -31.914062 L 21.742188 -10.371094 L 9.335938 -31.914062 L 2.792969 -31.914062 L 2.792969 0 L 8.777344 0 L 8.777344 -19.984375 L 20.265625 0 L 27.722656 0 L 27.722656 -31.914062 Z M 21.742188 -31.914062 "/></g></g></g><g fill="#ffffff" fill-opacity="0.4"><g transform="translate(883.576534, 131.451056)"><g/></g></g><g fill="#ffffff" fill-opacity="0.4"><g transform="translate(896.181728, 131.451056)"><g><path d="M 21.621094 0 L 27.84375 0 L 18.46875 -31.832031 L 18.46875 -31.914062 L 12.207031 -31.914062 L 2.792969 0 L 9.054688 0 L 11.410156 -7.9375 L 19.265625 -7.9375 Z M 13.164062 -13.882812 L 15.359375 -21.300781 L 17.511719 -13.882812 Z M 13.164062 -13.882812 "/></g></g></g><g fill="#ffffff" fill-opacity="0.4"><g transform="translate(927.455268, 131.451056)"><g><path d="M 26.167969 -8.894531 C 24.492188 -6.941406 22.019531 -5.746094 19.109375 -5.746094 C 13.484375 -5.746094 9.492188 -10.332031 9.492188 -15.957031 C 9.492188 -21.582031 13.484375 -26.167969 19.109375 -26.167969 C 22.019531 -26.167969 24.492188 -24.972656 26.167969 -23.015625 L 30.675781 -27.484375 C 27.722656 -30.4375 23.617188 -32.273438 19.109375 -32.273438 C 10.09375 -32.273438 2.792969 -24.972656 2.792969 -15.957031 C 2.792969 -6.941406 10.09375 0.359375 19.109375 0.359375 C 23.617188 0.359375 27.722656 -1.476562 30.675781 -4.429688 Z M 26.167969 -8.894531 "/></g></g></g><g fill="#ffffff" fill-opacity="0.4"><g transform="translate(961.56098, 131.451056)"><g><path d="M 22.5 -41.246094 L 14.839844 -41.246094 L 11.847656 -33.269531 L 16.554688 -33.269531 Z M 21.621094 0 L 27.84375 0 L 18.46875 -31.832031 L 18.46875 -31.914062 L 12.207031 -31.914062 L 2.792969 0 L 9.054688 0 L 11.410156 -7.9375 L 19.265625 -7.9375 Z M 13.164062 -13.882812 L 15.359375 -21.300781 L 17.511719 -13.882812 Z M 13.164062 -13.882812 "/></g></g></g><g fill="#ffffff" fill-opacity="0.4"><g transform="translate(992.83453, 131.451056)"><g/></g></g><g fill="#ffffff" fill-opacity="0.4"><g transform="translate(1005.439725, 131.451056)"><g><path d="M 5.984375 -6.859375 L 0 -6.859375 L 0 -31.914062 L 5.984375 -31.914062 Z M 5.984375 0 L 0 0 L 0 -5.902344 L 5.984375 -5.902344 Z M 5.984375 0 "/></g></g></g><g fill="#fffff7" fill-opacity="1"><g transform="translate(737.315009, 130.557519)"><g><path d="M 21.300781 -26.007812 L 21.300781 -31.953125 L 2.792969 -31.953125 L 2.792969 0 L 21.300781 0 L 21.300781 -5.945312 L 8.777344 -5.945312 L 8.777344 -13.042969 L 16.234375 -13.042969 L 16.234375 -18.988281 L 8.777344 -18.988281 L 8.777344 -26.007812 Z M 21.300781 -26.007812 "/></g></g></g><g fill="#fffff7" fill-opacity="1"><g transform="translate(762.046652, 130.557519)"><g><path d="M 16.035156 0.398438 L 16.753906 0.398438 C 23.617188 0.359375 27.523438 -4.109375 27.804688 -8.535156 C 28.125 -13.164062 24.613281 -18.351562 16.15625 -19.425781 L 16.074219 -19.425781 C 13.003906 -19.785156 9.8125 -21.300781 9.972656 -23.535156 C 10.09375 -25.132812 12.484375 -26.605469 16.835938 -26.40625 L 16.953125 -26.40625 C 19.347656 -26.40625 22.21875 -25.25 23.695312 -24.175781 L 27.125 -28.960938 C 24.851562 -30.597656 20.863281 -32.273438 17.035156 -32.273438 C 8.578125 -32.710938 4.46875 -28.402344 4.109375 -24.015625 C 3.910156 -21.460938 4.988281 -18.949219 7.0625 -17.035156 C 9.09375 -15.160156 12.007812 -13.960938 15.4375 -13.601562 C 20.105469 -12.964844 22.058594 -10.808594 21.941406 -8.9375 C 21.820312 -7.21875 19.984375 -5.503906 16.675781 -5.503906 L 16.476562 -5.503906 C 16.433594 -5.503906 12.085938 -5.265625 9.414062 -7.460938 C 8.734375 -7.976562 8.175781 -8.617188 7.660156 -9.375 L 2.792969 -6.0625 C 3.589844 -4.867188 4.585938 -3.789062 5.703125 -2.871094 C 9.335938 0.078125 14.121094 0.398438 16.035156 0.398438 Z M 16.035156 0.398438 "/></g></g></g><g fill="#fffff7" fill-opacity="1"><g transform="translate(793.280312, 130.557519)"><g><path d="M 26.765625 -31.914062 L 2.792969 -31.914062 L 2.792969 -25.96875 L 11.808594 -25.96875 L 11.808594 0 L 17.75 0 L 17.75 -25.96875 L 26.765625 -25.96875 Z M 26.765625 -31.914062 "/></g></g></g><g fill="#fffff7" fill-opacity="1"><g transform="translate(823.476847, 130.557519)"><g><path d="M 22.5 -41.246094 L 14.839844 -41.246094 L 11.847656 -33.269531 L 16.554688 -33.269531 Z M 21.621094 0 L 27.84375 0 L 18.46875 -31.832031 L 18.46875 -31.914062 L 12.207031 -31.914062 L 2.792969 0 L 9.054688 0 L 11.410156 -7.9375 L 19.265625 -7.9375 Z M 13.164062 -13.882812 L 15.359375 -21.300781 L 17.511719 -13.882812 Z M 13.164062 -13.882812 "/></g></g></g><g fill="#fffff7" fill-opacity="1"><g transform="translate(854.750397, 130.557519)"><g><path d="M 21.742188 -31.914062 L 21.742188 -10.371094 L 9.335938 -31.914062 L 2.792969 -31.914062 L 2.792969 0 L 8.777344 0 L 8.777344 -19.984375 L 20.265625 0 L 27.722656 0 L 27.722656 -31.914062 Z M 21.742188 -31.914062 "/></g></g></g><g fill="#fffff7" fill-opacity="1"><g transform="translate(885.904276, 130.557519)"><g/></g></g><g fill="#fffff7" fill-opacity="1"><g transform="translate(898.50947, 130.557519)"><g><path d="M 21.621094 0 L 27.84375 0 L 18.46875 -31.832031 L 18.46875 -31.914062 L 12.207031 -31.914062 L 2.792969 0 L 9.054688 0 L 11.410156 -7.9375 L 19.265625 -7.9375 Z M 13.164062 -13.882812 L 15.359375 -21.300781 L 17.511719 -13.882812 Z M 13.164062 -13.882812 "/></g></g></g><g fill="#fffff7" fill-opacity="1"><g transform="translate(929.78301, 130.557519)"><g><path d="M 26.167969 -8.894531 C 24.492188 -6.941406 22.019531 -5.746094 19.109375 -5.746094 C 13.484375 -5.746094 9.492188 -10.332031 9.492188 -15.957031 C 9.492188 -21.582031 13.484375 -26.167969 19.109375 -26.167969 C 22.019531 -26.167969 24.492188 -24.972656 26.167969 -23.015625 L 30.675781 -27.484375 C 27.722656 -30.4375 23.617188 -32.273438 19.109375 -32.273438 C 10.09375 -32.273438 2.792969 -24.972656 2.792969 -15.957031 C 2.792969 -6.941406 10.09375 0.359375 19.109375 0.359375 C 23.617188 0.359375 27.722656 -1.476562 30.675781 -4.429688 Z M 26.167969 -8.894531 "/></g></g></g><g fill="#fffff7" fill-opacity="1"><g transform="translate(963.888722, 130.557519)"><g><path d="M 22.5 -41.246094 L 14.839844 -41.246094 L 11.847656 -33.269531 L 16.554688 -33.269531 Z M 21.621094 0 L 27.84375 0 L 18.46875 -31.832031 L 18.46875 -31.914062 L 12.207031 -31.914062 L 2.792969 0 L 9.054688 0 L 11.410156 -7.9375 L 19.265625 -7.9375 Z M 13.164062 -13.882812 L 15.359375 -21.300781 L 17.511719 -13.882812 Z M 13.164062 -13.882812 "/></g></g></g><g fill="#fffff7" fill-opacity="1"><g transform="translate(995.162272, 130.557519)"><g/></g></g><g fill="#fffff7" fill-opacity="1"><g transform="translate(1007.767467, 130.557519)"><g><path d="M 5.984375 -6.859375 L 0 -6.859375 L 0 -31.914062 L 5.984375 -31.914062 Z M 5.984375 0 L 0 0 L 0 -5.902344 L 5.984375 -5.902344 Z M 5.984375 0 "/></g></g></g><g fill="#ff8d55" fill-opacity="0.4"><g transform="translate(817.783855, 97.965477)"><g/></g></g><g fill="#e2a165" fill-opacity="1"><g transform="translate(825.362716, 95.056232)"><g/></g></g><g fill="#ade8a9" fill-opacity="0.4"><g transform="translate(822.890096, 130.801563)"><g/></g></g><g fill="#ffffff" fill-opacity="1"><g transform="translate(825.35916, 131.148568)"><g/></g></g></svg>