<svg xmlns="http://www.w3.org/2000/svg" xmlns:xlink="http://www.w3.org/1999/xlink" width="1700" zoomAndPan="magnify" viewBox="0 0 1275 187.499995" height="250" preserveAspectRatio="xMidYMid meet" version="1.0"><defs><g/><clipPath id="63104b1408"><path d="M 1.695312 0 L 1273.304688 0 L 1273.304688 187 L 1.695312 187 Z M 1.695312 0 " clip-rule="nonzero"/></clipPath></defs><g clip-path="url(#63104b1408)"><path fill="#ffffff" d="M 1.695312 0 L 1273.304688 0 L 1273.304688 187 L 1.695312 187 Z M 1.695312 0 " fill-opacity="1" fill-rule="nonzero"/><path fill="#383536" d="M 1.695312 0 L 1273.304688 0 L 1273.304688 187 L 1.695312 187 Z M 1.695312 0 " fill-opacity="1" fill-rule="nonzero"/></g><g fill="#ffffff" fill-opacity="0.4"><g transform="translate(308.135109, 50.530622)"><g><path d="M 25.039062 -29.855469 L 2.613281 -29.855469 L 2.613281 -24.292969 L 11.046875 -24.292969 L 11.046875 0 L 16.605469 0 L 16.605469 -24.292969 L 25.039062 -24.292969 Z M 25.039062 -29.855469 "/></g></g></g><g fill="#ffffff" fill-opacity="0.4"><g transform="translate(335.78084, 50.530622)"><g><path d="M 16.570312 -30.226562 C 8.136719 -30.226562 1.304688 -23.398438 1.304688 -14.964844 C 1.304688 -6.53125 8.136719 0.296875 16.570312 0.296875 C 25.003906 0.296875 31.832031 -6.53125 31.832031 -14.964844 C 31.832031 -23.398438 25.003906 -30.226562 16.570312 -30.226562 Z M 16.570312 -24.515625 C 21.867188 -24.515625 25.597656 -20.226562 25.597656 -14.964844 C 25.597656 -9.703125 21.867188 -5.410156 16.570312 -5.410156 C 11.308594 -5.410156 7.574219 -9.703125 7.574219 -14.964844 C 7.574219 -20.226562 11.308594 -24.515625 16.570312 -24.515625 Z M 16.570312 -24.515625 "/></g></g></g><g fill="#ffffff" fill-opacity="0.4"><g transform="translate(368.910944, 50.530622)"><g><path d="M 12.390625 -29.855469 L 2.613281 -29.855469 L 2.613281 0 L 12.390625 0 C 20.261719 0 25.859375 -6.679688 25.859375 -14.925781 C 25.859375 -23.175781 20.039062 -29.855469 12.390625 -29.855469 Z M 12.390625 -24.292969 C 16.828125 -24.292969 20.300781 -20.1875 20.300781 -14.925781 C 20.300781 -12.238281 19.480469 -9.8125 17.914062 -8.058594 C 16.90625 -6.902344 15.152344 -5.558594 12.390625 -5.558594 L 8.171875 -5.558594 L 8.171875 -24.292969 Z M 12.390625 -24.292969 "/></g></g></g><g fill="#ffffff" fill-opacity="0.4"><g transform="translate(397.377458, 50.530622)"><g><path d="M 16.570312 -30.226562 C 8.136719 -30.226562 1.304688 -23.398438 1.304688 -14.964844 C 1.304688 -6.53125 8.136719 0.296875 16.570312 0.296875 C 25.003906 0.296875 31.832031 -6.53125 31.832031 -14.964844 C 31.832031 -23.398438 25.003906 -30.226562 16.570312 -30.226562 Z M 16.570312 -24.515625 C 21.867188 -24.515625 25.597656 -20.226562 25.597656 -14.964844 C 25.597656 -9.703125 21.867188 -5.410156 16.570312 -5.410156 C 11.308594 -5.410156 7.574219 -9.703125 7.574219 -14.964844 C 7.574219 -20.226562 11.308594 -24.515625 16.570312 -24.515625 Z M 16.570312 -24.515625 "/></g></g></g><g fill="#ffffff" fill-opacity="0.4"><g transform="translate(430.507562, 50.530622)"><g><path d="M 15 0.375 L 15.671875 0.375 C 22.089844 0.335938 25.75 -3.84375 26.011719 -7.984375 C 26.308594 -12.316406 23.023438 -17.164062 15.113281 -18.171875 L 15.039062 -18.171875 C 12.164062 -18.507812 9.179688 -19.925781 9.328125 -22.015625 C 9.441406 -23.507812 11.679688 -24.890625 15.746094 -24.703125 L 15.859375 -24.703125 C 18.097656 -24.703125 20.785156 -23.621094 22.167969 -22.613281 L 25.375 -27.09375 C 23.25 -28.621094 19.515625 -30.1875 15.933594 -30.1875 C 8.023438 -30.601562 4.179688 -26.570312 3.84375 -22.464844 C 3.65625 -20.078125 4.664062 -17.726562 6.605469 -15.933594 C 8.507812 -14.179688 11.230469 -13.0625 14.441406 -12.726562 C 18.808594 -12.128906 20.636719 -10.113281 20.523438 -8.359375 C 20.414062 -6.753906 18.695312 -5.148438 15.597656 -5.148438 L 15.410156 -5.148438 C 15.375 -5.148438 11.308594 -4.925781 8.808594 -6.976562 C 8.171875 -7.464844 7.648438 -8.058594 7.164062 -8.769531 L 2.613281 -5.671875 C 3.359375 -4.550781 4.292969 -3.546875 5.335938 -2.6875 C 8.730469 0.0742188 13.210938 0.375 15 0.375 Z M 15 0.375 "/></g></g></g><g fill="#ffffff" fill-opacity="0.4"><g transform="translate(459.12331, 50.530622)"><g/></g></g><g fill="#ffffff" fill-opacity="0.4"><g transform="translate(470.315907, 50.530622)"><g><path d="M 8.171875 -5.558594 L 8.171875 -29.855469 L 2.613281 -29.855469 L 2.613281 0 L 19.890625 0 L 19.890625 -5.558594 Z M 8.171875 -5.558594 "/></g></g></g><g fill="#ffffff" fill-opacity="0.4"><g transform="translate(492.813023, 50.530622)"><g><path d="M 16.570312 -30.226562 C 8.136719 -30.226562 1.304688 -23.398438 1.304688 -14.964844 C 1.304688 -6.53125 8.136719 0.296875 16.570312 0.296875 C 25.003906 0.296875 31.832031 -6.53125 31.832031 -14.964844 C 31.832031 -23.398438 25.003906 -30.226562 16.570312 -30.226562 Z M 16.570312 -24.515625 C 21.867188 -24.515625 25.597656 -20.226562 25.597656 -14.964844 C 25.597656 -9.703125 21.867188 -5.410156 16.570312 -5.410156 C 11.308594 -5.410156 7.574219 -9.703125 7.574219 -14.964844 C 7.574219 -20.226562 11.308594 -24.515625 16.570312 -24.515625 Z M 16.570312 -24.515625 "/></g></g></g><g fill="#ffffff" fill-opacity="0.4"><g transform="translate(525.943127, 50.530622)"><g><path d="M 15 0.375 L 15.671875 0.375 C 22.089844 0.335938 25.75 -3.84375 26.011719 -7.984375 C 26.308594 -12.316406 23.023438 -17.164062 15.113281 -18.171875 L 15.039062 -18.171875 C 12.164062 -18.507812 9.179688 -19.925781 9.328125 -22.015625 C 9.441406 -23.507812 11.679688 -24.890625 15.746094 -24.703125 L 15.859375 -24.703125 C 18.097656 -24.703125 20.785156 -23.621094 22.167969 -22.613281 L 25.375 -27.09375 C 23.25 -28.621094 19.515625 -30.1875 15.933594 -30.1875 C 8.023438 -30.601562 4.179688 -26.570312 3.84375 -22.464844 C 3.65625 -20.078125 4.664062 -17.726562 6.605469 -15.933594 C 8.507812 -14.179688 11.230469 -13.0625 14.441406 -12.726562 C 18.808594 -12.128906 20.636719 -10.113281 20.523438 -8.359375 C 20.414062 -6.753906 18.695312 -5.148438 15.597656 -5.148438 L 15.410156 -5.148438 C 15.375 -5.148438 11.308594 -4.925781 8.808594 -6.976562 C 8.171875 -7.464844 7.648438 -8.058594 7.164062 -8.769531 L 2.613281 -5.671875 C 3.359375 -4.550781 4.292969 -3.546875 5.335938 -2.6875 C 8.730469 0.0742188 13.210938 0.375 15 0.375 Z M 15 0.375 "/></g></g></g><g fill="#ffffff" fill-opacity="0.4"><g transform="translate(554.558864, 50.530622)"><g/></g></g><g fill="#ffffff" fill-opacity="0.4"><g transform="translate(565.751473, 50.530622)"><g><path d="M 20.226562 0 L 26.046875 0 L 17.277344 -29.777344 L 17.277344 -29.855469 L 11.417969 -29.855469 L 2.613281 0 L 8.472656 0 L 10.671875 -7.425781 L 18.023438 -7.425781 Z M 12.316406 -12.984375 L 14.367188 -19.925781 L 16.382812 -12.984375 Z M 12.316406 -12.984375 "/></g></g></g><g fill="#ffffff" fill-opacity="0.4"><g transform="translate(594.404534, 50.530622)"><g><path d="M 25.933594 -18.660156 C 25.933594 -24.851562 23.097656 -29.855469 15.488281 -29.855469 L 2.613281 -29.855469 L 2.613281 0 L 8.210938 0 L 8.210938 -7.425781 L 15.488281 -7.425781 C 16.160156 -7.425781 16.792969 -7.464844 17.390625 -7.539062 L 20.078125 0 L 25.933594 0 L 22.539062 -9.554688 C 25.003906 -11.605469 25.933594 -14.925781 25.933594 -18.660156 Z M 8.210938 -13.023438 L 8.210938 -24.292969 L 15.488281 -24.292969 C 18.246094 -24.292969 18.996094 -23.359375 19.253906 -23.0625 C 19.964844 -22.167969 20.335938 -20.597656 20.335938 -18.660156 C 20.335938 -16.605469 19.964844 -15.039062 19.292969 -14.21875 C 18.660156 -13.398438 17.390625 -13.023438 15.488281 -13.023438 Z M 8.210938 -13.023438 "/></g></g></g><g fill="#ffffff" fill-opacity="0.4"><g transform="translate(622.945664, 50.530622)"><g><path d="M 25.039062 -29.855469 L 2.613281 -29.855469 L 2.613281 -24.292969 L 11.046875 -24.292969 L 11.046875 0 L 16.605469 0 L 16.605469 -24.292969 L 25.039062 -24.292969 Z M 25.039062 -29.855469 "/></g></g></g><g fill="#ffffff" fill-opacity="0.4"><g transform="translate(650.591394, 50.530622)"><g><path d="M 2.613281 -29.855469 L 8.210938 -29.855469 L 8.210938 -0.113281 L 2.613281 -0.113281 Z M 2.613281 -29.855469 "/></g></g></g><g fill="#ffffff" fill-opacity="0.4"><g transform="translate(661.410909, 50.530622)"><g><path d="M 24.480469 -8.320312 C 22.914062 -6.492188 20.597656 -5.375 17.875 -5.375 C 12.613281 -5.375 8.882812 -9.664062 8.882812 -14.925781 C 8.882812 -20.1875 12.613281 -24.480469 17.875 -24.480469 C 20.597656 -24.480469 22.914062 -23.359375 24.480469 -21.53125 L 28.695312 -25.710938 C 25.933594 -28.472656 22.089844 -30.1875 17.875 -30.1875 C 9.441406 -30.1875 2.613281 -23.359375 2.613281 -14.925781 C 2.613281 -6.492188 9.441406 0.335938 17.875 0.335938 C 22.089844 0.335938 25.933594 -1.378906 28.695312 -4.140625 Z M 24.480469 -8.320312 "/></g></g></g><g fill="#ffffff" fill-opacity="0.4"><g transform="translate(692.712867, 50.530622)"><g><path d="M 19.777344 -29.855469 L 19.777344 -10.335938 C 19.777344 -7.3125 17.351562 -4.886719 14.367188 -4.886719 L 13.621094 -4.886719 C 10.636719 -4.886719 8.210938 -7.3125 8.210938 -10.335938 L 8.210938 -29.855469 L 2.613281 -29.855469 L 2.613281 -10.335938 C 2.613281 -4.292969 7.574219 0.671875 13.621094 0.671875 L 14.367188 0.671875 C 20.414062 0.671875 25.339844 -4.292969 25.339844 -10.335938 L 25.339844 -29.855469 Z M 19.777344 -29.855469 "/></g></g></g><g fill="#ffffff" fill-opacity="0.4"><g transform="translate(720.657064, 50.530622)"><g><path d="M 8.171875 -5.558594 L 8.171875 -29.855469 L 2.613281 -29.855469 L 2.613281 0 L 19.890625 0 L 19.890625 -5.558594 Z M 8.171875 -5.558594 "/></g></g></g><g fill="#ffffff" fill-opacity="0.4"><g transform="translate(743.154212, 50.530622)"><g><path d="M 16.570312 -30.226562 C 8.136719 -30.226562 1.304688 -23.398438 1.304688 -14.964844 C 1.304688 -6.53125 8.136719 0.296875 16.570312 0.296875 C 25.003906 0.296875 31.832031 -6.53125 31.832031 -14.964844 C 31.832031 -23.398438 25.003906 -30.226562 16.570312 -30.226562 Z M 16.570312 -24.515625 C 21.867188 -24.515625 25.597656 -20.226562 25.597656 -14.964844 C 25.597656 -9.703125 21.867188 -5.410156 16.570312 -5.410156 C 11.308594 -5.410156 7.574219 -9.703125 7.574219 -14.964844 C 7.574219 -20.226562 11.308594 -24.515625 16.570312 -24.515625 Z M 16.570312 -24.515625 "/></g></g></g><g fill="#ffffff" fill-opacity="0.4"><g transform="translate(776.284316, 50.530622)"><g><path d="M 15 0.375 L 15.671875 0.375 C 22.089844 0.335938 25.75 -3.84375 26.011719 -7.984375 C 26.308594 -12.316406 23.023438 -17.164062 15.113281 -18.171875 L 15.039062 -18.171875 C 12.164062 -18.507812 9.179688 -19.925781 9.328125 -22.015625 C 9.441406 -23.507812 11.679688 -24.890625 15.746094 -24.703125 L 15.859375 -24.703125 C 18.097656 -24.703125 20.785156 -23.621094 22.167969 -22.613281 L 25.375 -27.09375 C 23.25 -28.621094 19.515625 -30.1875 15.933594 -30.1875 C 8.023438 -30.601562 4.179688 -26.570312 3.84375 -22.464844 C 3.65625 -20.078125 4.664062 -17.726562 6.605469 -15.933594 C 8.507812 -14.179688 11.230469 -13.0625 14.441406 -12.726562 C 18.808594 -12.128906 20.636719 -10.113281 20.523438 -8.359375 C 20.414062 -6.753906 18.695312 -5.148438 15.597656 -5.148438 L 15.410156 -5.148438 C 15.375 -5.148438 11.308594 -4.925781 8.808594 -6.976562 C 8.171875 -7.464844 7.648438 -8.058594 7.164062 -8.769531 L 2.613281 -5.671875 C 3.359375 -4.550781 4.292969 -3.546875 5.335938 -2.6875 C 8.730469 0.0742188 13.210938 0.375 15 0.375 Z M 15 0.375 "/></g></g></g><g fill="#ffffff" fill-opacity="0.4"><g transform="translate(804.900053, 50.530622)"><g/></g></g><g fill="#ffffff" fill-opacity="0.4"><g transform="translate(816.092662, 50.530622)"><g><path d="M 12.390625 -29.855469 L 2.613281 -29.855469 L 2.613281 0 L 12.390625 0 C 20.261719 0 25.859375 -6.679688 25.859375 -14.925781 C 25.859375 -23.175781 20.039062 -29.855469 12.390625 -29.855469 Z M 12.390625 -24.292969 C 16.828125 -24.292969 20.300781 -20.1875 20.300781 -14.925781 C 20.300781 -12.238281 19.480469 -9.8125 17.914062 -8.058594 C 16.90625 -6.902344 15.152344 -5.558594 12.390625 -5.558594 L 8.171875 -5.558594 L 8.171875 -24.292969 Z M 12.390625 -24.292969 "/></g></g></g><g fill="#ffffff" fill-opacity="0.4"><g transform="translate(844.559186, 50.530622)"><g><path d="M 19.925781 -24.332031 L 19.925781 -29.890625 L 2.613281 -29.890625 L 2.613281 0 L 19.925781 0 L 19.925781 -5.558594 L 8.210938 -5.558594 L 8.210938 -12.203125 L 15.1875 -12.203125 L 15.1875 -17.761719 L 8.210938 -17.761719 L 8.210938 -24.332031 Z M 19.925781 -24.332031 "/></g></g></g><g fill="#ffffff" fill-opacity="0.4"><g transform="translate(867.093615, 50.530622)"><g/></g></g><g fill="#ffffff" fill-opacity="0.4"><g transform="translate(878.286224, 50.530622)"><g><path d="M 25.039062 -29.855469 L 2.613281 -29.855469 L 2.613281 -24.292969 L 11.046875 -24.292969 L 11.046875 0 L 16.605469 0 L 16.605469 -24.292969 L 25.039062 -24.292969 Z M 25.039062 -29.855469 "/></g></g></g><g fill="#ffffff" fill-opacity="0.4"><g transform="translate(905.931954, 50.530622)"><g><path d="M 19.777344 -29.855469 L 19.777344 -10.335938 C 19.777344 -7.3125 17.351562 -4.886719 14.367188 -4.886719 L 13.621094 -4.886719 C 10.636719 -4.886719 8.210938 -7.3125 8.210938 -10.335938 L 8.210938 -29.855469 L 2.613281 -29.855469 L 2.613281 -10.335938 C 2.613281 -4.292969 7.574219 0.671875 13.621094 0.671875 L 14.367188 0.671875 C 20.414062 0.671875 25.339844 -4.292969 25.339844 -10.335938 L 25.339844 -29.855469 Z M 19.777344 -29.855469 "/></g></g></g><g fill="#ffffff" fill-opacity="0.4"><g transform="translate(933.876151, 50.530622)"><g><path d="M 15 0.375 L 15.671875 0.375 C 22.089844 0.335938 25.75 -3.84375 26.011719 -7.984375 C 26.308594 -12.316406 23.023438 -17.164062 15.113281 -18.171875 L 15.039062 -18.171875 C 12.164062 -18.507812 9.179688 -19.925781 9.328125 -22.015625 C 9.441406 -23.507812 11.679688 -24.890625 15.746094 -24.703125 L 15.859375 -24.703125 C 18.097656 -24.703125 20.785156 -23.621094 22.167969 -22.613281 L 25.375 -27.09375 C 23.25 -28.621094 19.515625 -30.1875 15.933594 -30.1875 C 8.023438 -30.601562 4.179688 -26.570312 3.84375 -22.464844 C 3.65625 -20.078125 4.664062 -17.726562 6.605469 -15.933594 C 8.507812 -14.179688 11.230469 -13.0625 14.441406 -12.726562 C 18.808594 -12.128906 20.636719 -10.113281 20.523438 -8.359375 C 20.414062 -6.753906 18.695312 -5.148438 15.597656 -5.148438 L 15.410156 -5.148438 C 15.375 -5.148438 11.308594 -4.925781 8.808594 -6.976562 C 8.171875 -7.464844 7.648438 -8.058594 7.164062 -8.769531 L 2.613281 -5.671875 C 3.359375 -4.550781 4.292969 -3.546875 5.335938 -2.6875 C 8.730469 0.0742188 13.210938 0.375 15 0.375 Z M 15 0.375 "/></g></g></g><g fill="#ade8a9" fill-opacity="1"><g transform="translate(310.312857, 49.694661)"><g><path d="M 25.039062 -29.855469 L 2.613281 -29.855469 L 2.613281 -24.292969 L 11.046875 -24.292969 L 11.046875 0 L 16.605469 0 L 16.605469 -24.292969 L 25.039062 -24.292969 Z M 25.039062 -29.855469 "/></g></g></g><g fill="#ade8a9" fill-opacity="1"><g transform="translate(337.958588, 49.694661)"><g><path d="M 16.570312 -30.226562 C 8.136719 -30.226562 1.304688 -23.398438 1.304688 -14.964844 C 1.304688 -6.53125 8.136719 0.296875 16.570312 0.296875 C 25.003906 0.296875 31.832031 -6.53125 31.832031 -14.964844 C 31.832031 -23.398438 25.003906 -30.226562 16.570312 -30.226562 Z M 16.570312 -24.515625 C 21.867188 -24.515625 25.597656 -20.226562 25.597656 -14.964844 C 25.597656 -9.703125 21.867188 -5.410156 16.570312 -5.410156 C 11.308594 -5.410156 7.574219 -9.703125 7.574219 -14.964844 C 7.574219 -20.226562 11.308594 -24.515625 16.570312 -24.515625 Z M 16.570312 -24.515625 "/></g></g></g><g fill="#ade8a9" fill-opacity="1"><g transform="translate(371.088693, 49.694661)"><g><path d="M 12.390625 -29.855469 L 2.613281 -29.855469 L 2.613281 0 L 12.390625 0 C 20.261719 0 25.859375 -6.679688 25.859375 -14.925781 C 25.859375 -23.175781 20.039062 -29.855469 12.390625 -29.855469 Z M 12.390625 -24.292969 C 16.828125 -24.292969 20.300781 -20.1875 20.300781 -14.925781 C 20.300781 -12.238281 19.480469 -9.8125 17.914062 -8.058594 C 16.90625 -6.902344 15.152344 -5.558594 12.390625 -5.558594 L 8.171875 -5.558594 L 8.171875 -24.292969 Z M 12.390625 -24.292969 "/></g></g></g><g fill="#ade8a9" fill-opacity="1"><g transform="translate(399.555206, 49.694661)"><g><path d="M 16.570312 -30.226562 C 8.136719 -30.226562 1.304688 -23.398438 1.304688 -14.964844 C 1.304688 -6.53125 8.136719 0.296875 16.570312 0.296875 C 25.003906 0.296875 31.832031 -6.53125 31.832031 -14.964844 C 31.832031 -23.398438 25.003906 -30.226562 16.570312 -30.226562 Z M 16.570312 -24.515625 C 21.867188 -24.515625 25.597656 -20.226562 25.597656 -14.964844 C 25.597656 -9.703125 21.867188 -5.410156 16.570312 -5.410156 C 11.308594 -5.410156 7.574219 -9.703125 7.574219 -14.964844 C 7.574219 -20.226562 11.308594 -24.515625 16.570312 -24.515625 Z M 16.570312 -24.515625 "/></g></g></g><g fill="#ade8a9" fill-opacity="1"><g transform="translate(432.685311, 49.694661)"><g><path d="M 15 0.375 L 15.671875 0.375 C 22.089844 0.335938 25.75 -3.84375 26.011719 -7.984375 C 26.308594 -12.316406 23.023438 -17.164062 15.113281 -18.171875 L 15.039062 -18.171875 C 12.164062 -18.507812 9.179688 -19.925781 9.328125 -22.015625 C 9.441406 -23.507812 11.679688 -24.890625 15.746094 -24.703125 L 15.859375 -24.703125 C 18.097656 -24.703125 20.785156 -23.621094 22.167969 -22.613281 L 25.375 -27.09375 C 23.25 -28.621094 19.515625 -30.1875 15.933594 -30.1875 C 8.023438 -30.601562 4.179688 -26.570312 3.84375 -22.464844 C 3.65625 -20.078125 4.664062 -17.726562 6.605469 -15.933594 C 8.507812 -14.179688 11.230469 -13.0625 14.441406 -12.726562 C 18.808594 -12.128906 20.636719 -10.113281 20.523438 -8.359375 C 20.414062 -6.753906 18.695312 -5.148438 15.597656 -5.148438 L 15.410156 -5.148438 C 15.375 -5.148438 11.308594 -4.925781 8.808594 -6.976562 C 8.171875 -7.464844 7.648438 -8.058594 7.164062 -8.769531 L 2.613281 -5.671875 C 3.359375 -4.550781 4.292969 -3.546875 5.335938 -2.6875 C 8.730469 0.0742188 13.210938 0.375 15 0.375 Z M 15 0.375 "/></g></g></g><g fill="#ade8a9" fill-opacity="1"><g transform="translate(461.301058, 49.694661)"><g/></g></g><g fill="#ade8a9" fill-opacity="1"><g transform="translate(472.493656, 49.694661)"><g><path d="M 8.171875 -5.558594 L 8.171875 -29.855469 L 2.613281 -29.855469 L 2.613281 0 L 19.890625 0 L 19.890625 -5.558594 Z M 8.171875 -5.558594 "/></g></g></g><g fill="#ade8a9" fill-opacity="1"><g transform="translate(494.990772, 49.694661)"><g><path d="M 16.570312 -30.226562 C 8.136719 -30.226562 1.304688 -23.398438 1.304688 -14.964844 C 1.304688 -6.53125 8.136719 0.296875 16.570312 0.296875 C 25.003906 0.296875 31.832031 -6.53125 31.832031 -14.964844 C 31.832031 -23.398438 25.003906 -30.226562 16.570312 -30.226562 Z M 16.570312 -24.515625 C 21.867188 -24.515625 25.597656 -20.226562 25.597656 -14.964844 C 25.597656 -9.703125 21.867188 -5.410156 16.570312 -5.410156 C 11.308594 -5.410156 7.574219 -9.703125 7.574219 -14.964844 C 7.574219 -20.226562 11.308594 -24.515625 16.570312 -24.515625 Z M 16.570312 -24.515625 "/></g></g></g><g fill="#ade8a9" fill-opacity="1"><g transform="translate(528.120876, 49.694661)"><g><path d="M 15 0.375 L 15.671875 0.375 C 22.089844 0.335938 25.75 -3.84375 26.011719 -7.984375 C 26.308594 -12.316406 23.023438 -17.164062 15.113281 -18.171875 L 15.039062 -18.171875 C 12.164062 -18.507812 9.179688 -19.925781 9.328125 -22.015625 C 9.441406 -23.507812 11.679688 -24.890625 15.746094 -24.703125 L 15.859375 -24.703125 C 18.097656 -24.703125 20.785156 -23.621094 22.167969 -22.613281 L 25.375 -27.09375 C 23.25 -28.621094 19.515625 -30.1875 15.933594 -30.1875 C 8.023438 -30.601562 4.179688 -26.570312 3.84375 -22.464844 C 3.65625 -20.078125 4.664062 -17.726562 6.605469 -15.933594 C 8.507812 -14.179688 11.230469 -13.0625 14.441406 -12.726562 C 18.808594 -12.128906 20.636719 -10.113281 20.523438 -8.359375 C 20.414062 -6.753906 18.695312 -5.148438 15.597656 -5.148438 L 15.410156 -5.148438 C 15.375 -5.148438 11.308594 -4.925781 8.808594 -6.976562 C 8.171875 -7.464844 7.648438 -8.058594 7.164062 -8.769531 L 2.613281 -5.671875 C 3.359375 -4.550781 4.292969 -3.546875 5.335938 -2.6875 C 8.730469 0.0742188 13.210938 0.375 15 0.375 Z M 15 0.375 "/></g></g></g><g fill="#ade8a9" fill-opacity="1"><g transform="translate(556.736613, 49.694661)"><g/></g></g><g fill="#ade8a9" fill-opacity="1"><g transform="translate(567.929221, 49.694661)"><g><path d="M 20.226562 0 L 26.046875 0 L 17.277344 -29.777344 L 17.277344 -29.855469 L 11.417969 -29.855469 L 2.613281 0 L 8.472656 0 L 10.671875 -7.425781 L 18.023438 -7.425781 Z M 12.316406 -12.984375 L 14.367188 -19.925781 L 16.382812 -12.984375 Z M 12.316406 -12.984375 "/></g></g></g><g fill="#ade8a9" fill-opacity="1"><g transform="translate(596.582282, 49.694661)"><g><path d="M 25.933594 -18.660156 C 25.933594 -24.851562 23.097656 -29.855469 15.488281 -29.855469 L 2.613281 -29.855469 L 2.613281 0 L 8.210938 0 L 8.210938 -7.425781 L 15.488281 -7.425781 C 16.160156 -7.425781 16.792969 -7.464844 17.390625 -7.539062 L 20.078125 0 L 25.933594 0 L 22.539062 -9.554688 C 25.003906 -11.605469 25.933594 -14.925781 25.933594 -18.660156 Z M 8.210938 -13.023438 L 8.210938 -24.292969 L 15.488281 -24.292969 C 18.246094 -24.292969 18.996094 -23.359375 19.253906 -23.0625 C 19.964844 -22.167969 20.335938 -20.597656 20.335938 -18.660156 C 20.335938 -16.605469 19.964844 -15.039062 19.292969 -14.21875 C 18.660156 -13.398438 17.390625 -13.023438 15.488281 -13.023438 Z M 8.210938 -13.023438 "/></g></g></g><g fill="#ade8a9" fill-opacity="1"><g transform="translate(625.123412, 49.694661)"><g><path d="M 25.039062 -29.855469 L 2.613281 -29.855469 L 2.613281 -24.292969 L 11.046875 -24.292969 L 11.046875 0 L 16.605469 0 L 16.605469 -24.292969 L 25.039062 -24.292969 Z M 25.039062 -29.855469 "/></g></g></g><g fill="#ade8a9" fill-opacity="1"><g transform="translate(652.769143, 49.694661)"><g><path d="M 2.613281 -29.855469 L 8.210938 -29.855469 L 8.210938 -0.113281 L 2.613281 -0.113281 Z M 2.613281 -29.855469 "/></g></g></g><g fill="#ade8a9" fill-opacity="1"><g transform="translate(663.588657, 49.694661)"><g><path d="M 24.480469 -8.320312 C 22.914062 -6.492188 20.597656 -5.375 17.875 -5.375 C 12.613281 -5.375 8.882812 -9.664062 8.882812 -14.925781 C 8.882812 -20.1875 12.613281 -24.480469 17.875 -24.480469 C 20.597656 -24.480469 22.914062 -23.359375 24.480469 -21.53125 L 28.695312 -25.710938 C 25.933594 -28.472656 22.089844 -30.1875 17.875 -30.1875 C 9.441406 -30.1875 2.613281 -23.359375 2.613281 -14.925781 C 2.613281 -6.492188 9.441406 0.335938 17.875 0.335938 C 22.089844 0.335938 25.933594 -1.378906 28.695312 -4.140625 Z M 24.480469 -8.320312 "/></g></g></g><g fill="#ade8a9" fill-opacity="1"><g transform="translate(694.890616, 49.694661)"><g><path d="M 19.777344 -29.855469 L 19.777344 -10.335938 C 19.777344 -7.3125 17.351562 -4.886719 14.367188 -4.886719 L 13.621094 -4.886719 C 10.636719 -4.886719 8.210938 -7.3125 8.210938 -10.335938 L 8.210938 -29.855469 L 2.613281 -29.855469 L 2.613281 -10.335938 C 2.613281 -4.292969 7.574219 0.671875 13.621094 0.671875 L 14.367188 0.671875 C 20.414062 0.671875 25.339844 -4.292969 25.339844 -10.335938 L 25.339844 -29.855469 Z M 19.777344 -29.855469 "/></g></g></g><g fill="#ade8a9" fill-opacity="1"><g transform="translate(722.834812, 49.694661)"><g><path d="M 8.171875 -5.558594 L 8.171875 -29.855469 L 2.613281 -29.855469 L 2.613281 0 L 19.890625 0 L 19.890625 -5.558594 Z M 8.171875 -5.558594 "/></g></g></g><g fill="#ade8a9" fill-opacity="1"><g transform="translate(745.33196, 49.694661)"><g><path d="M 16.570312 -30.226562 C 8.136719 -30.226562 1.304688 -23.398438 1.304688 -14.964844 C 1.304688 -6.53125 8.136719 0.296875 16.570312 0.296875 C 25.003906 0.296875 31.832031 -6.53125 31.832031 -14.964844 C 31.832031 -23.398438 25.003906 -30.226562 16.570312 -30.226562 Z M 16.570312 -24.515625 C 21.867188 -24.515625 25.597656 -20.226562 25.597656 -14.964844 C 25.597656 -9.703125 21.867188 -5.410156 16.570312 -5.410156 C 11.308594 -5.410156 7.574219 -9.703125 7.574219 -14.964844 C 7.574219 -20.226562 11.308594 -24.515625 16.570312 -24.515625 Z M 16.570312 -24.515625 "/></g></g></g><g fill="#ade8a9" fill-opacity="1"><g transform="translate(778.462065, 49.694661)"><g><path d="M 15 0.375 L 15.671875 0.375 C 22.089844 0.335938 25.75 -3.84375 26.011719 -7.984375 C 26.308594 -12.316406 23.023438 -17.164062 15.113281 -18.171875 L 15.039062 -18.171875 C 12.164062 -18.507812 9.179688 -19.925781 9.328125 -22.015625 C 9.441406 -23.507812 11.679688 -24.890625 15.746094 -24.703125 L 15.859375 -24.703125 C 18.097656 -24.703125 20.785156 -23.621094 22.167969 -22.613281 L 25.375 -27.09375 C 23.25 -28.621094 19.515625 -30.1875 15.933594 -30.1875 C 8.023438 -30.601562 4.179688 -26.570312 3.84375 -22.464844 C 3.65625 -20.078125 4.664062 -17.726562 6.605469 -15.933594 C 8.507812 -14.179688 11.230469 -13.0625 14.441406 -12.726562 C 18.808594 -12.128906 20.636719 -10.113281 20.523438 -8.359375 C 20.414062 -6.753906 18.695312 -5.148438 15.597656 -5.148438 L 15.410156 -5.148438 C 15.375 -5.148438 11.308594 -4.925781 8.808594 -6.976562 C 8.171875 -7.464844 7.648438 -8.058594 7.164062 -8.769531 L 2.613281 -5.671875 C 3.359375 -4.550781 4.292969 -3.546875 5.335938 -2.6875 C 8.730469 0.0742188 13.210938 0.375 15 0.375 Z M 15 0.375 "/></g></g></g><g fill="#ade8a9" fill-opacity="1"><g transform="translate(807.077802, 49.694661)"><g/></g></g><g fill="#ade8a9" fill-opacity="1"><g transform="translate(818.27041, 49.694661)"><g><path d="M 12.390625 -29.855469 L 2.613281 -29.855469 L 2.613281 0 L 12.390625 0 C 20.261719 0 25.859375 -6.679688 25.859375 -14.925781 C 25.859375 -23.175781 20.039062 -29.855469 12.390625 -29.855469 Z M 12.390625 -24.292969 C 16.828125 -24.292969 20.300781 -20.1875 20.300781 -14.925781 C 20.300781 -12.238281 19.480469 -9.8125 17.914062 -8.058594 C 16.90625 -6.902344 15.152344 -5.558594 12.390625 -5.558594 L 8.171875 -5.558594 L 8.171875 -24.292969 Z M 12.390625 -24.292969 "/></g></g></g><g fill="#ade8a9" fill-opacity="1"><g transform="translate(846.736934, 49.694661)"><g><path d="M 19.925781 -24.332031 L 19.925781 -29.890625 L 2.613281 -29.890625 L 2.613281 0 L 19.925781 0 L 19.925781 -5.558594 L 8.210938 -5.558594 L 8.210938 -12.203125 L 15.1875 -12.203125 L 15.1875 -17.761719 L 8.210938 -17.761719 L 8.210938 -24.332031 Z M 19.925781 -24.332031 "/></g></g></g><g fill="#ade8a9" fill-opacity="1"><g transform="translate(869.271364, 49.694661)"><g/></g></g><g fill="#ade8a9" fill-opacity="1"><g transform="translate(880.463972, 49.694661)"><g><path d="M 25.039062 -29.855469 L 2.613281 -29.855469 L 2.613281 -24.292969 L 11.046875 -24.292969 L 11.046875 0 L 16.605469 0 L 16.605469 -24.292969 L 25.039062 -24.292969 Z M 25.039062 -29.855469 "/></g></g></g><g fill="#ade8a9" fill-opacity="1"><g transform="translate(908.109703, 49.694661)"><g><path d="M 19.777344 -29.855469 L 19.777344 -10.335938 C 19.777344 -7.3125 17.351562 -4.886719 14.367188 -4.886719 L 13.621094 -4.886719 C 10.636719 -4.886719 8.210938 -7.3125 8.210938 -10.335938 L 8.210938 -29.855469 L 2.613281 -29.855469 L 2.613281 -10.335938 C 2.613281 -4.292969 7.574219 0.671875 13.621094 0.671875 L 14.367188 0.671875 C 20.414062 0.671875 25.339844 -4.292969 25.339844 -10.335938 L 25.339844 -29.855469 Z M 19.777344 -29.855469 "/></g></g></g><g fill="#ade8a9" fill-opacity="1"><g transform="translate(936.0539, 49.694661)"><g><path d="M 15 0.375 L 15.671875 0.375 C 22.089844 0.335938 25.75 -3.84375 26.011719 -7.984375 C 26.308594 -12.316406 23.023438 -17.164062 15.113281 -18.171875 L 15.039062 -18.171875 C 12.164062 -18.507812 9.179688 -19.925781 9.328125 -22.015625 C 9.441406 -23.507812 11.679688 -24.890625 15.746094 -24.703125 L 15.859375 -24.703125 C 18.097656 -24.703125 20.785156 -23.621094 22.167969 -22.613281 L 25.375 -27.09375 C 23.25 -28.621094 19.515625 -30.1875 15.933594 -30.1875 C 8.023438 -30.601562 4.179688 -26.570312 3.84375 -22.464844 C 3.65625 -20.078125 4.664062 -17.726562 6.605469 -15.933594 C 8.507812 -14.179688 11.230469 -13.0625 14.441406 -12.726562 C 18.808594 -12.128906 20.636719 -10.113281 20.523438 -8.359375 C 20.414062 -6.753906 18.695312 -5.148438 15.597656 -5.148438 L 15.410156 -5.148438 C 15.375 -5.148438 11.308594 -4.925781 8.808594 -6.976562 C 8.171875 -7.464844 7.648438 -8.058594 7.164062 -8.769531 L 2.613281 -5.671875 C 3.359375 -4.550781 4.292969 -3.546875 5.335938 -2.6875 C 8.730469 0.0742188 13.210938 0.375 15 0.375 Z M 15 0.375 "/></g></g></g><g fill="#ffffff" fill-opacity="0.4"><g transform="translate(297.899121, 102.545255)"><g><path d="M 15 0.375 L 15.671875 0.375 C 22.089844 0.335938 25.75 -3.84375 26.011719 -7.984375 C 26.308594 -12.316406 23.023438 -17.164062 15.113281 -18.171875 L 15.039062 -18.171875 C 12.164062 -18.507812 9.179688 -19.925781 9.328125 -22.015625 C 9.441406 -23.507812 11.679688 -24.890625 15.746094 -24.703125 L 15.859375 -24.703125 C 18.097656 -24.703125 20.785156 -23.621094 22.167969 -22.613281 L 25.375 -27.09375 C 23.25 -28.621094 19.515625 -30.1875 15.933594 -30.1875 C 8.023438 -30.601562 4.179688 -26.570312 3.84375 -22.464844 C 3.65625 -20.078125 4.664062 -17.726562 6.605469 -15.933594 C 8.507812 -14.179688 11.230469 -13.0625 14.441406 -12.726562 C 18.808594 -12.128906 20.636719 -10.113281 20.523438 -8.359375 C 20.414062 -6.753906 18.695312 -5.148438 15.597656 -5.148438 L 15.410156 -5.148438 C 15.375 -5.148438 11.308594 -4.925781 8.808594 -6.976562 C 8.171875 -7.464844 7.648438 -8.058594 7.164062 -8.769531 L 2.613281 -5.671875 C 3.359375 -4.550781 4.292969 -3.546875 5.335938 -2.6875 C 8.730469 0.0742188 13.210938 0.375 15 0.375 Z M 15 0.375 "/></g></g></g><g fill="#ffffff" fill-opacity="0.4"><g transform="translate(326.514868, 102.545255)"><g><path d="M 19.925781 -24.332031 L 19.925781 -29.890625 L 2.613281 -29.890625 L 2.613281 0 L 19.925781 0 L 19.925781 -5.558594 L 8.210938 -5.558594 L 8.210938 -12.203125 L 15.1875 -12.203125 L 15.1875 -17.761719 L 8.210938 -17.761719 L 8.210938 -24.332031 Z M 19.925781 -24.332031 "/></g></g></g><g fill="#ffffff" fill-opacity="0.4"><g transform="translate(349.049308, 102.545255)"><g><path d="M 25.933594 -18.660156 C 25.933594 -24.851562 23.097656 -29.855469 15.488281 -29.855469 L 2.613281 -29.855469 L 2.613281 0 L 8.210938 0 L 8.210938 -7.425781 L 15.488281 -7.425781 C 16.160156 -7.425781 16.792969 -7.464844 17.390625 -7.539062 L 20.078125 0 L 25.933594 0 L 22.539062 -9.554688 C 25.003906 -11.605469 25.933594 -14.925781 25.933594 -18.660156 Z M 8.210938 -13.023438 L 8.210938 -24.292969 L 15.488281 -24.292969 C 18.246094 -24.292969 18.996094 -23.359375 19.253906 -23.0625 C 19.964844 -22.167969 20.335938 -20.597656 20.335938 -18.660156 C 20.335938 -16.605469 19.964844 -15.039062 19.292969 -14.21875 C 18.660156 -13.398438 17.390625 -13.023438 15.488281 -13.023438 Z M 8.210938 -13.023438 "/></g></g></g><g fill="#ffffff" fill-opacity="0.4"><g transform="translate(377.590438, 102.545255)"><g><path d="M 2.613281 -29.855469 L 8.210938 -29.855469 L 8.210938 -0.113281 L 2.613281 -0.113281 Z M 2.613281 -29.855469 "/></g></g></g><g fill="#ffffff" fill-opacity="0.4"><g transform="translate(388.409953, 102.545255)"><g><path d="M 19.925781 -24.332031 L 19.925781 -29.890625 L 2.613281 -29.890625 L 2.613281 0 L 19.925781 0 L 19.925781 -5.558594 L 8.210938 -5.558594 L 8.210938 -12.203125 L 15.1875 -12.203125 L 15.1875 -17.761719 L 8.210938 -17.761719 L 8.210938 -24.332031 Z M 19.925781 -24.332031 "/></g></g></g><g fill="#ffffff" fill-opacity="0.4"><g transform="translate(410.944392, 102.545255)"><g><path d="M 15 0.375 L 15.671875 0.375 C 22.089844 0.335938 25.75 -3.84375 26.011719 -7.984375 C 26.308594 -12.316406 23.023438 -17.164062 15.113281 -18.171875 L 15.039062 -18.171875 C 12.164062 -18.507812 9.179688 -19.925781 9.328125 -22.015625 C 9.441406 -23.507812 11.679688 -24.890625 15.746094 -24.703125 L 15.859375 -24.703125 C 18.097656 -24.703125 20.785156 -23.621094 22.167969 -22.613281 L 25.375 -27.09375 C 23.25 -28.621094 19.515625 -30.1875 15.933594 -30.1875 C 8.023438 -30.601562 4.179688 -26.570312 3.84375 -22.464844 C 3.65625 -20.078125 4.664062 -17.726562 6.605469 -15.933594 C 8.507812 -14.179688 11.230469 -13.0625 14.441406 -12.726562 C 18.808594 -12.128906 20.636719 -10.113281 20.523438 -8.359375 C 20.414062 -6.753906 18.695312 -5.148438 15.597656 -5.148438 L 15.410156 -5.148438 C 15.375 -5.148438 11.308594 -4.925781 8.808594 -6.976562 C 8.171875 -7.464844 7.648438 -8.058594 7.164062 -8.769531 L 2.613281 -5.671875 C 3.359375 -4.550781 4.292969 -3.546875 5.335938 -2.6875 C 8.730469 0.0742188 13.210938 0.375 15 0.375 Z M 15 0.375 "/></g></g></g><g fill="#ffffff" fill-opacity="0.4"><g transform="translate(439.56014, 102.545255)"><g/></g></g><g fill="#ffffff" fill-opacity="0.4"><g transform="translate(450.752738, 102.545255)"><g><path d="M 19.21875 -29.890625 L 13.734375 -16.90625 L 8.210938 -29.890625 L 2.613281 -29.890625 L 10.933594 -10.335938 L 10.933594 0 L 16.492188 0 L 16.492188 -10.335938 L 24.777344 -29.890625 Z M 19.21875 -29.890625 "/></g></g></g><g fill="#ffffff" fill-opacity="0.4"><g transform="translate(478.137315, 102.545255)"><g/></g></g><g fill="#ffffff" fill-opacity="0.4"><g transform="translate(489.329923, 102.545255)"><g><path d="M 15.488281 -29.855469 L 2.613281 -29.855469 L 2.613281 0 L 8.210938 0 L 8.210938 -7.425781 L 15.488281 -7.425781 C 23.359375 -7.425781 25.933594 -12.464844 25.933594 -18.660156 C 25.933594 -24.851562 23.097656 -29.855469 15.488281 -29.855469 Z M 19.292969 -14.21875 C 18.660156 -13.398438 17.390625 -13.023438 15.488281 -13.023438 L 8.210938 -13.023438 L 8.210938 -24.292969 L 15.488281 -24.292969 C 18.246094 -24.292969 18.996094 -23.359375 19.253906 -23.0625 C 19.964844 -22.167969 20.335938 -20.597656 20.335938 -18.660156 C 20.335938 -16.605469 19.964844 -15.039062 19.292969 -14.21875 Z M 19.292969 -14.21875 "/></g></g></g><g fill="#ffffff" fill-opacity="0.4"><g transform="translate(517.871053, 102.545255)"><g><path d="M 19.925781 -24.332031 L 19.925781 -29.890625 L 2.613281 -29.890625 L 2.613281 0 L 19.925781 0 L 19.925781 -5.558594 L 8.210938 -5.558594 L 8.210938 -12.203125 L 15.1875 -12.203125 L 15.1875 -17.761719 L 8.210938 -17.761719 L 8.210938 -24.332031 Z M 19.925781 -24.332031 "/></g></g></g><g fill="#ffffff" fill-opacity="0.4"><g transform="translate(540.405483, 102.545255)"><g><path d="M 8.171875 -5.558594 L 8.171875 -29.855469 L 2.613281 -29.855469 L 2.613281 0 L 19.890625 0 L 19.890625 -5.558594 Z M 8.171875 -5.558594 "/></g></g></g><g fill="#ffffff" fill-opacity="0.4"><g transform="translate(562.902609, 102.545255)"><g><path d="M 12.652344 -38.585938 L 5.484375 -38.585938 L 2.6875 -31.121094 L 7.089844 -31.121094 Z M 8.210938 -0.113281 L 2.613281 -0.113281 L 2.613281 -29.855469 L 8.210938 -29.855469 Z M 8.210938 -0.113281 "/></g></g></g><g fill="#ffffff" fill-opacity="0.4"><g transform="translate(573.722123, 102.545255)"><g><path d="M 24.480469 -8.320312 C 22.914062 -6.492188 20.597656 -5.375 17.875 -5.375 C 12.613281 -5.375 8.882812 -9.664062 8.882812 -14.925781 C 8.882812 -20.1875 12.613281 -24.480469 17.875 -24.480469 C 20.597656 -24.480469 22.914062 -23.359375 24.480469 -21.53125 L 28.695312 -25.710938 C 25.933594 -28.472656 22.089844 -30.1875 17.875 -30.1875 C 9.441406 -30.1875 2.613281 -23.359375 2.613281 -14.925781 C 2.613281 -6.492188 9.441406 0.335938 17.875 0.335938 C 22.089844 0.335938 25.933594 -1.378906 28.695312 -4.140625 Z M 24.480469 -8.320312 "/></g></g></g><g fill="#ffffff" fill-opacity="0.4"><g transform="translate(605.024103, 102.545255)"><g><path d="M 19.777344 -29.855469 L 19.777344 -10.335938 C 19.777344 -7.3125 17.351562 -4.886719 14.367188 -4.886719 L 13.621094 -4.886719 C 10.636719 -4.886719 8.210938 -7.3125 8.210938 -10.335938 L 8.210938 -29.855469 L 2.613281 -29.855469 L 2.613281 -10.335938 C 2.613281 -4.292969 7.574219 0.671875 13.621094 0.671875 L 14.367188 0.671875 C 20.414062 0.671875 25.339844 -4.292969 25.339844 -10.335938 L 25.339844 -29.855469 Z M 19.777344 -29.855469 "/></g></g></g><g fill="#ffffff" fill-opacity="0.4"><g transform="translate(632.9683, 102.545255)"><g><path d="M 8.171875 -5.558594 L 8.171875 -29.855469 L 2.613281 -29.855469 L 2.613281 0 L 19.890625 0 L 19.890625 -5.558594 Z M 8.171875 -5.558594 "/></g></g></g><g fill="#ffffff" fill-opacity="0.4"><g transform="translate(655.465426, 102.545255)"><g><path d="M 20.226562 0 L 26.046875 0 L 17.277344 -29.777344 L 17.277344 -29.855469 L 11.417969 -29.855469 L 2.613281 0 L 8.472656 0 L 10.671875 -7.425781 L 18.023438 -7.425781 Z M 12.316406 -12.984375 L 14.367188 -19.925781 L 16.382812 -12.984375 Z M 12.316406 -12.984375 "/></g></g></g><g fill="#ffffff" fill-opacity="0.4"><g transform="translate(684.118466, 102.545255)"><g><path d="M 15 0.375 L 15.671875 0.375 C 22.089844 0.335938 25.75 -3.84375 26.011719 -7.984375 C 26.308594 -12.316406 23.023438 -17.164062 15.113281 -18.171875 L 15.039062 -18.171875 C 12.164062 -18.507812 9.179688 -19.925781 9.328125 -22.015625 C 9.441406 -23.507812 11.679688 -24.890625 15.746094 -24.703125 L 15.859375 -24.703125 C 18.097656 -24.703125 20.785156 -23.621094 22.167969 -22.613281 L 25.375 -27.09375 C 23.25 -28.621094 19.515625 -30.1875 15.933594 -30.1875 C 8.023438 -30.601562 4.179688 -26.570312 3.84375 -22.464844 C 3.65625 -20.078125 4.664062 -17.726562 6.605469 -15.933594 C 8.507812 -14.179688 11.230469 -13.0625 14.441406 -12.726562 C 18.808594 -12.128906 20.636719 -10.113281 20.523438 -8.359375 C 20.414062 -6.753906 18.695312 -5.148438 15.597656 -5.148438 L 15.410156 -5.148438 C 15.375 -5.148438 11.308594 -4.925781 8.808594 -6.976562 C 8.171875 -7.464844 7.648438 -8.058594 7.164062 -8.769531 L 2.613281 -5.671875 C 3.359375 -4.550781 4.292969 -3.546875 5.335938 -2.6875 C 8.730469 0.0742188 13.210938 0.375 15 0.375 Z M 15 0.375 "/></g></g></g><g fill="#ffffff" fill-opacity="0.4"><g transform="translate(712.734202, 102.545255)"><g/></g></g><g fill="#ffffff" fill-opacity="0.4"><g transform="translate(723.926811, 102.545255)"><g><path d="M 21.160156 -24.257812 L 21.160156 -29.855469 L 2.613281 -29.855469 L 2.613281 0 L 8.210938 0 L 8.210938 -10.5625 L 16.417969 -10.5625 L 16.417969 -16.160156 L 8.210938 -16.160156 L 8.210938 -24.257812 Z M 21.160156 -24.257812 "/></g></g></g><g fill="#ffffff" fill-opacity="0.4"><g transform="translate(746.535889, 102.545255)"><g><path d="M 20.226562 0 L 26.046875 0 L 17.277344 -29.777344 L 17.277344 -29.855469 L 11.417969 -29.855469 L 2.613281 0 L 8.472656 0 L 10.671875 -7.425781 L 18.023438 -7.425781 Z M 12.316406 -12.984375 L 14.367188 -19.925781 L 16.382812 -12.984375 Z M 12.316406 -12.984375 "/></g></g></g><g fill="#ffffff" fill-opacity="0.4"><g transform="translate(775.18895, 102.545255)"><g><path d="M 20.226562 -29.855469 L 14.480469 -10.375 L 8.730469 -29.855469 L 2.613281 -29.855469 L 11.417969 0 L 17.539062 0 L 26.347656 -29.855469 Z M 20.226562 -29.855469 "/></g></g></g><g fill="#ffffff" fill-opacity="0.4"><g transform="translate(804.140477, 102.545255)"><g><path d="M 16.570312 -30.226562 C 8.136719 -30.226562 1.304688 -23.398438 1.304688 -14.964844 C 1.304688 -6.53125 8.136719 0.296875 16.570312 0.296875 C 25.003906 0.296875 31.832031 -6.53125 31.832031 -14.964844 C 31.832031 -23.398438 25.003906 -30.226562 16.570312 -30.226562 Z M 16.570312 -24.515625 C 21.867188 -24.515625 25.597656 -20.226562 25.597656 -14.964844 C 25.597656 -9.703125 21.867188 -5.410156 16.570312 -5.410156 C 11.308594 -5.410156 7.574219 -9.703125 7.574219 -14.964844 C 7.574219 -20.226562 11.308594 -24.515625 16.570312 -24.515625 Z M 16.570312 -24.515625 "/></g></g></g><g fill="#ffffff" fill-opacity="0.4"><g transform="translate(837.270582, 102.545255)"><g><path d="M 25.933594 -18.660156 C 25.933594 -24.851562 23.097656 -29.855469 15.488281 -29.855469 L 2.613281 -29.855469 L 2.613281 0 L 8.210938 0 L 8.210938 -7.425781 L 15.488281 -7.425781 C 16.160156 -7.425781 16.792969 -7.464844 17.390625 -7.539062 L 20.078125 0 L 25.933594 0 L 22.539062 -9.554688 C 25.003906 -11.605469 25.933594 -14.925781 25.933594 -18.660156 Z M 8.210938 -13.023438 L 8.210938 -24.292969 L 15.488281 -24.292969 C 18.246094 -24.292969 18.996094 -23.359375 19.253906 -23.0625 C 19.964844 -22.167969 20.335938 -20.597656 20.335938 -18.660156 C 20.335938 -16.605469 19.964844 -15.039062 19.292969 -14.21875 C 18.660156 -13.398438 17.390625 -13.023438 15.488281 -13.023438 Z M 8.210938 -13.023438 "/></g></g></g><g fill="#ffffff" fill-opacity="0.4"><g transform="translate(865.811712, 102.545255)"><g><path d="M 2.613281 -29.855469 L 8.210938 -29.855469 L 8.210938 -0.113281 L 2.613281 -0.113281 Z M 2.613281 -29.855469 "/></g></g></g><g fill="#ffffff" fill-opacity="0.4"><g transform="translate(876.631248, 102.545255)"><g><path d="M 25.039062 -29.855469 L 2.613281 -29.855469 L 2.613281 -24.292969 L 11.046875 -24.292969 L 11.046875 0 L 16.605469 0 L 16.605469 -24.292969 L 25.039062 -24.292969 Z M 25.039062 -29.855469 "/></g></g></g><g fill="#ffffff" fill-opacity="0.4"><g transform="translate(904.276979, 102.545255)"><g><path d="M 20.226562 0 L 26.046875 0 L 17.277344 -29.777344 L 17.277344 -29.855469 L 11.417969 -29.855469 L 2.613281 0 L 8.472656 0 L 10.671875 -7.425781 L 18.023438 -7.425781 Z M 12.316406 -12.984375 L 14.367188 -19.925781 L 16.382812 -12.984375 Z M 12.316406 -12.984375 "/></g></g></g><g fill="#ffffff" fill-opacity="0.4"><g transform="translate(932.930039, 102.545255)"><g><path d="M 15 0.375 L 15.671875 0.375 C 22.089844 0.335938 25.75 -3.84375 26.011719 -7.984375 C 26.308594 -12.316406 23.023438 -17.164062 15.113281 -18.171875 L 15.039062 -18.171875 C 12.164062 -18.507812 9.179688 -19.925781 9.328125 -22.015625 C 9.441406 -23.507812 11.679688 -24.890625 15.746094 -24.703125 L 15.859375 -24.703125 C 18.097656 -24.703125 20.785156 -23.621094 22.167969 -22.613281 L 25.375 -27.09375 C 23.25 -28.621094 19.515625 -30.1875 15.933594 -30.1875 C 8.023438 -30.601562 4.179688 -26.570312 3.84375 -22.464844 C 3.65625 -20.078125 4.664062 -17.726562 6.605469 -15.933594 C 8.507812 -14.179688 11.230469 -13.0625 14.441406 -12.726562 C 18.808594 -12.128906 20.636719 -10.113281 20.523438 -8.359375 C 20.414062 -6.753906 18.695312 -5.148438 15.597656 -5.148438 L 15.410156 -5.148438 C 15.375 -5.148438 11.308594 -4.925781 8.808594 -6.976562 C 8.171875 -7.464844 7.648438 -8.058594 7.164062 -8.769531 L 2.613281 -5.671875 C 3.359375 -4.550781 4.292969 -3.546875 5.335938 -2.6875 C 8.730469 0.0742188 13.210938 0.375 15 0.375 Z M 15 0.375 "/></g></g></g><g fill="#ade8a9" fill-opacity="1"><g transform="translate(300.07687, 101.709295)"><g><path d="M 15 0.375 L 15.671875 0.375 C 22.089844 0.335938 25.75 -3.84375 26.011719 -7.984375 C 26.308594 -12.316406 23.023438 -17.164062 15.113281 -18.171875 L 15.039062 -18.171875 C 12.164062 -18.507812 9.179688 -19.925781 9.328125 -22.015625 C 9.441406 -23.507812 11.679688 -24.890625 15.746094 -24.703125 L 15.859375 -24.703125 C 18.097656 -24.703125 20.785156 -23.621094 22.167969 -22.613281 L 25.375 -27.09375 C 23.25 -28.621094 19.515625 -30.1875 15.933594 -30.1875 C 8.023438 -30.601562 4.179688 -26.570312 3.84375 -22.464844 C 3.65625 -20.078125 4.664062 -17.726562 6.605469 -15.933594 C 8.507812 -14.179688 11.230469 -13.0625 14.441406 -12.726562 C 18.808594 -12.128906 20.636719 -10.113281 20.523438 -8.359375 C 20.414062 -6.753906 18.695312 -5.148438 15.597656 -5.148438 L 15.410156 -5.148438 C 15.375 -5.148438 11.308594 -4.925781 8.808594 -6.976562 C 8.171875 -7.464844 7.648438 -8.058594 7.164062 -8.769531 L 2.613281 -5.671875 C 3.359375 -4.550781 4.292969 -3.546875 5.335938 -2.6875 C 8.730469 0.0742188 13.210938 0.375 15 0.375 Z M 15 0.375 "/></g></g></g><g fill="#ade8a9" fill-opacity="1"><g transform="translate(328.692617, 101.709295)"><g><path d="M 19.925781 -24.332031 L 19.925781 -29.890625 L 2.613281 -29.890625 L 2.613281 0 L 19.925781 0 L 19.925781 -5.558594 L 8.210938 -5.558594 L 8.210938 -12.203125 L 15.1875 -12.203125 L 15.1875 -17.761719 L 8.210938 -17.761719 L 8.210938 -24.332031 Z M 19.925781 -24.332031 "/></g></g></g><g fill="#ade8a9" fill-opacity="1"><g transform="translate(351.227057, 101.709295)"><g><path d="M 25.933594 -18.660156 C 25.933594 -24.851562 23.097656 -29.855469 15.488281 -29.855469 L 2.613281 -29.855469 L 2.613281 0 L 8.210938 0 L 8.210938 -7.425781 L 15.488281 -7.425781 C 16.160156 -7.425781 16.792969 -7.464844 17.390625 -7.539062 L 20.078125 0 L 25.933594 0 L 22.539062 -9.554688 C 25.003906 -11.605469 25.933594 -14.925781 25.933594 -18.660156 Z M 8.210938 -13.023438 L 8.210938 -24.292969 L 15.488281 -24.292969 C 18.246094 -24.292969 18.996094 -23.359375 19.253906 -23.0625 C 19.964844 -22.167969 20.335938 -20.597656 20.335938 -18.660156 C 20.335938 -16.605469 19.964844 -15.039062 19.292969 -14.21875 C 18.660156 -13.398438 17.390625 -13.023438 15.488281 -13.023438 Z M 8.210938 -13.023438 "/></g></g></g><g fill="#ade8a9" fill-opacity="1"><g transform="translate(379.768187, 101.709295)"><g><path d="M 2.613281 -29.855469 L 8.210938 -29.855469 L 8.210938 -0.113281 L 2.613281 -0.113281 Z M 2.613281 -29.855469 "/></g></g></g><g fill="#ade8a9" fill-opacity="1"><g transform="translate(390.587701, 101.709295)"><g><path d="M 19.925781 -24.332031 L 19.925781 -29.890625 L 2.613281 -29.890625 L 2.613281 0 L 19.925781 0 L 19.925781 -5.558594 L 8.210938 -5.558594 L 8.210938 -12.203125 L 15.1875 -12.203125 L 15.1875 -17.761719 L 8.210938 -17.761719 L 8.210938 -24.332031 Z M 19.925781 -24.332031 "/></g></g></g><g fill="#ade8a9" fill-opacity="1"><g transform="translate(413.122141, 101.709295)"><g><path d="M 15 0.375 L 15.671875 0.375 C 22.089844 0.335938 25.75 -3.84375 26.011719 -7.984375 C 26.308594 -12.316406 23.023438 -17.164062 15.113281 -18.171875 L 15.039062 -18.171875 C 12.164062 -18.507812 9.179688 -19.925781 9.328125 -22.015625 C 9.441406 -23.507812 11.679688 -24.890625 15.746094 -24.703125 L 15.859375 -24.703125 C 18.097656 -24.703125 20.785156 -23.621094 22.167969 -22.613281 L 25.375 -27.09375 C 23.25 -28.621094 19.515625 -30.1875 15.933594 -30.1875 C 8.023438 -30.601562 4.179688 -26.570312 3.84375 -22.464844 C 3.65625 -20.078125 4.664062 -17.726562 6.605469 -15.933594 C 8.507812 -14.179688 11.230469 -13.0625 14.441406 -12.726562 C 18.808594 -12.128906 20.636719 -10.113281 20.523438 -8.359375 C 20.414062 -6.753906 18.695312 -5.148438 15.597656 -5.148438 L 15.410156 -5.148438 C 15.375 -5.148438 11.308594 -4.925781 8.808594 -6.976562 C 8.171875 -7.464844 7.648438 -8.058594 7.164062 -8.769531 L 2.613281 -5.671875 C 3.359375 -4.550781 4.292969 -3.546875 5.335938 -2.6875 C 8.730469 0.0742188 13.210938 0.375 15 0.375 Z M 15 0.375 "/></g></g></g><g fill="#ade8a9" fill-opacity="1"><g transform="translate(441.737888, 101.709295)"><g/></g></g><g fill="#ade8a9" fill-opacity="1"><g transform="translate(452.930486, 101.709295)"><g><path d="M 19.21875 -29.890625 L 13.734375 -16.90625 L 8.210938 -29.890625 L 2.613281 -29.890625 L 10.933594 -10.335938 L 10.933594 0 L 16.492188 0 L 16.492188 -10.335938 L 24.777344 -29.890625 Z M 19.21875 -29.890625 "/></g></g></g><g fill="#ade8a9" fill-opacity="1"><g transform="translate(480.315063, 101.709295)"><g/></g></g><g fill="#ade8a9" fill-opacity="1"><g transform="translate(491.507672, 101.709295)"><g><path d="M 15.488281 -29.855469 L 2.613281 -29.855469 L 2.613281 0 L 8.210938 0 L 8.210938 -7.425781 L 15.488281 -7.425781 C 23.359375 -7.425781 25.933594 -12.464844 25.933594 -18.660156 C 25.933594 -24.851562 23.097656 -29.855469 15.488281 -29.855469 Z M 19.292969 -14.21875 C 18.660156 -13.398438 17.390625 -13.023438 15.488281 -13.023438 L 8.210938 -13.023438 L 8.210938 -24.292969 L 15.488281 -24.292969 C 18.246094 -24.292969 18.996094 -23.359375 19.253906 -23.0625 C 19.964844 -22.167969 20.335938 -20.597656 20.335938 -18.660156 C 20.335938 -16.605469 19.964844 -15.039062 19.292969 -14.21875 Z M 19.292969 -14.21875 "/></g></g></g><g fill="#ade8a9" fill-opacity="1"><g transform="translate(520.048802, 101.709295)"><g><path d="M 19.925781 -24.332031 L 19.925781 -29.890625 L 2.613281 -29.890625 L 2.613281 0 L 19.925781 0 L 19.925781 -5.558594 L 8.210938 -5.558594 L 8.210938 -12.203125 L 15.1875 -12.203125 L 15.1875 -17.761719 L 8.210938 -17.761719 L 8.210938 -24.332031 Z M 19.925781 -24.332031 "/></g></g></g><g fill="#ade8a9" fill-opacity="1"><g transform="translate(542.583231, 101.709295)"><g><path d="M 8.171875 -5.558594 L 8.171875 -29.855469 L 2.613281 -29.855469 L 2.613281 0 L 19.890625 0 L 19.890625 -5.558594 Z M 8.171875 -5.558594 "/></g></g></g><g fill="#ade8a9" fill-opacity="1"><g transform="translate(565.080357, 101.709295)"><g><path d="M 12.652344 -38.585938 L 5.484375 -38.585938 L 2.6875 -31.121094 L 7.089844 -31.121094 Z M 8.210938 -0.113281 L 2.613281 -0.113281 L 2.613281 -29.855469 L 8.210938 -29.855469 Z M 8.210938 -0.113281 "/></g></g></g><g fill="#ade8a9" fill-opacity="1"><g transform="translate(575.899872, 101.709295)"><g><path d="M 24.480469 -8.320312 C 22.914062 -6.492188 20.597656 -5.375 17.875 -5.375 C 12.613281 -5.375 8.882812 -9.664062 8.882812 -14.925781 C 8.882812 -20.1875 12.613281 -24.480469 17.875 -24.480469 C 20.597656 -24.480469 22.914062 -23.359375 24.480469 -21.53125 L 28.695312 -25.710938 C 25.933594 -28.472656 22.089844 -30.1875 17.875 -30.1875 C 9.441406 -30.1875 2.613281 -23.359375 2.613281 -14.925781 C 2.613281 -6.492188 9.441406 0.335938 17.875 0.335938 C 22.089844 0.335938 25.933594 -1.378906 28.695312 -4.140625 Z M 24.480469 -8.320312 "/></g></g></g><g fill="#ade8a9" fill-opacity="1"><g transform="translate(607.201851, 101.709295)"><g><path d="M 19.777344 -29.855469 L 19.777344 -10.335938 C 19.777344 -7.3125 17.351562 -4.886719 14.367188 -4.886719 L 13.621094 -4.886719 C 10.636719 -4.886719 8.210938 -7.3125 8.210938 -10.335938 L 8.210938 -29.855469 L 2.613281 -29.855469 L 2.613281 -10.335938 C 2.613281 -4.292969 7.574219 0.671875 13.621094 0.671875 L 14.367188 0.671875 C 20.414062 0.671875 25.339844 -4.292969 25.339844 -10.335938 L 25.339844 -29.855469 Z M 19.777344 -29.855469 "/></g></g></g><g fill="#ade8a9" fill-opacity="1"><g transform="translate(635.146048, 101.709295)"><g><path d="M 8.171875 -5.558594 L 8.171875 -29.855469 L 2.613281 -29.855469 L 2.613281 0 L 19.890625 0 L 19.890625 -5.558594 Z M 8.171875 -5.558594 "/></g></g></g><g fill="#ade8a9" fill-opacity="1"><g transform="translate(657.643174, 101.709295)"><g><path d="M 20.226562 0 L 26.046875 0 L 17.277344 -29.777344 L 17.277344 -29.855469 L 11.417969 -29.855469 L 2.613281 0 L 8.472656 0 L 10.671875 -7.425781 L 18.023438 -7.425781 Z M 12.316406 -12.984375 L 14.367188 -19.925781 L 16.382812 -12.984375 Z M 12.316406 -12.984375 "/></g></g></g><g fill="#ade8a9" fill-opacity="1"><g transform="translate(686.296214, 101.709295)"><g><path d="M 15 0.375 L 15.671875 0.375 C 22.089844 0.335938 25.75 -3.84375 26.011719 -7.984375 C 26.308594 -12.316406 23.023438 -17.164062 15.113281 -18.171875 L 15.039062 -18.171875 C 12.164062 -18.507812 9.179688 -19.925781 9.328125 -22.015625 C 9.441406 -23.507812 11.679688 -24.890625 15.746094 -24.703125 L 15.859375 -24.703125 C 18.097656 -24.703125 20.785156 -23.621094 22.167969 -22.613281 L 25.375 -27.09375 C 23.25 -28.621094 19.515625 -30.1875 15.933594 -30.1875 C 8.023438 -30.601562 4.179688 -26.570312 3.84375 -22.464844 C 3.65625 -20.078125 4.664062 -17.726562 6.605469 -15.933594 C 8.507812 -14.179688 11.230469 -13.0625 14.441406 -12.726562 C 18.808594 -12.128906 20.636719 -10.113281 20.523438 -8.359375 C 20.414062 -6.753906 18.695312 -5.148438 15.597656 -5.148438 L 15.410156 -5.148438 C 15.375 -5.148438 11.308594 -4.925781 8.808594 -6.976562 C 8.171875 -7.464844 7.648438 -8.058594 7.164062 -8.769531 L 2.613281 -5.671875 C 3.359375 -4.550781 4.292969 -3.546875 5.335938 -2.6875 C 8.730469 0.0742188 13.210938 0.375 15 0.375 Z M 15 0.375 "/></g></g></g><g fill="#ade8a9" fill-opacity="1"><g transform="translate(714.911951, 101.709295)"><g/></g></g><g fill="#ade8a9" fill-opacity="1"><g transform="translate(726.10456, 101.709295)"><g><path d="M 21.160156 -24.257812 L 21.160156 -29.855469 L 2.613281 -29.855469 L 2.613281 0 L 8.210938 0 L 8.210938 -10.5625 L 16.417969 -10.5625 L 16.417969 -16.160156 L 8.210938 -16.160156 L 8.210938 -24.257812 Z M 21.160156 -24.257812 "/></g></g></g><g fill="#ade8a9" fill-opacity="1"><g transform="translate(748.713637, 101.709295)"><g><path d="M 20.226562 0 L 26.046875 0 L 17.277344 -29.777344 L 17.277344 -29.855469 L 11.417969 -29.855469 L 2.613281 0 L 8.472656 0 L 10.671875 -7.425781 L 18.023438 -7.425781 Z M 12.316406 -12.984375 L 14.367188 -19.925781 L 16.382812 -12.984375 Z M 12.316406 -12.984375 "/></g></g></g><g fill="#ade8a9" fill-opacity="1"><g transform="translate(777.366698, 101.709295)"><g><path d="M 20.226562 -29.855469 L 14.480469 -10.375 L 8.730469 -29.855469 L 2.613281 -29.855469 L 11.417969 0 L 17.539062 0 L 26.347656 -29.855469 Z M 20.226562 -29.855469 "/></g></g></g><g fill="#ade8a9" fill-opacity="1"><g transform="translate(806.318226, 101.709295)"><g><path d="M 16.570312 -30.226562 C 8.136719 -30.226562 1.304688 -23.398438 1.304688 -14.964844 C 1.304688 -6.53125 8.136719 0.296875 16.570312 0.296875 C 25.003906 0.296875 31.832031 -6.53125 31.832031 -14.964844 C 31.832031 -23.398438 25.003906 -30.226562 16.570312 -30.226562 Z M 16.570312 -24.515625 C 21.867188 -24.515625 25.597656 -20.226562 25.597656 -14.964844 C 25.597656 -9.703125 21.867188 -5.410156 16.570312 -5.410156 C 11.308594 -5.410156 7.574219 -9.703125 7.574219 -14.964844 C 7.574219 -20.226562 11.308594 -24.515625 16.570312 -24.515625 Z M 16.570312 -24.515625 "/></g></g></g><g fill="#ade8a9" fill-opacity="1"><g transform="translate(839.44833, 101.709295)"><g><path d="M 25.933594 -18.660156 C 25.933594 -24.851562 23.097656 -29.855469 15.488281 -29.855469 L 2.613281 -29.855469 L 2.613281 0 L 8.210938 0 L 8.210938 -7.425781 L 15.488281 -7.425781 C 16.160156 -7.425781 16.792969 -7.464844 17.390625 -7.539062 L 20.078125 0 L 25.933594 0 L 22.539062 -9.554688 C 25.003906 -11.605469 25.933594 -14.925781 25.933594 -18.660156 Z M 8.210938 -13.023438 L 8.210938 -24.292969 L 15.488281 -24.292969 C 18.246094 -24.292969 18.996094 -23.359375 19.253906 -23.0625 C 19.964844 -22.167969 20.335938 -20.597656 20.335938 -18.660156 C 20.335938 -16.605469 19.964844 -15.039062 19.292969 -14.21875 C 18.660156 -13.398438 17.390625 -13.023438 15.488281 -13.023438 Z M 8.210938 -13.023438 "/></g></g></g><g fill="#ade8a9" fill-opacity="1"><g transform="translate(867.989461, 101.709295)"><g><path d="M 2.613281 -29.855469 L 8.210938 -29.855469 L 8.210938 -0.113281 L 2.613281 -0.113281 Z M 2.613281 -29.855469 "/></g></g></g><g fill="#ade8a9" fill-opacity="1"><g transform="translate(878.808997, 101.709295)"><g><path d="M 25.039062 -29.855469 L 2.613281 -29.855469 L 2.613281 -24.292969 L 11.046875 -24.292969 L 11.046875 0 L 16.605469 0 L 16.605469 -24.292969 L 25.039062 -24.292969 Z M 25.039062 -29.855469 "/></g></g></g><g fill="#ade8a9" fill-opacity="1"><g transform="translate(906.454727, 101.709295)"><g><path d="M 20.226562 0 L 26.046875 0 L 17.277344 -29.777344 L 17.277344 -29.855469 L 11.417969 -29.855469 L 2.613281 0 L 8.472656 0 L 10.671875 -7.425781 L 18.023438 -7.425781 Z M 12.316406 -12.984375 L 14.367188 -19.925781 L 16.382812 -12.984375 Z M 12.316406 -12.984375 "/></g></g></g><g fill="#ade8a9" fill-opacity="1"><g transform="translate(935.107788, 101.709295)"><g><path d="M 15 0.375 L 15.671875 0.375 C 22.089844 0.335938 25.75 -3.84375 26.011719 -7.984375 C 26.308594 -12.316406 23.023438 -17.164062 15.113281 -18.171875 L 15.039062 -18.171875 C 12.164062 -18.507812 9.179688 -19.925781 9.328125 -22.015625 C 9.441406 -23.507812 11.679688 -24.890625 15.746094 -24.703125 L 15.859375 -24.703125 C 18.097656 -24.703125 20.785156 -23.621094 22.167969 -22.613281 L 25.375 -27.09375 C 23.25 -28.621094 19.515625 -30.1875 15.933594 -30.1875 C 8.023438 -30.601562 4.179688 -26.570312 3.84375 -22.464844 C 3.65625 -20.078125 4.664062 -17.726562 6.605469 -15.933594 C 8.507812 -14.179688 11.230469 -13.0625 14.441406 -12.726562 C 18.808594 -12.128906 20.636719 -10.113281 20.523438 -8.359375 C 20.414062 -6.753906 18.695312 -5.148438 15.597656 -5.148438 L 15.410156 -5.148438 C 15.375 -5.148438 11.308594 -4.925781 8.808594 -6.976562 C 8.171875 -7.464844 7.648438 -8.058594 7.164062 -8.769531 L 2.613281 -5.671875 C 3.359375 -4.550781 4.292969 -3.546875 5.335938 -2.6875 C 8.730469 0.0742188 13.210938 0.375 15 0.375 Z M 15 0.375 "/></g></g></g><g fill="#ffffff" fill-opacity="0.4"><g transform="translate(961.535995, 102.545255)"><g/></g></g><g fill="#ade8a9" fill-opacity="1"><g transform="translate(963.713743, 101.709295)"><g/></g></g><g fill="#ffffff" fill-opacity="0.4"><g transform="translate(634.51481, 124.436351)"><g/></g></g><g fill="#ffffff" fill-opacity="1"><g transform="translate(637.491389, 123.293751)"><g/></g></g><g fill="#ff8d55" fill-opacity="0.4"><g transform="translate(629.919079, 121.298129)"><g/></g></g><g fill="#e2a165" fill-opacity="1"><g transform="translate(637.497921, 118.388884)"><g/></g></g><g fill="#ade8a9" fill-opacity="0.4"><g transform="translate(494.119266, 159.128391)"><g><path d="M 23.765625 -29.019531 L 23.765625 -35.652344 L 3.117188 -35.652344 L 3.117188 0 L 23.765625 0 L 23.765625 -6.632812 L 9.792969 -6.632812 L 9.792969 -14.554688 L 18.113281 -14.554688 L 18.113281 -21.1875 L 9.792969 -21.1875 L 9.792969 -29.019531 Z M 23.765625 -29.019531 "/></g></g></g><g fill="#ade8a9" fill-opacity="0.4"><g transform="translate(520.998719, 159.128391)"><g><path d="M 17.890625 0.445312 L 18.691406 0.445312 C 26.347656 0.402344 30.710938 -4.585938 31.023438 -9.523438 C 31.378906 -14.6875 27.460938 -20.472656 18.027344 -21.675781 L 17.9375 -21.675781 C 14.507812 -22.074219 10.949219 -23.765625 11.125 -26.257812 C 11.261719 -28.039062 13.929688 -29.6875 18.78125 -29.464844 L 18.914062 -29.464844 C 21.585938 -29.464844 24.789062 -28.171875 26.4375 -26.972656 L 30.265625 -32.3125 C 27.726562 -34.136719 23.277344 -36.007812 19.003906 -36.007812 C 9.570312 -36.496094 4.984375 -31.691406 4.585938 -26.792969 C 4.363281 -23.945312 5.5625 -21.140625 7.878906 -19.003906 C 10.148438 -16.914062 13.398438 -15.578125 17.222656 -15.175781 C 22.433594 -14.464844 24.613281 -12.0625 24.480469 -9.96875 C 24.34375 -8.054688 22.296875 -6.140625 18.605469 -6.140625 L 18.382812 -6.140625 C 18.335938 -6.140625 13.484375 -5.875 10.503906 -8.324219 C 9.746094 -8.902344 9.125 -9.613281 8.546875 -10.460938 L 3.117188 -6.765625 C 4.003906 -5.429688 5.117188 -4.226562 6.363281 -3.203125 C 10.414062 0.0898438 15.753906 0.445312 17.890625 0.445312 Z M 17.890625 0.445312 "/></g></g></g><g fill="#ade8a9" fill-opacity="0.4"><g transform="translate(555.132068, 159.128391)"><g><path d="M 29.863281 -35.605469 L 3.117188 -35.605469 L 3.117188 -28.972656 L 13.175781 -28.972656 L 13.175781 0 L 19.804688 0 L 19.804688 -28.972656 L 29.863281 -28.972656 Z M 29.863281 -35.605469 "/></g></g></g><g fill="#ade8a9" fill-opacity="0.4"><g transform="translate(588.108348, 159.128391)"><g><path d="M 25.101562 -46.019531 L 16.558594 -46.019531 L 13.21875 -37.121094 L 18.46875 -37.121094 Z M 24.125 0 L 31.066406 0 L 20.605469 -35.515625 L 20.605469 -35.605469 L 13.621094 -35.605469 L 3.117188 0 L 10.101562 0 L 12.730469 -8.855469 L 21.496094 -8.855469 Z M 14.6875 -15.488281 L 17.136719 -23.765625 L 19.539062 -15.488281 Z M 14.6875 -15.488281 "/></g></g></g><g fill="#ade8a9" fill-opacity="0.4"><g transform="translate(622.286196, 159.128391)"><g><path d="M 24.257812 -35.605469 L 24.257812 -11.570312 L 10.414062 -35.605469 L 3.117188 -35.605469 L 3.117188 0 L 9.792969 0 L 9.792969 -22.296875 L 22.609375 0 L 30.933594 0 L 30.933594 -35.605469 Z M 24.257812 -35.605469 "/></g></g></g><g fill="#ade8a9" fill-opacity="0.4"><g transform="translate(656.330534, 159.128391)"><g/></g></g><g fill="#ade8a9" fill-opacity="0.4"><g transform="translate(669.681256, 159.128391)"><g><path d="M 24.125 0 L 31.066406 0 L 20.605469 -35.515625 L 20.605469 -35.605469 L 13.621094 -35.605469 L 3.117188 0 L 10.101562 0 L 12.730469 -8.855469 L 21.496094 -8.855469 Z M 14.6875 -15.488281 L 17.136719 -23.765625 L 19.539062 -15.488281 Z M 14.6875 -15.488281 "/></g></g></g><g fill="#ade8a9" fill-opacity="0.4"><g transform="translate(703.859115, 159.128391)"><g><path d="M 29.195312 -9.925781 C 27.328125 -7.746094 24.566406 -6.410156 21.320312 -6.410156 C 15.042969 -6.410156 10.59375 -11.527344 10.59375 -17.804688 C 10.59375 -24.078125 15.042969 -29.195312 21.320312 -29.195312 C 24.566406 -29.195312 27.328125 -27.863281 29.195312 -25.679688 L 34.226562 -30.664062 C 30.933594 -33.960938 26.347656 -36.007812 21.320312 -36.007812 C 11.261719 -36.007812 3.117188 -27.863281 3.117188 -17.804688 C 3.117188 -7.746094 11.261719 0.402344 21.320312 0.402344 C 26.347656 0.402344 30.933594 -1.648438 34.226562 -4.941406 Z M 29.195312 -9.925781 "/></g></g></g><g fill="#ade8a9" fill-opacity="0.4"><g transform="translate(741.196626, 159.128391)"><g><path d="M 25.101562 -46.019531 L 16.558594 -46.019531 L 13.21875 -37.121094 L 18.46875 -37.121094 Z M 24.125 0 L 31.066406 0 L 20.605469 -35.515625 L 20.605469 -35.605469 L 13.621094 -35.605469 L 3.117188 0 L 10.101562 0 L 12.730469 -8.855469 L 21.496094 -8.855469 Z M 14.6875 -15.488281 L 17.136719 -23.765625 L 19.539062 -15.488281 Z M 14.6875 -15.488281 "/></g></g></g><g fill="#ffffff" fill-opacity="1"><g transform="translate(496.874235, 159.51558)"><g><path d="M 23.765625 -29.019531 L 23.765625 -35.652344 L 3.117188 -35.652344 L 3.117188 0 L 23.765625 0 L 23.765625 -6.632812 L 9.792969 -6.632812 L 9.792969 -14.554688 L 18.113281 -14.554688 L 18.113281 -21.1875 L 9.792969 -21.1875 L 9.792969 -29.019531 Z M 23.765625 -29.019531 "/></g></g></g><g fill="#ffffff" fill-opacity="1"><g transform="translate(523.753689, 159.51558)"><g><path d="M 17.890625 0.445312 L 18.691406 0.445312 C 26.347656 0.402344 30.710938 -4.585938 31.023438 -9.523438 C 31.378906 -14.6875 27.460938 -20.472656 18.027344 -21.675781 L 17.9375 -21.675781 C 14.507812 -22.074219 10.949219 -23.765625 11.125 -26.257812 C 11.261719 -28.039062 13.929688 -29.6875 18.78125 -29.464844 L 18.914062 -29.464844 C 21.585938 -29.464844 24.789062 -28.171875 26.4375 -26.972656 L 30.265625 -32.3125 C 27.726562 -34.136719 23.277344 -36.007812 19.003906 -36.007812 C 9.570312 -36.496094 4.984375 -31.691406 4.585938 -26.792969 C 4.363281 -23.945312 5.5625 -21.140625 7.878906 -19.003906 C 10.148438 -16.914062 13.398438 -15.578125 17.222656 -15.175781 C 22.433594 -14.464844 24.613281 -12.0625 24.480469 -9.96875 C 24.34375 -8.054688 22.296875 -6.140625 18.605469 -6.140625 L 18.382812 -6.140625 C 18.335938 -6.140625 13.484375 -5.875 10.503906 -8.324219 C 9.746094 -8.902344 9.125 -9.613281 8.546875 -10.460938 L 3.117188 -6.765625 C 4.003906 -5.429688 5.117188 -4.226562 6.363281 -3.203125 C 10.414062 0.0898438 15.753906 0.445312 17.890625 0.445312 Z M 17.890625 0.445312 "/></g></g></g><g fill="#ffffff" fill-opacity="1"><g transform="translate(557.887037, 159.51558)"><g><path d="M 29.863281 -35.605469 L 3.117188 -35.605469 L 3.117188 -28.972656 L 13.175781 -28.972656 L 13.175781 0 L 19.804688 0 L 19.804688 -28.972656 L 29.863281 -28.972656 Z M 29.863281 -35.605469 "/></g></g></g><g fill="#ffffff" fill-opacity="1"><g transform="translate(590.863318, 159.51558)"><g><path d="M 25.101562 -46.019531 L 16.558594 -46.019531 L 13.21875 -37.121094 L 18.46875 -37.121094 Z M 24.125 0 L 31.066406 0 L 20.605469 -35.515625 L 20.605469 -35.605469 L 13.621094 -35.605469 L 3.117188 0 L 10.101562 0 L 12.730469 -8.855469 L 21.496094 -8.855469 Z M 14.6875 -15.488281 L 17.136719 -23.765625 L 19.539062 -15.488281 Z M 14.6875 -15.488281 "/></g></g></g><g fill="#ffffff" fill-opacity="1"><g transform="translate(625.041165, 159.51558)"><g><path d="M 24.257812 -35.605469 L 24.257812 -11.570312 L 10.414062 -35.605469 L 3.117188 -35.605469 L 3.117188 0 L 9.792969 0 L 9.792969 -22.296875 L 22.609375 0 L 30.933594 0 L 30.933594 -35.605469 Z M 24.257812 -35.605469 "/></g></g></g><g fill="#ffffff" fill-opacity="1"><g transform="translate(659.085504, 159.51558)"><g/></g></g><g fill="#ffffff" fill-opacity="1"><g transform="translate(672.436225, 159.51558)"><g><path d="M 24.125 0 L 31.066406 0 L 20.605469 -35.515625 L 20.605469 -35.605469 L 13.621094 -35.605469 L 3.117188 0 L 10.101562 0 L 12.730469 -8.855469 L 21.496094 -8.855469 Z M 14.6875 -15.488281 L 17.136719 -23.765625 L 19.539062 -15.488281 Z M 14.6875 -15.488281 "/></g></g></g><g fill="#ffffff" fill-opacity="1"><g transform="translate(706.614084, 159.51558)"><g><path d="M 29.195312 -9.925781 C 27.328125 -7.746094 24.566406 -6.410156 21.320312 -6.410156 C 15.042969 -6.410156 10.59375 -11.527344 10.59375 -17.804688 C 10.59375 -24.078125 15.042969 -29.195312 21.320312 -29.195312 C 24.566406 -29.195312 27.328125 -27.863281 29.195312 -25.679688 L 34.226562 -30.664062 C 30.933594 -33.960938 26.347656 -36.007812 21.320312 -36.007812 C 11.261719 -36.007812 3.117188 -27.863281 3.117188 -17.804688 C 3.117188 -7.746094 11.261719 0.402344 21.320312 0.402344 C 26.347656 0.402344 30.933594 -1.648438 34.226562 -4.941406 Z M 29.195312 -9.925781 "/></g></g></g><g fill="#ffffff" fill-opacity="1"><g transform="translate(743.951596, 159.51558)"><g><path d="M 25.101562 -46.019531 L 16.558594 -46.019531 L 13.21875 -37.121094 L 18.46875 -37.121094 Z M 24.125 0 L 31.066406 0 L 20.605469 -35.515625 L 20.605469 -35.605469 L 13.621094 -35.605469 L 3.117188 0 L 10.101562 0 L 12.730469 -8.855469 L 21.496094 -8.855469 Z M 14.6875 -15.488281 L 17.136719 -23.765625 L 19.539062 -15.488281 Z M 14.6875 -15.488281 "/></g></g></g></svg>